<svg
        ref="canvas"
        data-name="Layer 2"
        xmlns="http://www.w3.org/2000/svg"
        viewBox="0 0 850 850"
      >
       <g ref="Baloons">
          <polygon
            style='fill:#ffffff'
            points="421.7,46.8 423.6,46.8 428.9,64.2 423.8,90.4 420.5,90.4 417.4,58.5"
          />
          <path
            style='fill:#e97d5f'
            d="M422.9,46.8c10.4,0,19.2,8.1,19.2,17.7s-5,13.1-8.3,16.5s-3.2,9.5-4.7,9.5s-6.2,0-6.2,0s0.9-15.7,0.9-25.7S422.9,46.8,422.9,46.8z"
          />
          <path
            style='fill:#f5d1d9'
            d="M421.7,46.8c-6.1,0-18,6-18,17.6s3.8,13.5,7.1,16.9s5.2,9.1,7,9.1s3.8,0,3.8,0s0.2-19,0.2-25.3S421.7,46.8,421.7,46.8z"
          />
          <line style="fill:none;stroke:#736741" x1="429.1" y1="89.5" x2="428.3" y2="96.2" />
          <circle style="fill:#736741" cx="417.7" cy="89.5" r="1.3" />
          <line style="fill:none;stroke:#736741" x1="418.9" y1="96.6" x2="417.7" y2="89.5" />
          <polygon
            style='fill:#836240'
            points="417.3,95.6 419.6,95.6 429.5,95.6 428.2,103.4 418.6,103.4"
          />
          <circle style="fill:#6e3f22" cx="429.1" cy="89.5" r="1.3" />
          <path className="st18" d="M422.9,46.8c1.4,10.3,1,26,0,43.7" />
          <path
            style="opacity:0.5;fill:#ffffff"
            d="M421.7,49.1c-3.9,0-11.4,5.4-11.4,15.8s2.4,12.1,4.6,15.1s3.4,8.2,4.5,8.2s2.4,0,2.4,0s0.1-17,0.1-22.7C421.9,59.9,421.7,49.1,421.7,49.1z"
          />
          <polygon
            style="fill:#714923"
            points="420.2,97.7 419.6,95.6 429.5,95.6 429.2,97.7"
          />
          <polygon
            style="fill:#ffffff"
            points="694.5,692.6 693.2,694.1 676.9,686.1 661.3,664.5 663.5,662.1 688.9,681.6"
          />
          <path
            style="fill:#93a378"
            d="M693.7,693.5c-7,7.5-19,8.4-26,1.9s-6.2-12.5-6.3-17.3c-0.2-4.8-4.8-8.7-3.8-9.9c1.1-1.1,4.3-4.6,4.3-4.6s10.8,11.4,18.1,18.1C687.3,688.8,693.7,693.5,693.7,693.5z"
          />
          <line style="fill:none;stroke:#a79880" x1="658.3" y1="669" x2="654.1" y2="663.8" />
          <line style="fill:none;stroke:#b6a48b" x1="660.2" y1="656.7" x2="666.1" y2="660.7" />
          <polygon
            style="fill:#b4a589"
            points="662,656.3 660.5,657.9 653.7,665.2 648.8,658.8 655.3,651.9"
          />
          <path
            style="fill:#abd2b8"
            d="M694.5,692.6c6.7-7.1,6.3-18.7-0.7-25.2s-12.7-5.5-17.4-5.4c-4.6,0-8.9-4.3-10-3.2c-1,1.1-3.8,4.1-3.8,4.1s8.5,5.8,15.9,12.6C685.9,682.3,694.5,692.6,694.5,692.6z"
          />
          <path
            style="opacity:0.2;fill:#ffffff"
            d="M694.5,692.6c2.6-2.8,5.5-9,4.6-14.6c-1.2-7.3-6-1.8-14.4-5.5c-9.2-4-18.4-13.5-20.5-11.1c-0.8,0.8-1.4,1.5-1.4,1.5s12,9,16.2,12.9C683,679.7,694.5,692.6,694.5,692.6z"
          />
          <polygon
            style="fill:#a6947a"
            points="658.5,657 660.5,657.9 653.7,665.2 652.4,663.5"
          />
          <path
            style="fill:#938e56"
            d="M693.7,693.5c-6,6.4-17,7.5-23.9,1c-7-6.5-7.9-11.9-8.4-16.3c-0.5-4.4-4.7-8.8-3.8-9.9c0.9-1,4.3-4.6,4.3-4.6s10.9,11.3,18.2,18C687.4,688.6,693.7,693.5,693.7,693.5z"
          />
          <path
            style="fill:#f4ac9e"
            d="M661.9,663.8c12.6,13.8,23.9,24.9,31.8,29.7c0,0-13.6-14.2-17.9-18.1C671.6,671.4,661.9,663.8,661.9,663.8z"
          />
        </g>
      </svg>
