<svg
  ref="canvas"
  data-name="Layer 2"
  xmlns="http://www.w3.org/2000/svg"
  viewBox="0 0 850 850"
>
  <g ref="Cloud1">
    <path
      ref="CloudSmall01"
      style="fill:#ffffff;stroke:#cbcacb"
      d="M732.9,299.7c6.3-3.4,3.9-20.4-11-20.4c0.5-3.2-1.4-7.5-6.7-6.2c-5.4,1.3-10.8,17.1-0.7,18c-0.4,3.7,0.2,7.4,6.2,10.2c-0.7,7.6,4.4,7.5,4.4,7.6c-2.7,10,12.1,6.4,6.8,1.1C735,305.5,734.3,303.5,732.9,299.7z"
    />
    <path
      ref="CloudBig01"
      style="fill:#ffffff;stroke:#cbcacb"
      d="M697,284.8c-0.8,8.5,6.9,17.6,15.6,12.2c8.7-5.4-0.6-15.1-2.1-15.4c3.6-2.3,5.4-12.9-1.2-19.8c-10.3-9.9-14.6-7.6-15.9-6.1c-1.9-4.5-6.3-8.6-10.3-3.5c-0.2-5.5-4.7-7.8-7.6-4.7c-3.1,3.1-1.2,9.3,3.8,9.8c0.3,3.9,0.2,8.9,7.8,10.2C686,272.2,687.3,281.1,697,284.8z"
    />
    <path
      ref="CloudSmall02"
      style="fill:#ffffff;stroke:#cbcacb"
      d="M699,574.7c4.6,2.7,14.8-5.4,8.9-15c2.3-0.8,4.3-3.9,1.4-6.8c-2.9-3-15.2-0.4-11.9,6.5c-2.5,1.1-4.7,3.1-4.2,8c-5.2,2.5-3.2,5.6-3.2,5.6c-7.5,2.1,0.6,10.2,1.9,4.8C696,578.4,697.1,577.1,699,574.7z"
    />
    <path
      ref="CloudBig02"
      style="fill:#ffffff;stroke:#cbcacb"
      d="M694.8,545.8c-5.8,2.8-8.8,11.3-1.9,14.9c6.8,3.6,9.6-6.2,9.1-7.3c2.9,1.3,10.4-1.4,12.4-8.4c2.5-10.4-0.8-12.5-2.2-12.7c2.1-3,3.2-7.4-1.7-8c3.6-2.3,3.3-6,0.1-6.8s-6.5,2.8-4.9,6.2c-2.4,1.7-5.7,3.7-3.7,9C698.6,533.6,693.2,538,694.8,545.8z"
    />
    <path
      ref="CloudSmall03"
      style="fill:#ffffff;stroke:#cbcacb"
      d="M382.4,741.9c-1.2,6.5,12.3,14.9,21.1,4.2c1.9,2.3,6.1,3.5,8.5-1.1c2.3-4.6-5.8-17.9-12.4-11.1c-2.4-2.5-5.5-4.2-10.9-1.6c-5.1-5-7.9-1.3-7.9-1.4c-5.5-7.9-11.7,4.8-4.8,4.2C376.9,739.9,378.8,740.7,382.4,741.9z"
    />
    <path
      ref="CloudBig03"
      style="fill:#ffffff;stroke:#cbcacb"
      d="M414.3,725.1c-5.5-5.5-16.7-5.5-18,3.9s11.1,8.6,12.3,7.7c-0.5,3.9,5.9,11.5,14.8,10.9c13.3-1.4,14.1-5.9,13.8-7.8c4.4,1.2,9.9,0.6,8.6-5.2c4.1,3.2,8.4,1.3,8-2.7s-5.9-6.3-9.3-3.2c-3-2.1-6.5-5.2-12-0.6C429.9,724.8,422.7,720.4,414.3,725.1z"
    />
    <path
      ref="CloudSmall04"
      style="fill:#ffffff;stroke:#cbcacb"
      d="M125.4,552.2c-4.1,1.7-3.6,12.2,5.4,13.1c-0.6,1.8,0.3,4.6,3.7,4.2c3.4-0.4,7.6-9.6,1.6-10.8c0.5-2.2,0.3-4.5-3.1-6.6c0.9-4.5-2.1-4.8-2.1-4.8c2.2-5.8-6.9-4.7-4-1C124.5,548.4,124.8,549.8,125.4,552.2z"
    />
    <path
      ref="CloudBig04"
      style="fill:#ffffff;stroke:#cbcacb"
      d="M146.2,563.2c1.1-5.1-3-11.1-8.7-8.4c-5.6,2.7-0.6,9.2,0.3,9.5c-2.2,1.2-4.1,7.5-0.5,12.1c5.5,6.6,8.4,5.5,9.3,4.7c0.9,2.8,3.3,5.6,5.9,2.7c-0.2,3.4,2.4,5,4.4,3.4s1.3-5.5-1.7-6.1c0-2.3,0.4-5.5-4.1-6.7C152,571.7,151.8,566.1,146.2,563.2z"
    />
    <path
      ref="CloudSmall05"
      style="fill:#ffffff;stroke:#cbcacb"
      d="M191,189.2c-5-3.7-19.1,3.8-14.1,15.4c-3,0.6-6,3.6-3.1,7.4c2.9,3.8,18.3,2.7,15.7-5.4c3.4-0.9,6.4-2.6,6.9-8.2c6.8-2,4.9-5.8,5-5.8c9.5-1.3,1.6-11.5-1.3-5.6C195.5,185.7,193.9,186.9,191,189.2z"
    />
    <path
      ref="CloudBig05"
      style="fill:#ffffff;stroke:#cbcacb"
      d="M190,222.1c7.7-2.2,13.1-11.3,5.6-16.1s-13.1,5.5-12.8,6.9c-3-2-13,0-16.8,7.6c-5.3,11.3-1.8,13.9,0,14.5c-3.3,3.1-5.4,7.7,0.3,9.1c-4.8,2-5.3,6.2-1.7,7.6c3.7,1.4,8.5-2.2,7.3-6.3c3.3-1.6,7.8-3.1,6.4-9.5C182.6,235.1,189.8,231.1,190,222.1z"
    />
    <path
      ref="CloudSmall06"
      style="fill:#ffffff;stroke:#cbcacb"
      d="M474.4,108.9c0.8-4.3-8.2-9.7-13.9-2.7c-1.2-1.5-4-2.2-5.5,0.8c-1.4,3.1,3.9,11.7,8.2,7.2c1.5,1.6,3.6,2.7,7.2,1c3.4,3.3,5.2,0.8,5.2,0.8c3.8,5.1,7.7-3.3,3.1-2.8C478.1,110.2,476.7,109.6,474.4,108.9z"
    />
    <path
      ref="CloudBig06"
      style="fill:#ffffff;stroke:#cbcacb"
      d="M453.6,120.1c3.8,3.7,11,3.6,11.8-2.6c0.8-6.1-7.4-5.5-8.1-4.9c0.3-2.5-4-7.5-9.8-7c-8.6,1-9.2,4-9,5.2c-2.9-0.8-6.4-0.3-5.5,3.5c-2.7-2-5.5-0.8-5.3,1.8c0.2,2.7,3.9,4.1,6.1,2c1.9,1.3,4.3,3.4,7.9,0.3C443.3,120.4,448.1,123.3,453.6,120.1z"
    />
  </g>
</svg>
