<svg viewBox="0 0 850 850" xmlns="http://www.w3.org/2000/svg"><g fill="#fff" stroke="#cac9ca"><path d="m126.6 384.3c5.6-5.9 5.4-17.5-4.4-18.6s-8.6 11.8-7.6 12.9c-4-.4-11.8 6.5-11 15.6 1.8 13.6 6.5 14.5 8.5 14.1-1.2 4.6-.4 10.2 5.6 8.7-3.2 4.3-1.2 8.6 3 8.3 4.2-.4 6.5-6.3 3-9.7 2.1-3.1 5.2-7 .3-12.4 3.4-2.6 7.8-10.1 2.6-18.9z"/><path d="m147.1 293.5c4.5-2.2 6.8-8.7 1.5-11.5-5.4-2.7-7.4 4.9-7.1 5.7-2.2-1-8.1 1.1-9.6 6.5-1.9 8.2.6 9.7 1.8 9.8-1.7 2.4-2.4 5.7 1.3 6.2-2.7 1.8-2.5 4.7-.1 5.3 2.4.7 5-2.2 3.8-4.9 1.9-1.3 4.4-2.8 2.8-7 2.6-.7 6.7-4.1 5.6-10.1z"/><path d="m289.5 149.6c4.9 1 10.6-2.9 8.1-8.2s-8.8-.6-9.1.2c-1.1-2.2-7.1-3.9-11.6-.6-6.4 5.4-5.3 8-4.5 8.8-2.7.9-5.4 3.1-2.7 5.7-3.3-.2-4.8 2.2-3.2 4.1s5.4 1.2 6-1.6c2.3.1 5.3.4 6.5-3.9 2.4 1.2 7.7 1 10.5-4.5z"/><path d="m599 177.6c1.1 5.9 8.7 9.4 12.8 3.8 2.2-3.6-.3-9.3-6-8.8 2.6-4.9.4-9.7-4.9-11.9-3.5-1.4-7.9-1.4-9.1 2-2-4.8-5.9-4.2-6.9-.4-1.4-3.1-5.8-2.8-6.9-.3-1 2.4 1.5 5.5 4.4 4.6 1.7 1.5 2.3 5 6.8 3.9-.2 3.4 1.9 7.7 9.8 7.1z"/><path d="m732.4 439.2c-2.8 4.2-1.3 11.2 4.7 10.8s3.9-8.1 3.2-8.6c2.4-.2 6.4-5.3 4.9-10.7-2.6-8.1-5.5-8.1-6.7-7.6.2-2.9-.9-6.2-4.3-4.7 1.4-3-.3-5.4-2.7-4.6s-3.2 4.5-.8 6.2c-.9 2.2-2.4 4.8 1.2 7.5-1.9 1.9-3.7 7.1.5 11.7z"/><path d="m586.9 672.6c-4.1-.1-8.3 3.9-5.5 7.8 2.8 4 7.2-.8 7.3-1.5 1.2 1.6 6.3 2.2 9.5-1.1 4.4-5.3 3.2-7.2 2.4-7.8 2.1-1.1 3.9-3.3 1.3-5 2.6-.3 3.6-2.4 2.1-3.9-1.6-1.4-4.5-.3-4.6 2.2-1.9.3-4.3.4-4.7 4-2.1-.3-6.4.5-7.8 5.3z"/><path d="m298.9 698.3c-1.9-3.5-7.2-5.1-9.2-.7-2 4.3 4.1 5.7 4.8 5.4-.8 1.8 1.2 6.4 5.5 7.3 6.6 1.1 7.6-.8 7.7-1.8 2 1.2 4.6 1.7 4.8-1.3 1.5 2.1 3.9 1.8 4.2-.2.4-2-2-3.9-4-2.8-1.1-1.4-2.4-3.4-5.6-2-.6-1.8-3.4-4.9-8.2-3.9z"/><path d="m198.6 625.4c-.9-5-6.9-9.2-11-4.6-4.2 4.5 2.8 8.7 3.8 8.6-1.6 1.9-1.1 8.4 3.9 11.3 7.6 4.1 9.8 2.1 10.3.9 1.9 2.3 5 4 6.5.4 1 3.2 4 3.8 5.2 1.5 1.3-2.3-.8-5.6-3.9-5.1-.8-2.2-1.6-5.2-6.2-4.7-.1-2.7-2.4-7.7-8.6-8.3z"/></g></svg>