<svg ref="canvas"
  data-name="Layer 2"
  xmlns="http://www.w3.org/2000/svg"
  viewBox="0 0 850 850">
  <g ref="Baum_Klein">
    <path
            ref="t-crown-12"
            styleUid="darkTreeCrown"       style="fill:#66922e;"
            d="M177.8,537.3c5.1-2.1,10.8,0.4,12.9,5.4c2.1,5.1-0.4,10.8-5.4,12.9c-5,2-10.8-0.4-12.8-5.4C170.3,545.2,172.6,539.4,177.8,537.3C177.7,537.3,177.7,537.3,177.8,537.3z"
          />
          <path
            ref="t-shadow-12"
            styleUid="darkTreeShadow"       style="fill:#50742b;"
            d="M178.5,556c4.3-0.9,8.5-4,8.6-8.9s-3-9.7-7.5-10.3c5.3-1.4,10.7,1.7,12.1,6.9c1.3,4.9-1.3,10-6,11.8C181.5,557.4,178.5,556,178.5,556z"
          />
          <path
            id="Stamm-12"
            ref="t-stem-12"
            data-seq="12"
            styleUid="darkTreeStem"       style="fill:#2e411c;"
            d="M193.8,540.5l-6.6,2.7l-6.1-2l0.7,1.7l3.1,1.3l-4.5,1.9l1.4,1.1l5.3-2.2l-0.7,3.5l1.8,0.5l1.4-4c0,0,1.9-0.7,5.3-2.2C198.2,541.5,196.7,539.3,193.8,540.5z"
          />
  </g>
</svg>
