<svg viewBox="0 0 850 850" xmlns="http://www.w3.org/2000/svg"><path d="m281 650.6c2.9-4.6 8.9-6.1 13.6-3.2 4.6 2.9 6.1 8.9 3.2 13.6-2.8 4.6-8.9 6.1-13.5 3.3-4.7-2.8-6.2-8.9-3.3-13.7 0 .1 0 .1 0 0z" fill="#66922e"/><path d="m292.7 665.2c3-3.3 4.5-8.3 1.6-12.2s-8.2-6-12.1-3.8c3.5-4.2 9.8-4.7 13.9-1.2 3.7 3.1 4.6 8.4 2.1 12.6-2.2 3.9-5.5 4.6-5.5 4.6z" fill="#50742b"/><path d="m295.8 643.7-3.7 6.1-6.1 2.1 1.5.9 3.3-.8-2.5 4.2 1.8.1 3-4.9 1.5 3.3 1.8-.7-1.2-4s1.1-1.7 3-4.9c1.7-3.3-.7-4.2-2.4-1.4z" fill="#2e411c"/></svg>