<svg ref="canvas"
  data-name="Layer 2"
  xmlns="http://www.w3.org/2000/svg"
  viewBox="0 0 850 850">
  <g ref="Baum_Klein">
    <path
            ref="t-crown-71"
            styleUid="darkTreeCrown"       style="fill:#66922e;"
            d="M684.1,302.3c-7.9,6.3-19.5,5-25.8-2.9s-5-19.5,2.9-25.8s19.5-5,25.8,2.9l0,0C693.3,284.4,692,296,684.1,302.3z"
          />
          <path
            ref="t-shadow-71"
            className="t shadow hide"
            d="M673.1,269.6c-7.2,3.8-13,11.5-10.6,20.2s10.4,15.7,18.6,14.4c-8.3,4.4-18.6,1.7-23.8-6.1c-5.4-7.8-3.3-18.4,3.2-23.9C667,268.6,673.1,269.6,673.1,269.6z"
          />
          <path
            id="Stamm-71"
            ref="t-stem-71"
            data-seq="71"
            className="t stem hide"
            d="M645.5,311.9c3.3-2.6,18.9-15.2,18.9-15.2l11.9,0.3l-2-2.6l-6.2-0.7l7.1-5.7l-3.1-1.3l-8.3,6.6l-0.5-6.6l-3.5,0.1l-0.5,7.7c0,0-10.6,8.4-15.9,12.7S642.2,314.5,645.5,311.9z"
          />
  </g>
</svg>
