<svg ref="canvas"
  data-name="Layer 2"
  xmlns="http://www.w3.org/2000/svg"
  viewBox="0 0 850 850">
  <g ref="Baum_Klein">
    <path
            ref="t-crown-25"
            styleUid="darkTreeCrown"       style="fill:#66922e;"
            d="M624.5,609.4c-4.4-3.2-5.5-9.4-2.3-13.8c3.2-4.4,9.4-5.5,13.8-2.3c4.4,3.2,5.4,9.3,2.3,13.7C635.2,611.5,629,612.6,624.5,609.4C624.5,609.5,624.5,609.4,624.5,609.4z"
          />
          <path
            ref="t-shadow-25"
            styleUid="darkTreeShadow"       style="fill:#50742b;"
            d="M639.8,598.8c-3.1-3.2-7.9-5-12.1-2.5s-6.6,7.7-4.7,11.8c-3.9-3.8-4-10.1-0.2-14c3.4-3.5,8.8-4,12.8-1.2C639.4,595.6,639.8,598.8,639.8,598.8z"
          />
          <path
            id="Stamm-25"
            ref="t-stem-25"
            data-seq="25"
            styleUid="darkTreeStem"       style="fill:#2e411c;"
            d="M618.6,594.2l5.8,4.2l1.6,6.2l1-1.4l-0.6-3.3l4,2.8l0.2-1.8l-4.7-3.3l3.3-1.3l-0.6-1.8l-4.1,0.9c0,0-1.6-1.2-4.7-3.3C617.1,589.9,616,592.4,618.6,594.2z"
          />
  </g>
</svg>
