<svg ref="canvas"
  data-name="Layer 2"
  xmlns="http://www.w3.org/2000/svg"
  viewBox="0 0 850 850">
  <g ref="Baum_Klein">
    <path
            ref="t-crown-44"
            styleUid="darkTreeCrown"       style="fill:#66922e;"
            d="M290.4,671.3c2.7-7.2,10.7-10.9,17.9-8.2s10.9,10.7,8.2,17.9c-2.7,7.2-10.7,10.9-17.9,8.2C291.5,686.5,287.8,678.5,290.4,671.3L290.4,671.3z"
          />
          <path
            ref="t-shadow-44"
            className="t shadow hide"
            d="M310.3,688.2c3.2-5.3,4-12.6-1.1-17.3c-5-4.7-12.8-6.1-17.7-2c4-6.6,12.6-8.7,19.1-4.7c5.5,3.3,8,10,6,16.1C314.7,686.5,310.3,688.2,310.3,688.2z"
          />
          <path
            id="Stamm-44"
            ref="t-stem-44"
            data-seq="44"
            className="t stem hide"
            d="M311.9,649.6c-1.6,4.2-6.5,17.6-6.5,17.6l-7.8,4.5l2.3,0.9l4.3-2l-2.4,6.5l2.5-0.4l2.8-7.5l3,4.1l2.3-1.4l-2.7-5.2c0,0,4.2-11.2,5.9-16.1C317.3,645.6,313.5,645.4,311.9,649.6z"
          />
  </g>
</svg>
