<svg ref="canvas"
  data-name="Layer 2"
  xmlns="http://www.w3.org/2000/svg"
  viewBox="0 0 850 850">
  <g ref="Baum_Klein">
    <path
            ref="t-crown-43"
            styleUid="darkTreeCrown"       style="fill:#66922e;"
            d="M218.6,616.4c4.7-6.1,13.4-7.3,19.5-2.7c6.1,4.7,7.3,13.4,2.7,19.5c-4.7,6.1-13.4,7.3-19.5,2.7C215.2,631.3,214,622.6,218.6,616.4L218.6,616.4z"
          />
          <path
            ref="t-shadow-43"
            className="t shadow hide"
            d="M232.8,638.4c4.6-4.1,7.4-10.9,4-16.8s-10.5-9.6-16.3-7.1c5.7-5.1,14.5-4.6,19.6,1.1c4.3,4.8,4.7,11.9,1,17.2C237.4,638,232.8,638.4,232.8,638.4z"
          />
          <path
            id="Stamm-43"
            ref="t-stem-43"
            data-seq="43"
            className="t stem hide"
            d="M245.6,601.9c-2.7,3.6-11.4,15-11.4,15l-8.8,2l2,1.5l4.7-0.6l-4.2,5.5l2.5,0.4l4.9-6.4l1.6,4.8l2.6-0.7l-1.1-5.8c0,0,7.3-9.5,10.4-13.7S248.3,598.4,245.6,601.9z"
          />
  </g>
</svg>
