<svg ref="canvas"
  data-name="Layer 2"
  xmlns="http://www.w3.org/2000/svg"
  viewBox="0 0 850 850">
  <g ref="Baum_Klein">
    <path
            ref="t-crown-15"
            styleUid="darkTreeCrown"       style="fill:#66922e;"
            d="M281,650.6c2.9-4.6,8.9-6.1,13.6-3.2c4.6,2.9,6.1,8.9,3.2,13.6c-2.8,4.6-8.9,6.1-13.5,3.3C279.6,661.5,278.1,655.4,281,650.6C281,650.7,281,650.7,281,650.6z"
          />
          <path
            ref="t-shadow-15"
            className="t shadow hide"
            d="M292.7,665.2c3-3.3,4.5-8.3,1.6-12.2s-8.2-6-12.1-3.8c3.5-4.2,9.8-4.7,13.9-1.2c3.7,3.1,4.6,8.4,2.1,12.6C296,664.5,292.7,665.2,292.7,665.2z"
          />
          <path
            id="Stamm-15"
            ref="t-stem-15"
            data-seq="15"
            className="t stem hide"
            d="M295.8,643.7l-3.7,6.1l-6.1,2.1l1.5,0.9l3.3-0.8l-2.5,4.2l1.8,0.1l3-4.9l1.5,3.3l1.8-0.7l-1.2-4c0,0,1.1-1.7,3-4.9C299.9,641.8,297.5,640.9,295.8,643.7z"
          />
  </g>
</svg>
