<svg ref="canvas"
  data-name="Layer 2"
  xmlns="http://www.w3.org/2000/svg"
  viewBox="0 0 850 850">
  <g ref="Baum_Klein">
    <path
            ref="t-crown-18"
            className="t crown hide"
            d="M396.5,694.9c0.6-5.4,5.5-9.3,11-8.7c5.4,0.6,9.3,5.5,8.7,11c-0.6,5.4-5.5,9.3-10.9,8.7C399.9,705.3,395.9,700.4,396.5,694.9C396.5,695,396.5,695,396.5,694.9z"
          />
          <path
            ref="t-shadow-18"
            className="t shadow hide"
            d="M413.2,703.3c1.3-4.2,0.6-9.4-3.7-11.8c-4.3-2.4-10-2.1-12.6,1.6c1.4-5.3,6.9-8.4,12.1-6.9c4.7,1.3,7.8,5.8,7.2,10.6C415.9,701.3,413.2,703.3,413.2,703.3z"
          />
          <path
            id="Stamm-18"
            ref="t-stem-18"
            data-seq="18"
            className="t stem hide"
            d="M407.1,682.4l-0.8,7.1l-4.7,4.4l1.8,0.2l2.6-2.1l-0.6,4.9l1.7-0.7l0.6-5.7l2.7,2.3l1.3-1.4l-2.8-3.2c0,0,0.3-2,0.7-5.7S407.4,679.3,407.1,682.4z"
          />
  </g>
</svg>
