<svg ref="canvas"
  data-name="Layer 2"
  xmlns="http://www.w3.org/2000/svg"
  viewBox="0 0 850 850">
  <g ref="Baum_Klein">
    <path
            ref="t-crown-31"
            styleUid="darkTreeCrown"       style="fill:#66922e;"
            d="M650.5,286.8c-4.6,3-10.7,1.7-13.7-2.9s-1.7-10.7,2.9-13.7c4.6-3,10.6-1.7,13.6,2.8C656.3,277.6,655.1,283.7,650.5,286.8C650.5,286.7,650.5,286.8,650.5,286.8z"
          />
          <path
            ref="t-shadow-31"
            styleUid="darkTreeShadow"       style="fill:#50742b;"
            d="M646.2,268.7c-4,1.7-7.6,5.5-6.7,10.4c0.9,4.8,4.8,9,9.3,8.7c-5,2.2-10.8,0-13.1-5c-2-4.4-0.5-9.6,3.5-12.3C643,267.8,646.2,268.7,646.2,268.7z"
          />
          <path
            id="Stamm-31"
            ref="t-stem-31"
            data-seq="31"
            styleUid="darkTreeStem"       style="fill:#2e411c;"
            d="M634.1,286.7l6-4l6.4,0.7l-1-1.5l-3.3-0.7l4.1-2.7l-1.6-0.9l-4.8,3.1l0.1-3.6l-1.9-0.1l-0.7,4.1c0,0-1.7,1.1-4.8,3.1C629.6,286.5,631.5,288.5,634.1,286.7z"
          />
  </g>
</svg>
