<svg ref="canvas"
  data-name="Layer 2"
  xmlns="http://www.w3.org/2000/svg"
  viewBox="0 0 850 850">
  <g ref="Baum_Klein">
    <path
            ref="t-crown-59"
            styleUid="darkTreeCrown"       style="fill:#66922e;"
            d="M141.3,400.9c10.1,0,18.4,8.1,18.4,18.3c0,10.1-8.1,18.4-18.3,18.4c-10.1,0-18.4-8.1-18.4-18.3l0,0C123,409.2,131.1,400.9,141.3,400.9z"
          />
          <path
            ref="t-shadow-59"
            className="t shadow hide"
            d="M129.6,433.3c8,1.5,17.3-1,20.9-9.3c3.5-8.3,1.6-18.7-5.6-22.8c9.2,1.8,15.6,10.2,14.8,19.6c-0.6,9.4-8.9,16.5-17.4,16.8S129.6,433.3,129.6,433.3z"
          />
          <path
            id="Stamm-59"
            ref="t-stem-59"
            data-seq="59"
            className="t stem hide"
            d="M177.5,417.3c-4.2,0-24.3,0.2-24.3,0.2l-9.2-7.6v3.3l4.4,4.4h-9.1l1.6,3h10.6l-3.7,5.5l2.8,2.1l5.2-5.7c0,0,13.5,0,20.4-0.1C183.1,422.2,181.7,417.3,177.5,417.3z"
          />
  </g>
</svg>
