<svg ref="canvas"
  data-name="Layer 2"
  xmlns="http://www.w3.org/2000/svg"
  viewBox="0 0 850 850">
  <g ref="Baum_Klein">
    <path
            ref="t-crown-63"
            className="t crown hide"
            d="M324.5,693.6c2.6-9.8,12.7-15.6,22.5-13s15.6,12.7,13,22.5s-12.7,15.6-22.5,13l0,0C327.7,713.5,321.9,703.4,324.5,693.6z"
          />
          <path
            ref="t-shadow-63"
            className="t shadow hide"
            d="M352.7,713.4c3.5-7.3,3.6-17-3.5-22.6s-17.7-6.5-23.5-0.5c4.1-8.4,13.9-12.4,22.7-9.2c8.9,3.1,13.6,12.8,11.6,21.2S352.7,713.4,352.7,713.4z"
          />
          <path
            id="Stamm-63"
            ref="t-stem-63"
            data-seq="63"
            className="t stem hide"
            d="M349.8,663c-1.1,4-6.2,23.5-6.2,23.5l-9.7,6.9l3.2,0.8l5.4-3.1l-2.3,8.8l3.3-0.8l2.7-10.2l4.3,5l2.8-2.1l-4.2-6.5c0,0,3.5-13,5.2-19.7C356,658.8,350.9,658.9,349.8,663z"
          />
  </g>
</svg>
