<svg ref="canvas"
  data-name="Layer 2"
  xmlns="http://www.w3.org/2000/svg"
  viewBox="0 0 850 850">
  <g ref="Baum_Klein">
    <path
            ref="t-crown-29"
            styleUid="darkTreeCrown"       style="fill:#66922e;"
            d="M688.5,361.5c-5.3,1.4-10.7-1.7-12.1-7s1.7-10.7,7-12.1c5.2-1.4,10.6,1.7,12.1,6.9C696.9,354.6,693.9,360,688.5,361.5C688.6,361.5,688.5,361.5,688.5,361.5z"
          />
          <path
            ref="t-shadow-29"
            styleUid="darkTreeShadow"       style="fill:#50742b;"
            d="M690.1,342.9c-4.4,0.4-8.9,3-9.6,7.8s1.8,10,6.1,11.1c-5.4,0.6-10.3-3.3-10.9-8.8c-0.5-4.8,2.5-9.3,7.2-10.6C687.3,341.1,690.1,342.9,690.1,342.9z"
          />
          <path
            id="Stamm-29"
            ref="t-stem-29"
            data-seq="29"
            styleUid="darkTreeStem"       style="fill:#2e411c;"
            d="M673,356.4l6.9-1.9l5.8,2.7l-0.5-1.7l-2.9-1.7l4.7-1.3l-1.3-1.3l-5.5,1.5l1.2-3.4l-1.8-0.7l-1.9,3.7c0,0-2,0.5-5.5,1.5S669.9,357.2,673,356.4z"
          />
  </g>
</svg>
