<svg ref="canvas"
  data-name="Layer 2"
  xmlns="http://www.w3.org/2000/svg"
  viewBox="0 0 850 850">
  <g ref="Baum_Klein">
    <path
            ref="t-crown-55"
            className="t crown hide"
            d="M346.1,152.3c3.8,9.4-0.6,20.1-10,23.9c-9.4,3.8-20.1-0.6-23.9-10s0.6-20.1,10-23.9l0,0C331.5,138.4,342.2,142.9,346.1,152.3z"
          />
          <path
            ref="t-shadow-55"
            className="t shadow hide"
            d="M311.6,153.6c1.7,7.9,7.4,15.7,16.5,15.8s18-5.5,19-13.8c1.9,9.2-3.6,18.4-12.6,21.1c-9,3-18.6-2-22.1-9.8C309,159.2,311.6,153.6,311.6,153.6z"
          />
          <path
            id="Stamm-55"
            ref="t-stem-55"
            data-seq="55"
            className="t stem hide"
            d="M340.2,181.9l-5-12.3l3.6-11.3l-3,1.2l-2.4,5.7l-3.4-8.4l-2.1,2.6l4,9.7l-6.5-1.4l-0.9,3.4l7.3,2.7c0,0,1.4,3.5,4,9.8C338.2,190,342.4,187.4,340.2,181.9z"
          />
  </g>
</svg>
