<svg ref="canvas"
  data-name="Layer 2"
  xmlns="http://www.w3.org/2000/svg"
  viewBox="0 0 850 850">
  <g ref="Baum_Klein">
    <path
            ref="t-crown-07"
            styleUid="darkTreeCrown"       style="fill:#66922e;"
            d="M218.8,246.4c4.5,3.1,5.6,9.2,2.6,13.7c-3.1,4.5-9.2,5.6-13.7,2.6c-4.5-3.1-5.6-9.2-2.6-13.7C208.1,244.5,214.2,243.3,218.8,246.4L218.8,246.4z"
          />
          <path
            ref="t-shadow-07"
            styleUid="darkTreeShadow"       style="fill:#50742b;"
            d="M203.7,257.3c3.1,3.1,8,4.9,12.1,2.2s6.5-7.8,4.5-11.9c3.9,3.8,4,10.1,0.2,14c-3.3,3.4-8.5,4-12.5,1.4C204.2,260.6,203.7,257.3,203.7,257.3z"
          />
          <path
            id="Stamm-07"
            ref="t-stem-07"
            data-seq="07"
            styleUid="darkTreeStem"       style="fill:#2e411c;"
            d="M225,261.5l-5.9-4l-1.8-6.2l-1,1.5l0.6,3.3l-4.1-2.8l-0.2,1.8l4.7,3.2l-3.3,1.3l0.6,1.8l4.1-1c0,0,1.7,1.2,4.7,3.2C226.6,265.8,227.7,263.3,225,261.5z"
          />
  </g>
</svg>
