<svg ref="canvas"
  data-name="Layer 2"
  xmlns="http://www.w3.org/2000/svg"
  viewBox="0 0 850 850">
  <g ref="Baum_Klein">
    <path
            ref="t-crown-16"
            className="t crown hide"
            d="M311.9,675c1.1-5.3,6.3-8.8,11.7-7.7c5.3,1.1,8.8,6.3,7.7,11.7c-1.1,5.3-6.3,8.8-11.6,7.7C314.3,685.6,310.8,680.4,311.9,675L311.9,675z"
          />
          <path
            ref="t-shadow-16"
            className="t shadow hide"
            d="M327.8,684.7c1.6-4.1,1.4-9.3-2.7-12.1c-4-2.8-9.7-2.9-12.7,0.5c1.9-5.1,7.6-7.7,12.7-5.8c4.5,1.7,7.2,6.4,6.3,11.1C330.7,683,327.8,684.7,327.8,684.7z"
          />
          <path
            id="Stamm-16"
            ref="t-stem-16"
            data-seq="16"
            className="t stem hide"
            d="M323.4,663.4l-1.4,7l-5,4l1.7,0.3l2.8-1.9l-1,4.8l1.7-0.5l1.1-5.6l2.5,2.5l1.4-1.2l-2.5-3.4c0,0,0.4-2,1.1-5.6C326.8,660.3,324,660.3,323.4,663.4z"
          />
  </g>
</svg>
