<svg viewBox="0 0 850 850" xmlns="http://www.w3.org/2000/svg"><path d="m166.6 322.2c7.2 2.8 10.7 10.8 8 18s-10.8 10.7-18 8c-7.2-2.8-10.7-10.8-8-18 2.8-7.2 10.8-10.8 18-8z" fill="#66922e"/><path d="m149.4 341.9c5.2 3.2 12.5 4.1 17.3-.8s6.3-12.8 2.3-17.7c6.5 4.1 8.5 12.6 4.5 19.2-3.4 5.5-10.2 7.9-16.4 5.8-6-2.2-7.7-6.5-7.7-6.5z" fill="#50742b"/><path d="m179.8 340.8-9.4-3.6-4.4-7.9-.9 2.3 1.9 4.3-6.4-2.5.3 2.6 7.5 2.9-4.1 2.9 1.4 2.3 5.3-2.6s2.6 1.1 7.5 2.9c4.8 1.8 5.5-2 1.3-3.6z" fill="#2e411c"/></svg>