<svg ref="canvas"
  data-name="Layer 2"
  xmlns="http://www.w3.org/2000/svg"
  viewBox="0 0 850 850">
  <g ref="Baum_Klein">
    <path
            ref="t-crown-66"
            styleUid="darkTreeCrown"       style="fill:#66922e;"
            d="M607.7,645.1c-7.4-6.9-7.8-18.5-0.9-25.9c6.9-7.4,18.5-7.8,25.9-0.9c7.4,6.9,7.8,18.5,0.9,25.9l0,0C626.8,651.7,615.1,652.1,607.7,645.1z"
          />
          <path
            ref="t-shadow-66"
            styleUid="darkTreeShadow"       style="fill:#50742b;"
            d="M638.5,629.5c-4.8-6.5-13.3-11.2-21.6-7.5s-14,12.5-11.5,20.5c-5.5-7.6-4.4-18.2,2.6-24.4c6.9-6.4,17.8-5.9,24.2-0.3C638.5,623.4,638.5,629.5,638.5,629.5z"
          />
          <path
            id="Stamm-66"
            ref="t-stem-66"
            data-seq="66"
            styleUid="darkTreeStem"       style="fill:#2e411c;"
            d="M592.6,608.3c3.1,2.9,17.8,16.5,17.8,16.5l1.5,11.8l2.2-2.4l-0.2-6.2l6.6,6.2l0.8-3.3l-7.7-7.2l6.5-1.5l-0.6-3.5l-7.7,0.6c0,0-9.9-9.2-14.9-13.9C591.9,600.9,589.6,605.5,592.6,608.3z"
          />
  </g>
</svg>
