<svg ref="canvas"
  data-name="Layer 2"
  xmlns="http://www.w3.org/2000/svg"
  viewBox="0 0 850 850">
  <g ref="Baum_Klein">
    <path
            ref="t-crown-28"
            className="t crown hide"
            d="M695.6,434.4c-5.5,0.1-10-4.2-10.1-9.6c-0.1-5.5,4.2-10,9.6-10.1c5.4-0.1,9.9,4.1,10.1,9.5C705.5,429.6,701.2,434.2,695.6,434.4C695.7,434.4,695.7,434.4,695.6,434.4z"
          />
          <path
            ref="t-shadow-28"
            className="t shadow hide"
            d="M701.5,416.6c-4.3-0.7-9.4,0.8-11.1,5.3c-1.8,4.6-0.6,10.1,3.4,12.2c-5.4-0.7-9.2-5.6-8.5-11.1c0.6-4.8,4.6-8.4,9.4-8.6C699.2,414.3,701.5,416.6,701.5,416.6z"
          />
          <path
            id="Stamm-28"
            ref="t-stem-28"
            data-seq="28"
            className="t stem hide"
            d="M681.8,425.8l7.2-0.2l5.1,4l-0.1-1.8l-2.4-2.3l4.9-0.2l-0.9-1.6l-5.7,0.2l1.9-3l-1.5-1.1l-2.7,3.2c0,0-2,0-5.7,0.2S678.6,425.9,681.8,425.8z"
          />
  </g>
</svg>
