<svg ref="canvas"
  data-name="Layer 2"
  xmlns="http://www.w3.org/2000/svg"
  viewBox="0 0 850 850">
  <g ref="Baum_Klein">
    <path
            ref="t-crown-72"
            styleUid="darkTreeCrown"       style="fill:#66922e;"
            d="M630,228.6c-6.4,7.9-18,9-25.8,2.6c-7.9-6.4-9-18-2.6-25.8s18-9,25.8-2.6l0,0C635.3,209.2,636.5,220.8,630,228.6z"
          />
          <path
            ref="t-shadow-72"
            className="t shadow hide"
            d="M612.4,199c-6.2,5.2-10.3,14-6,22c4.2,8,13.4,13.2,21.2,10.1c-7.2,6-17.8,5.6-24.5-1c-6.9-6.5-7.1-17.3-1.9-24.1C606.3,199.3,612.4,199,612.4,199z"
          />
          <path
            id="Stamm-72"
            ref="t-stem-72"
            data-seq="72"
            className="t stem hide"
            d="M594.3,246.2c2.6-3.2,15.3-18.9,15.3-18.9l11.7-2.3l-2.5-2.1l-6.2,0.6l5.7-7L615,216l-6.7,8.2l-1.9-6.3l-3.4,0.8l1.1,7.7c0,0-8.5,10.5-12.8,15.8C587,247.5,591.7,249.4,594.3,246.2z"
          />
  </g>
</svg>
