<svg ref="canvas"
  data-name="Layer 2"
  xmlns="http://www.w3.org/2000/svg"
  viewBox="0 0 850 850">
  <g ref="Baum_Klein">
    <path
            ref="t-crown-67"
            styleUid="darkTreeCrown"       style="fill:#66922e;"
            d="M658.6,591.4c-8.8-5-12-16.1-7-25c5-8.8,16.1-12,25-7c8.8,5,12,16.1,7,25l0,0C678.6,593.2,667.4,596.3,658.6,591.4z"
          />
          <path
            ref="t-shadow-67"
            styleUid="darkTreeShadow"       style="fill:#50742b;"
            d="M684.8,568.9c-6.2-5.2-15.6-7.7-22.7-2.2c-7.2,5.5-10.7,15.5-6.3,22.6c-7.2-6.1-8.6-16.6-3.3-24.3c5.2-7.9,15.8-10,23.4-6C683.4,562.9,684.8,568.9,684.8,568.9z"
          />
          <path
            id="Stamm-67"
            ref="t-stem-67"
            data-seq="67"
            styleUid="darkTreeStem"       style="fill:#2e411c;"
            d="M635.2,559.2c3.6,2,21.2,11.8,21.2,11.8l4.2,11.1l1.6-2.9l-1.7-5.9l7.9,4.4v-3.4l-9.2-5.2l5.9-3l-1.4-3.2l-7.3,2.4c0,0-11.8-6.6-17.8-10C632.7,552.2,631.5,557.1,635.2,559.2z"
          />
  </g>
</svg>
