<svg ref="canvas"
  data-name="Layer 2"
  xmlns="http://www.w3.org/2000/svg"
  viewBox="0 0 850 850">
  <g ref="Baum_Klein">
    <path
            ref="t-crown-48"
            className="t crown hide"
            d="M695.3,485.1c-7.6-1.1-12.8-8.2-11.7-15.8c1.1-7.6,8.2-12.8,15.8-11.7c7.6,1.1,12.8,8.2,11.7,15.8l0,0C710,481,702.9,486.2,695.3,485.1z"
          />
          <path
            ref="t-shadow-48"
            className="t shadow hide"
            d="M707.9,462.1c-5.8-2-13.1-1.3-16.7,4.5s-3.4,13.8,1.5,17.8c-7.2-2.6-11-10.6-8.4-17.8c2.2-6,8.2-9.8,14.6-9.1C705.3,458.2,707.9,462.1,707.9,462.1z"
          />
          <path
            id="Stamm-48"
            ref="t-stem-48"
            data-seq="48"
            className="t stem hide"
            d="M669.7,468.3l18.6,2.9l5.9,6.8l0.4-2.4l-2.8-3.8l6.8,1l-0.9-2.4l-7.9-1.2l3.4-3.7l-1.8-2l-4.6,3.7c0,0-11.9-1.8-17-2.6S665.2,467.6,669.7,468.3z"
          />
  </g>
</svg>
