<svg ref="canvas"
  data-name="Layer 2"
  xmlns="http://www.w3.org/2000/svg"
  viewBox="0 0 850 850">
  <g ref="Baum_Klein">
    <path
            ref="t-crown-51"
            className="t crown hide"
            d="M650.9,265.4c-5.7,5.2-14.5,4.8-19.7-0.9c-5.2-5.7-4.8-14.5,0.9-19.7s14.5-4.8,19.7,0.9C657,251.4,656.6,260.2,650.9,265.4L650.9,265.4z"
          />
          <path
            ref="t-shadow-51"
            className="t shadow hide"
            d="M640.9,241.2c-5.2,3.3-9.3,9.4-7,15.8c2.3,6.4,8.6,11.4,14.8,9.9c-6.5,4-15.1,2-19.1-4.6c-3.4-5.5-2.5-12.6,2.1-17.2C636.3,240.8,640.9,241.2,640.9,241.2z"
          />
          <path
            id="Stamm-51"
            ref="t-stem-51"
            data-seq="51"
            className="t stem hide"
            d="M621.8,274.8c3.3-3,13.9-12.7,13.9-12.7l9-0.4l-1.7-1.8l-4.7-0.2l5.1-4.6l-2.4-0.8l-5.9,5.4l-0.7-4.9l-2.7,0.2v5.9c0,0-8.9,8.1-12.7,11.6C615.2,275.9,618.5,277.9,621.8,274.8z"
          />
  </g>
</svg>
