<svg ref="canvas"
  data-name="Layer 2"
  xmlns="http://www.w3.org/2000/svg"
  viewBox="0 0 850 850">
  <g ref="Baum_Klein">
    <path
            ref="t-crown-03"
            className="t crown hide"
            d="M388.4,156.6c1.3,5.3-1.9,10.7-7.2,12s-10.7-1.9-12-7.2s1.9-10.6,7.1-12C381.6,148.1,387,151.3,388.4,156.6L388.4,156.6z"
          />
          <path
            ref="t-shadow-03"
            className="t shadow hide"
            d="M369.8,154.7c0.3,4.4,2.8,9,7.6,9.7c4.8,0.8,10-1.6,11.2-5.9c0.5,5.4-3.5,10.2-9,10.7c-4.8,0.4-9.2-2.7-10.4-7.3C368,157.5,369.8,154.7,369.8,154.7z"
          />
          <path
            id="Stamm-03"
            ref="t-stem-03"
            data-seq="03"
            className="t stem hide"
            d="M383,172l-1.8-6.9l2.8-5.8l-1.7,0.4l-1.7,2.9l-1.2-4.7l-1.3,1.2l1.3,5.5l-3.4-1.2l-0.8,1.7l3.7,2c0,0,0.5,2,1.4,5.6C381.3,176.3,383.7,175.1,383,172z"
          />
  </g>
</svg>
