<svg ref="canvas"
  data-name="Layer 2"
  xmlns="http://www.w3.org/2000/svg"
  viewBox="0 0 850 850">
  <g ref="Baum_Klein">
    <path
            ref="t-crown-10"
            styleUid="darkTreeCrown"       style="fill:#66922e;"
            d="M158.5,366.4c5.4,0.9,9,6,8.1,11.4s-6,9-11.4,8.1c-5.3-0.9-9-5.9-8.1-11.3C147.9,369.2,153,365.5,158.5,366.4L158.5,366.4z"
          />
          <path
            ref="t-shadow-10"
            styleUid="darkTreeShadow"       style="fill:#50742b;"
            d="M149.4,382.6c4.1,1.5,9.3,1,11.9-3.1s2.5-9.9-1-12.7c5.2,1.7,8,7.3,6.3,12.5c-1.5,4.6-6.1,7.4-10.9,6.7C151.3,385.4,149.4,382.6,149.4,382.6z"
          />
          <path
            id="Stamm-10"
            ref="t-stem-10"
            data-seq="10"
            styleUid="darkTreeStem"       style="fill:#2e411c;"
            d="M170.5,377.5l-7.1-1.1l-4.2-4.9l-0.2,1.7l2,2.7l-4.8-0.8l0.6,1.7l5.6,0.9l-2.5,2.6l1.3,1.4l3.3-2.6c0,0,2,0.4,5.7,0.9C173.8,380.6,173.7,378,170.5,377.5z"
          />
  </g>
</svg>
