<svg ref="canvas"
  data-name="Layer 2"
  xmlns="http://www.w3.org/2000/svg"
  viewBox="0 0 850 850">
  <g ref="Baum_Klein">
    <path
            ref="t-crown-39"
            styleUid="darkTreeCrown"       style="fill:#66922e;"
            d="M166.6,322.2c7.2,2.8,10.7,10.8,8,18s-10.8,10.7-18,8c-7.2-2.8-10.7-10.8-8-18C151.4,323,159.4,319.4,166.6,322.2L166.6,322.2z"
          />
          <path
            ref="t-shadow-39"
            styleUid="darkTreeShadow"       style="fill:#50742b;"
            d="M149.4,341.9c5.2,3.2,12.5,4.1,17.3-0.8s6.3-12.8,2.3-17.7c6.5,4.1,8.5,12.6,4.5,19.2c-3.4,5.5-10.2,7.9-16.4,5.8C151.1,346.2,149.4,341.9,149.4,341.9z"
          />
          <path
            id="Stamm-39"
            ref="t-stem-39"
            data-seq="39"
            styleUid="darkTreeStem"       style="fill:#2e411c;"
            d="M179.8,340.8l-9.4-3.6l-4.4-7.9l-0.9,2.3l1.9,4.3l-6.4-2.5l0.3,2.6l7.5,2.9l-4.1,2.9l1.4,2.3l5.3-2.6c0,0,2.6,1.1,7.5,2.9C183.3,346.2,184,342.4,179.8,340.8z"
          />
  </g>
</svg>
