<svg ref="canvas"
  data-name="Layer 2"
  xmlns="http://www.w3.org/2000/svg"
  viewBox="0 0 850 850">
  <g ref="Baum_Klein">
    <path
            ref="t-crown-69"
            className="t crown hide"
            d="M704.6,470.9c-10-1.7-16.7-11.2-15-21.2s11.2-16.7,21.2-15s16.7,11.2,15,21.2l0,0C724.1,466,714.6,472.7,704.6,470.9z"
          />
          <path
            ref="t-shadow-69"
            className="t shadow hide"
            d="M721.8,441c-7.6-2.8-17.2-2.1-22.1,5.5c-4.9,7.6-4.9,18.2,1.6,23.5c-8.8-3.3-13.6-12.8-11.2-21.9c2.3-9.2,11.6-14.7,20-13.5S721.8,441,721.8,441z"
          />
          <path
            id="Stamm-69"
            ref="t-stem-69"
            data-seq="69"
            className="t stem hide"
            d="M671.8,448.4c4.1,0.7,23.9,4,23.9,4l7.7,9.1l0.6-3.2l-3.6-5.1l8.9,1.5l-1.1-3.2l-10.4-1.8l4.6-4.8l-2.4-2.6l-6.1,4.7c0,0-13.3-2.3-20.1-3.4C667.1,442.7,667.7,447.7,671.8,448.4z"
          />
  </g>
</svg>
