<svg ref="canvas"
  data-name="Layer 2"
  xmlns="http://www.w3.org/2000/svg"
  viewBox="0 0 850 850">
  <g ref="Baum_Klein">
    <path
            ref="t-crown-56"
            styleUid="darkTreeCrown"       style="fill:#66922e;"
            d="M241.8,206.4c7.5,6.8,8,18.5,1.1,25.9c-6.8,7.5-18.5,8-25.9,1.1c-7.5-6.8-8-18.5-1.1-25.9l0,0C222.8,200.1,234.4,199.6,241.8,206.4z"
          />
          <path
            ref="t-shadow-56"
            className="t shadow hide"
            d="M211.3,222.3c4.9,6.5,13.4,11.1,21.6,7.3c8.3-3.7,13.9-12.6,11.3-20.6c5.6,7.6,4.6,18.1-2.4,24.4c-6.9,6.5-17.7,6.1-24.2,0.5S211.3,222.3,211.3,222.3z"
          />
          <path
            id="Stamm-56"
            ref="t-stem-56"
            data-seq="56"
            className="t stem hide"
            d="M249.1,235.7l-9.8-9l-1.6-11.8l-2.2,2.4l0.3,6.2l-6.7-6.1l-0.8,3.3l7.8,7.1l-6.4,1.5l0.6,3.5l7.7-0.7c0,0,2.7,2.6,7.8,7.2S253.5,239.7,249.1,235.7z"
          />
  </g>
</svg>
