<svg ref="canvas"
  data-name="Layer 2"
  xmlns="http://www.w3.org/2000/svg"
  viewBox="0 0 850 850">
  <g ref="Baum_Klein">
    <path
            ref="t-crown-05"
            styleUid="darkTreeCrown"       style="fill:#66922e;"
            d="M317.1,175.8c2.6,4.8,0.8,10.8-4,13.4c-4.8,2.6-10.8,0.8-13.4-4s-0.8-10.8,3.9-13.4C308.4,169.3,314.5,171,317.1,175.8L317.1,175.8z"
          />
          <path
            ref="t-shadow-05"
            className="t shadow hide"
            d="M298.7,178.6c1.4,4.2,4.9,8,9.8,7.5s9.3-4,9.4-8.5c1.8,5.1-0.9,10.8-6,12.6c-4.5,1.6-9.6-0.3-11.9-4.5C297.6,181.7,298.7,178.6,298.7,178.6z"
          />
          <path
            id="Stamm-05"
            ref="t-stem-05"
            data-seq="05"
            className="t stem hide"
            d="M315.7,192.1l-3.4-6.3l1.3-6.3l-1.6,0.8l-1,3.2l-2.3-4.3l-1,1.5l2.7,5l-3.6-0.3l-0.3,1.9l4.1,1c0,0,0.9,1.8,2.7,5C315.2,196.6,317.3,194.9,315.7,192.1z"
          />
  </g>
</svg>
