<svg ref="canvas"
  data-name="Layer 2"
  xmlns="http://www.w3.org/2000/svg"
  viewBox="0 0 850 850">
  <g ref="Baum_Klein">
    <path
            ref="t-crown-62"
            className="t crown hide"
            d="M245.1,650.1c4.6-9,15.7-12.6,24.7-8s12.6,15.7,8,24.7s-15.7,12.6-24.7,8C244,670.2,240.5,659.1,245.1,650.1L245.1,650.1z"
          />
          <path
            ref="t-shadow-62"
            className="t shadow hide"
            d="M268.6,675.4c4.9-6.4,7.1-15.8,1.3-22.8c-5.8-7-15.9-10-22.9-5.5c5.8-7.4,16.3-9.2,24.2-4.2c8.1,4.9,10.6,15.5,6.9,23.2C274.5,673.8,268.6,675.4,268.6,675.4z"
          />
          <path
            id="Stamm-62"
            ref="t-stem-62"
            data-seq="62"
            className="t stem hide"
            d="M276.4,625.5c-1.9,3.7-11,21.6-11,21.6l-11,4.6l2.9,1.5l5.9-1.9l-4.1,8.1l3.4-0.1l4.8-9.4l3.2,5.8l3.2-1.5L271,647c0,0,6.2-12,9.3-18.1C283.3,622.8,278.3,621.8,276.4,625.5z"
          />
  </g>
</svg>
