<svg ref="canvas"
  data-name="Layer 2"
  xmlns="http://www.w3.org/2000/svg"
  viewBox="0 0 850 850">
  <g ref="Baum_Klein">
    <path
            ref="t-crown-36"
            styleUid="darkTreeCrown"       style="fill:#66922e;"
            d="M413.6,150.3c1,7.8-4.5,14.9-12.2,15.9c-7.8,1-14.9-4.5-15.9-12.2c-1-7.8,4.5-14.9,12.2-15.9l0,0C405.5,137.1,412.6,142.5,413.6,150.3L413.6,150.3z"
          />
          <path
            ref="t-shadow-36"
            styleUid="darkTreeShadow"       style="fill:#50742b;"
            d="M387.6,144.4c-0.3,6.2,2.4,13.2,9.1,15.1s14.5-0.5,16.9-6.5c-0.5,7.8-7.2,13.7-15,13.2c-6.5-0.4-11.9-5.3-13-11.7C384.6,148.1,387.6,144.4,387.6,144.4z"
          />
          <path
            id="Stamm-36"
            ref="t-stem-36"
            data-seq="36"
            styleUid="darkTreeStem"       style="fill:#2e411c;"
            d="M403.3,171.2l-1.3-10.1l4.9-7.7l-2.5,0.3l-3,3.8l-0.9-6.9l-2.1,1.5l1,8.1l-4.6-2.3l-1.4,2.3l4.9,3.4c0,0,0.3,2.9,1,8.1C400.2,177,403.9,175.8,403.3,171.2z"
          />
  </g>
</svg>
