<svg ref="canvas"
  data-name="Layer 2"
  xmlns="http://www.w3.org/2000/svg"
  viewBox="0 0 850 850">
  <g ref="Baum_Klein">
    <path
            ref="t-crown-22"
            styleUid="darkTreeCrown"       style="fill:#66922e;"
            d="M548.4,662.9c-3.5-4.2-3-10.4,1.2-13.9s10.4-3,13.9,1.2s3,10.4-1.2,13.9C558.2,667.6,552,667.1,548.4,662.9C548.4,663,548.4,662.9,548.4,662.9z"
          />
          <path
            ref="t-shadow-22"
            className="t shadow hide"
            d="M565.9,656.5c-2.2-3.8-6.4-6.9-11.1-5.4c-4.7,1.4-8.4,5.8-7.5,10.3c-2.8-4.7-1.2-10.8,3.5-13.5c4.1-2.4,9.3-1.6,12.4,2C566.3,653.2,565.9,656.5,565.9,656.5z"
          />
          <path
            id="Stamm-22"
            ref="t-stem-22"
            data-seq="22"
            className="t stem hide"
            d="M546.5,646.7l4.6,5.5v6.4l1.4-1.1l0.3-3.3l3.2,3.8l0.7-1.7l-3.7-4.4l3.6-0.4l-0.1-1.9l-4.2-0.2c0,0-1.3-1.6-3.7-4.4C546.1,642.2,544.4,644.3,546.5,646.7z"
          />
  </g>
</svg>
