<svg ref="canvas"
  data-name="Layer 2"
  xmlns="http://www.w3.org/2000/svg"
  viewBox="0 0 850 850">
  <g ref="Baum_Klein">
    <path
            ref="t-crown-64"
            className="t crown hide"
            d="M412.2,709.1c-0.3-10.1,7.7-18.6,17.8-18.9s18.6,7.7,18.9,17.8s-7.6,18.6-17.8,18.9C421,727.2,412.6,719.2,412.2,709.1L412.2,709.1z"
          />
          <path
            ref="t-shadow-64"
            className="t shadow hide"
            d="M445,719.8c1.2-8-1.4-17.3-9.9-20.6s-18.8-1.1-22.6,6.3c1.5-9.3,9.8-15.9,19.1-15.4c9.4,0.4,16.7,8.4,17.3,16.9C449.4,715.6,445,719.8,445,719.8z"
          />
          <path
            id="Stamm-64"
            ref="t-stem-64"
            data-seq="64"
            className="t stem hide"
            d="M427.7,672.4c0.1,4.2,0.9,24.3,0.9,24.3l-7.3,9.4l3.3-0.1l4.2-4.5l0.3,9.1l2.9-1.7l-0.3-10.6l5.6,3.5l2.1-2.9l-5.9-5c0,0-0.4-13.5-0.7-20.3C432.4,666.6,427.5,668.3,427.7,672.4z"
          />
  </g>
</svg>
