<svg viewBox="0 0 850 850" xmlns="http://www.w3.org/2000/svg"><path d="m569.3 663.7c-4.8-6-3.8-14.8 2.2-19.6s14.8-3.8 19.6 2.2 3.8 14.7-2.2 19.6c-6.1 4.8-14.8 3.9-19.6-2.2z" fill="#66922e"/><path d="m594 655.4c-2.9-5.4-8.7-9.9-15.4-8-6.6 1.9-11.9 7.9-10.9 14.1-3.6-6.8-1-15.2 5.9-18.8 5.7-3 12.7-1.7 16.9 3.2 4.3 4.9 3.5 9.5 3.5 9.5z" fill="#50742b"/><path d="m561.8 634.1c2.8 3.5 11.8 14.7 11.8 14.7l-.2 9 2-1.6.5-4.7 4.3 5.4 1-2.4-5.1-6.3 5-.4v-2.7l-5.9-.4s-7.5-9.4-10.7-13.4-5.6-.7-2.7 2.8z" fill="#2e411c"/></svg>