<svg ref="canvas"
  data-name="Layer 2"
  xmlns="http://www.w3.org/2000/svg"
  viewBox="0 0 850 850">
  <g ref="Baum_Klein">
    <path
            ref="t-crown-53"
            className="t crown hide"
            d="M516.9,157.7c-2.3,9.9-12.2,16-22.1,13.6c-9.9-2.3-16-12.2-13.6-22.1c2.3-9.9,12.2-16,22.1-13.6l0,0C513.1,138,519.2,147.8,516.9,157.7z"
          />
          <path
            ref="t-shadow-53"
            className="t shadow hide"
            d="M488.1,138.7c-3.3,7.4-3.1,17.1,4.2,22.5s17.8,6,23.5-0.1c-3.9,8.6-13.6,12.8-22.5,9.8c-9-2.8-13.9-12.5-12.2-20.8C482.7,141.7,488.1,138.7,488.1,138.7z"
          />
          <path
            id="Stamm-53"
            ref="t-stem-53"
            data-seq="53"
            className="t stem hide"
            d="M494.9,178.3l3.1-12.8l9.5-7.1l-3.2-0.8l-5.3,3.2l2.1-8.8l-3.2,0.9l-2.4,10.3l-4.5-4.8l-2.7,2.2l4.4,6.4c0,0-0.9,3.6-2.5,10.3S493.5,184.1,494.9,178.3z"
          />
  </g>
</svg>
