<svg viewBox="0 0 850 850" xmlns="http://www.w3.org/2000/svg"><path d="m245.1 650.1c4.6-9 15.7-12.6 24.7-8s12.6 15.7 8 24.7-15.7 12.6-24.7 8c-9.1-4.6-12.6-15.7-8-24.7z" fill="#66922e"/><path d="m268.6 675.4c4.9-6.4 7.1-15.8 1.3-22.8s-15.9-10-22.9-5.5c5.8-7.4 16.3-9.2 24.2-4.2 8.1 4.9 10.6 15.5 6.9 23.2-3.6 7.7-9.5 9.3-9.5 9.3z" fill="#50742b"/><path d="m276.4 625.5c-1.9 3.7-11 21.6-11 21.6l-11 4.6 2.9 1.5 5.9-1.9-4.1 8.1 3.4-.1 4.8-9.4 3.2 5.8 3.2-1.5-2.7-7.2s6.2-12 9.3-18.1c3-6.1-2-7.1-3.9-3.4z" fill="#2e411c"/></svg>