<svg ref="canvas"
  data-name="Layer 2"
  xmlns="http://www.w3.org/2000/svg"
  viewBox="0 0 850 850">
  <g ref="Baum_Klein">
    <path
            ref="t-crown-20"
            className="t crown hide"
            d="M471.2,694.4c-1.1-5.4,2.4-10.6,7.7-11.6c5.4-1.1,10.6,2.4,11.6,7.7c1.1,5.3-2.4,10.5-7.7,11.6C477.5,703.3,472.3,699.8,471.2,694.4C471.2,694.5,471.2,694.4,471.2,694.4z"
          />
          <path
            ref="t-shadow-20"
            className="t shadow hide"
            d="M489.6,697.2c-0.1-4.4-2.4-9.1-7.2-10.1c-4.8-1-10.1,1.1-11.5,5.4c-0.3-5.5,3.9-10.1,9.4-10.4c4.9-0.3,9.2,3.1,10.2,7.9C491.6,694.5,489.6,697.2,489.6,697.2z"
          />
          <path
            id="Stamm-20"
            ref="t-stem-20"
            data-seq="20"
            className="t stem hide"
            d="M477.2,679.3l1.4,7l-3,5.7l1.7-0.4l1.8-2.8l1,4.8l1.4-1.2l-1.1-5.6l3.3,1.4l0.8-1.7l-3.6-2.1c0,0-0.4-2-1.1-5.6C479.1,675.1,476.6,676.2,477.2,679.3z"
          />
  </g>
</svg>
