<svg ref="canvas"
  data-name="Layer 2"
  xmlns="http://www.w3.org/2000/svg"
  viewBox="0 0 850 850">
  <g ref="Baum_Klein">
    <path
            ref="t-crown-13"
            className="t crown hide"
            d="M214.7,601c4.1-3.6,10.4-3.1,13.9,1c3.6,4.1,3.1,10.4-1,13.9c-4.1,3.6-10.3,3.2-13.9-0.9C210.1,610.9,210.5,604.6,214.7,601C214.6,601,214.6,601,214.7,601z"
          />
          <path
            ref="t-shadow-13"
            className="t shadow hide"
            d="M221.4,618.4c3.8-2.2,6.7-6.5,5.2-11.2s-5.9-8.2-10.4-7.3c4.6-2.9,10.7-1.6,13.6,3c2.6,4.1,1.8,9.5-1.8,12.7C224.7,618.7,221.4,618.4,221.4,618.4z"
          />
          <path
            id="Stamm-13"
            ref="t-stem-13"
            data-seq="13"
            className="t stem hide"
            d="M230.8,598.8l-5.4,4.7l-6.4,0.2l1.2,1.3l3.3,0.2l-3.7,3.2l1.7,0.6l4.3-3.8l0.4,3.5l1.9-0.1l0.1-4.2c0,0,1.5-1.3,4.3-3.8C235.4,598.3,233.2,596.7,230.8,598.8z"
          />
  </g>
</svg>
