<svg ref="canvas"
  data-name="Layer 2"
  xmlns="http://www.w3.org/2000/svg"
  viewBox="0 0 850 850">
  <g ref="Baum_Klein">
    <path
            ref="t-crown-14"
            className="t crown hide"
            d="M245.5,632c3.3-4.4,9.5-5.2,13.8-1.9c4.4,3.3,5.2,9.5,1.9,13.8c-3.3,4.3-9.4,5.2-13.8,2C243.1,642.7,242.2,636.5,245.5,632C245.5,632.1,245.5,632.1,245.5,632z"
          />
          <path
            ref="t-shadow-14"
            className="t shadow hide"
            d="M255.7,647.7c3.2-3,5.3-7.8,2.8-12s-7.5-6.8-11.7-5c3.9-3.8,10.2-3.7,14,0.2c3.4,3.5,3.7,8.9,0.8,12.8C259,647.4,255.7,647.7,255.7,647.7z"
          />
          <path
            id="Stamm-14"
            ref="t-stem-14"
            data-seq="14"
            className="t stem hide"
            d="M260.9,626.6l-4.3,5.7l-6.3,1.5l1.4,1.1l3.3-0.5l-3,4l1.8,0.3l3.4-4.6l1.2,3.4l1.8-0.5l-0.8-4.1c0,0,1.2-1.6,3.5-4.6C265.2,625.2,262.8,624,260.9,626.6z"
          />
  </g>
</svg>
