<svg ref="canvas"
  data-name="Layer 2"
  xmlns="http://www.w3.org/2000/svg"
  viewBox="0 0 850 850">
  <g ref="Baum_Klein">
    <path
            ref="t-crown-38"
            styleUid="darkTreeCrown"       style="fill:#66922e;"
            d="M284.4,187.7c4.5,6.2,3.1,14.9-3.1,19.4s-14.9,3.1-19.4-3.1c-4.5-6.2-3.1-14.9,3.1-19.4C271.1,180.1,279.8,181.4,284.4,187.7L284.4,187.7z"
          />
          <path
            ref="t-shadow-38"
            styleUid="darkTreeShadow"       style="fill:#50742b;"
            d="M259.2,194.9c2.6,5.6,8.3,10.2,15,8.7s12.3-7.3,11.5-13.6c3.3,7,0.2,15.2-6.7,18.5c-5.8,2.7-12.8,1.1-16.8-4C258.3,199.4,259.2,194.9,259.2,194.9z"
          />
          <path
            id="Stamm-38"
            ref="t-stem-38"
            data-seq="38"
            styleUid="darkTreeStem"       style="fill:#2e411c;"
            d="M285.4,210.5l-5.9-8.1l0.6-9l-2,1.5l-0.7,4.6l-4.1-5.6l-1.1,2.3l4.7,6.5l-5,0.2l-0.1,2.7l5.8,0.6c0,0,1.6,2.3,4.7,6.5S288,214.2,285.4,210.5z"
          />
  </g>
</svg>
