<svg ref="canvas"
  data-name="Layer 2"
  xmlns="http://www.w3.org/2000/svg"
  viewBox="0 0 850 850">
  <g ref="Baum_Klein">
    <path
            ref="t-crown-40"
            styleUid="darkTreeCrown"       style="fill:#66922e;"
            d="M146.2,438.1c7.7-0.2,14.1,5.9,14.2,13.6c0.2,7.7-5.9,14.1-13.6,14.2c-7.7,0.2-14-5.9-14.2-13.6C132.4,444.7,138.5,438.3,146.2,438.1L146.2,438.1z"
          />
          <path
            ref="t-shadow-40"
            styleUid="darkTreeShadow"       style="fill:#50742b;"
            d="M137.8,462.9c6.1,1,13.1-1,15.7-7.4c2.5-6.4,1-14.2-4.6-17.2c7.6,1.3,12.7,8.5,11.4,16.1c-1.1,6.4-6.4,11.1-12.8,11.5C141,466.3,137.8,462.9,137.8,462.9z"
          />
          <path
            id="Stamm-40"
            ref="t-stem-40"
            data-seq="40"
            styleUid="darkTreeStem"       style="fill:#2e411c;"
            d="M174.4,450.2l-18.8,0.4l-7.1-5.7l0.1,2.5l3.4,3.2l-6.9,0.2l1.3,2.2l8-0.2l-2.7,4.2l2.2,1.6l3.9-4.4c0,0,12-0.2,17.2-0.4C180,453.6,178.9,450.1,174.4,450.2z"
          />
  </g>
</svg>
