<svg ref="canvas"
  data-name="Layer 2"
  xmlns="http://www.w3.org/2000/svg"
  viewBox="0 0 850 850">
  <g ref="Baum_Klein">
    <path
            ref="t-crown-52"
            className="t crown hide"
            d="M571.9,182.7c-4.4,9.1-15.3,13-24.5,8.6c-9.1-4.4-13-15.3-8.6-24.5c4.4-9.1,15.3-13,24.5-8.7C572.4,162.6,576.2,173.5,571.9,182.7L571.9,182.7z"
          />
          <path
            ref="t-shadow-52"
            className="t shadow hide"
            d="M547.7,158c-4.8,6.5-6.7,16-0.7,22.8s16.2,9.6,23,4.9c-5.6,7.5-16,9.6-24.1,4.8c-8.2-4.7-11-15.2-7.5-23C541.9,159.8,547.7,158,547.7,158z"
          />
          <path
            id="Stamm-52"
            ref="t-stem-52"
            data-seq="52"
            className="t stem hide"
            d="M546,198.2l5.7-11.9l10.8-4.9l-3-1.4l-5.8,2.1l4-8.2l-3.4,0.2l-4.6,9.5l-3.3-5.7l-3.1,1.6l2.9,7.2c0,0-1.7,3.4-4.6,9.5C538.6,202.2,543.4,203.5,546,198.2z"
          />
  </g>
</svg>
