<svg ref="canvas"
  data-name="Layer 2"
  xmlns="http://www.w3.org/2000/svg"
  viewBox="0 0 850 850">
  <g ref="Baum_Klein">
    <path
            ref="t-crown-57"
            styleUid="darkTreeCrown"       style="fill:#66922e;"
            d="M180.9,274.2c9.2,4.3,13.1,15.2,8.8,24.4c-4.3,9.2-15.2,13.1-24.4,8.8c-9.2-4.3-13.1-15.2-8.8-24.4l0,0C160.8,273.8,171.7,269.9,180.9,274.2z"
          />
          <path
            ref="t-shadow-57"
            className="t shadow hide"
            d="M156.4,298.5c6.6,4.7,16.1,6.6,22.8,0.6c6.8-6,9.5-16.2,4.7-23c7.6,5.6,9.7,15.9,4.9,24c-4.6,8.3-15.1,11.1-22.9,7.7C158.1,304.3,156.4,298.5,156.4,298.5z"
          />
          <path
            id="Stamm-57"
            ref="t-stem-57"
            data-seq="57"
            className="t stem hide"
            d="M206.5,304.6c-3.8-1.8-22-10.3-22-10.3l-5-10.8l-1.4,3l2.1,5.8l-8.2-3.9l0.2,3.4l9.6,4.5l-5.7,3.4l1.6,3.1l7.2-3c0,0,12.2,5.8,18.4,8.7C209.5,311.4,210.3,306.4,206.5,304.6z"
          />
  </g>
</svg>
