<svg viewBox="0 0 850 850" xmlns="http://www.w3.org/2000/svg"><path d="m146.2 438.1c7.7-.2 14.1 5.9 14.2 13.6.2 7.7-5.9 14.1-13.6 14.2-7.7.2-14-5.9-14.2-13.6-.2-7.6 5.9-14 13.6-14.2z" fill="#66922e"/><path d="m137.8 462.9c6.1 1 13.1-1 15.7-7.4 2.5-6.4 1-14.2-4.6-17.2 7.6 1.3 12.7 8.5 11.4 16.1-1.1 6.4-6.4 11.1-12.8 11.5-6.5.4-9.7-3-9.7-3z" fill="#50742b"/><path d="m174.4 450.2-18.8.4-7.1-5.7.1 2.5 3.4 3.2-6.9.2 1.3 2.2 8-.2-2.7 4.2 2.2 1.6 3.9-4.4s12-.2 17.2-.4c5-.2 3.9-3.7-.6-3.6z" fill="#2e411c"/></svg>