<svg ref="canvas"
  data-name="Layer 2"
  xmlns="http://www.w3.org/2000/svg"
  viewBox="0 0 850 850">
  <g ref="Baum_Klein">
    <path
            ref="t-crown-17"
            styleUid="darkTreeCrown"       style="fill:#66922e;"
            d="M365.4,690.4c1-5.4,6.1-8.9,11.5-8c5.4,1,8.9,6.1,8,11.5c-1,5.4-6.1,8.9-11.5,8C368.1,700.9,364.5,695.8,365.4,690.4L365.4,690.4z"
          />
          <path
            ref="t-shadow-17"
            styleUid="darkTreeShadow"       style="fill:#50742b;"
            d="M381.6,699.8c1.6-4.1,1.2-9.3-2.9-12s-9.8-2.7-12.7,0.8c1.8-5.2,7.4-7.9,12.6-6.1c4.6,1.6,7.3,6.3,6.5,11.1C384.3,698,381.6,699.8,381.6,699.8z"
          />
          <path
            id="Stamm-17"
            ref="t-stem-17"
            data-seq="17"
            styleUid="darkTreeStem"       style="fill:#2e411c;"
            d="M376.7,678.6l-1.3,7l-4.9,4.1l1.7,0.3l2.7-1.9l-0.8,4.8l1.7-0.6l1-5.6l2.6,2.5l1.4-1.3l-2.5-3.3c0,0,0.4-2,1-5.6C379.9,675.3,377.3,675.4,376.7,678.6z"
          />
  </g>
</svg>
