<svg viewBox="0 0 850 850" xmlns="http://www.w3.org/2000/svg"><path d="m412.2 709.1c-.3-10.1 7.7-18.6 17.8-18.9s18.6 7.7 18.9 17.8-7.6 18.6-17.8 18.9c-10.1.3-18.5-7.7-18.9-17.8z" fill="#66922e"/><path d="m445 719.8c1.2-8-1.4-17.3-9.9-20.6s-18.8-1.1-22.6 6.3c1.5-9.3 9.8-15.9 19.1-15.4 9.4.4 16.7 8.4 17.3 16.9.5 8.6-3.9 12.8-3.9 12.8z" fill="#50742b"/><path d="m427.7 672.4c.1 4.2.9 24.3.9 24.3l-7.3 9.4 3.3-.1 4.2-4.5.3 9.1 2.9-1.7-.3-10.6 5.6 3.5 2.1-2.9-5.9-5s-.4-13.5-.7-20.3c-.4-7-5.3-5.3-5.1-1.2z" fill="#2e411c"/></svg>