<svg viewBox="0 0 850 850" xmlns="http://www.w3.org/2000/svg"><path d="m650.9 265.4c-5.7 5.2-14.5 4.8-19.7-.9s-4.8-14.5.9-19.7 14.5-4.8 19.7.9 4.8 14.5-.9 19.7z" fill="#66922e"/><path d="m640.9 241.2c-5.2 3.3-9.3 9.4-7 15.8s8.6 11.4 14.8 9.9c-6.5 4-15.1 2-19.1-4.6-3.4-5.5-2.5-12.6 2.1-17.2 4.6-4.3 9.2-3.9 9.2-3.9z" fill="#50742b"/><path d="m621.8 274.8c3.3-3 13.9-12.7 13.9-12.7l9-.4-1.7-1.8-4.7-.2 5.1-4.6-2.4-.8-5.9 5.4-.7-4.9-2.7.2v5.9s-8.9 8.1-12.7 11.6c-3.8 3.4-.5 5.4 2.8 2.3z" fill="#2e411c"/></svg>