<svg viewBox="0 0 850 850" xmlns="http://www.w3.org/2000/svg"><path d="m241.8 206.4c7.5 6.8 8 18.5 1.1 25.9-6.8 7.5-18.5 8-25.9 1.1-7.5-6.8-8-18.5-1.1-25.9 6.9-7.4 18.5-7.9 25.9-1.1z" fill="#66922e"/><path d="m211.3 222.3c4.9 6.5 13.4 11.1 21.6 7.3 8.3-3.7 13.9-12.6 11.3-20.6 5.6 7.6 4.6 18.1-2.4 24.4-6.9 6.5-17.7 6.1-24.2.5s-6.3-11.6-6.3-11.6z" fill="#50742b"/><path d="m249.1 235.7-9.8-9-1.6-11.8-2.2 2.4.3 6.2-6.7-6.1-.8 3.3 7.8 7.1-6.4 1.5.6 3.5 7.7-.7s2.7 2.6 7.8 7.2 7.7.4 3.3-3.6z" fill="#2e411c"/></svg>