<svg ref="canvas"
  data-name="Layer 2"
  xmlns="http://www.w3.org/2000/svg"
  viewBox="0 0 850 850">
  <g ref="Baum_Klein">
    <path
      ref="t-crown-02"
      className="t crown hide"
      d="M485.7,159.8c-0.7,5-5.3,8.5-10.3,7.9c-5-0.7-8.5-5.3-7.9-10.3c0.7-5,5.3-8.5,10.3-7.9l0,0C482.8,150.2,486.3,154.8,485.7,159.8z"
    />
    <path
      ref="t-shadow-02"
      className="t shadow hide"
      d="M470.4,151.9c-1.3,3.8-0.7,8.6,3.2,10.9c3.9,2.3,9.1,2.1,11.7-1.2c-1.6,4.8-6.8,7.4-11.6,5.8c-4-1.4-6.6-5.3-6.2-9.5C467.6,155.5,468.7,153.4,470.4,151.9z"
    />
    <path
      id="Stamm-02"
      ref="t-stem-02"
      data-seq="02"
      className="t stem hide"
      d="M475.8,171.1l0.9-6.6l4.4-4l-1.6-0.2l-2.5,1.9l0.6-4.5l-1.6,0.6l-0.7,5.2l-2.5-2.2l-1.2,1.2l2.5,3c0,0-0.3,1.8-0.7,5.2C472.9,174.2,475.4,174.1,475.8,171.1z"
    />
  </g>
</svg>
