<svg viewBox="0 0 850 850" xmlns="http://www.w3.org/2000/svg"><path d="m447.5 142.3c0 10.1-8.2 18.4-18.3 18.4s-18.4-8.2-18.4-18.3 8.2-18.4 18.3-18.4c10.2 0 18.4 8.2 18.4 18.3z" fill="#66922e"/><path d="m415.1 130.5c-1.5 8 .9 17.3 9.2 20.9 8.3 3.5 18.7 1.7 22.8-5.6-1.8 9.2-10.3 15.6-19.6 14.7-9.4-.7-16.4-8.9-16.7-17.5-.2-8.4 4.3-12.5 4.3-12.5z" fill="#50742b"/><path d="m430.8 167.5v-13.3l7.6-9.1h-3.3l-4.3 4.4v-9.1l-3 1.6v10.6l-5.5-3.7-2.1 2.8 5.7 5.2s-.1 3.7 0 10.6 4.9 5.9 4.9 0z" fill="#2e411c"/></svg>