<svg viewBox="0 0 850 850" xmlns="http://www.w3.org/2000/svg"><path d="m633 254c-3.9 3.8-10.1 3.8-14-.1s-3.8-10.1.1-14c3.9-3.8 10.1-3.8 13.9 0 3.9 3.9 3.9 10.2 0 14.1.1 0 .1 0 0 0z" fill="#66922e"/><path d="m625.1 237.1c-3.6 2.5-6.3 7-4.4 11.5 1.8 4.5 6.5 7.8 10.9 6.6-4.5 3.1-10.6 2.1-13.8-2.4-2.7-3.9-2.3-9.1.9-12.5 3.1-3.3 6.4-3.2 6.4-3.2z" fill="#50742b"/><path d="m617.1 257.3 5.1-5.1 6.4-.6-1.3-1.2h-3.4l3.5-3.5-1.7-.5-4 4.1-.7-3.5-1.9.2.2 4.2s-1.5 1.4-4.1 4.1c-2.6 2.5-.4 4.1 1.9 1.8z" fill="#2e411c"/></svg>