<svg ref="canvas"
  data-name="Layer 2"
  xmlns="http://www.w3.org/2000/svg"
  viewBox="0 0 850 850">
  <g ref="Baum_Klein">
    <path
            ref="t-crown-45"
            styleUid="darkTreeCrown"       style="fill:#66922e;"
            d="M439.9,701.2c-0.7-7.7,4.9-14.4,12.5-15.2c7.7-0.7,14.4,4.9,15.2,12.5c0.7,7.7-4.9,14.4-12.5,15.2l0,0C447.4,714.4,440.6,708.8,439.9,701.2z"
          />
          <path
            ref="t-shadow-45"
            styleUid="darkTreeShadow"       style="fill:#50742b;"
            d="M465.2,707.8c0.6-6.1-1.9-13-8.4-15.1c-6.6-2.1-14.3,0-16.9,5.8c0.7-7.7,7.4-13.3,15.1-12.6c6.5,0.6,11.8,5.7,12.6,12.2C468.3,704.4,465.2,707.8,465.2,707.8z"
          />
          <path
            id="Stamm-45"
            ref="t-stem-45"
            data-seq="45"
            styleUid="darkTreeStem"       style="fill:#2e411c;"
            d="M450,672.3c0.4,4.5,1.7,18.8,1.7,18.8l-5.1,7.4l2.5-0.2l3-3.6l0.6,6.9l2.1-1.4l-0.7-8l4.4,2.4l1.4-2.3l-4.7-3.5c0,0-1.1-11.9-1.6-17.1C453.1,666.4,449.5,667.8,450,672.3z"
          />
  </g>
</svg>
