<svg ref="canvas"
  data-name="Layer 2"
  xmlns="http://www.w3.org/2000/svg"
  viewBox="0 0 850 850">
  <g ref="Baum_Klein">
    <path
            ref="t-crown-30"
            styleUid="darkTreeCrown"       style="fill:#66922e;"
            d="M674.7,319.6c-4.8,2.6-10.8,0.8-13.4-4.1c-2.6-4.8-0.8-10.8,4.1-13.4c4.8-2.6,10.7-0.8,13.3,4C681.4,310.9,679.6,316.9,674.7,319.6C674.8,319.6,674.8,319.6,674.7,319.6z"
          />
          <path
            ref="t-shadow-30"
            className="t shadow hide"
            d="M672,301.1c-4.2,1.3-8,4.9-7.6,9.7c0.5,4.9,4,9.3,8.5,9.4c-5.1,1.8-10.8-0.9-12.6-6c-1.6-4.6,0.3-9.6,4.6-11.9C669,300,672,301.1,672,301.1z"
          />
          <path
            id="Stamm-30"
            ref="t-stem-30"
            data-seq="30"
            className="t stem hide"
            d="M658.5,318.1l6.3-3.4l6.3,1.3l-0.8-1.5l-3.2-1l4.3-2.3l-1.5-1l-5,2.7l0.4-3.6l-1.9-0.3l-1,4.1c0,0-1.8,0.9-5.1,2.7S655.7,319.6,658.5,318.1z"
          />
  </g>
</svg>
