<svg ref="canvas"
  data-name="Layer 2"
  xmlns="http://www.w3.org/2000/svg"
  viewBox="0 0 850 850">
  <g ref="Baum_Klein">
    <path
            ref="t-crown-09"
            styleUid="darkTreeCrown"       style="fill:#66922e;"
            d="M179.1,306.1c5,2.2,7.2,8.1,5,13.1s-8.1,7.2-13.1,5s-7.2-8-5-13S174,303.9,179.1,306.1C179,306.1,179.1,306.1,179.1,306.1z"
          />
          <path
            ref="t-shadow-09"
            className="t shadow hide"
            d="M166.1,319.6c3.6,2.5,8.8,3.4,12.3,0c3.6-3.4,4.9-8.9,2.3-12.5c4.6,3,5.9,9.1,2.9,13.7c-2.6,4.1-7.8,5.6-12.2,3.7C167.2,322.7,166.1,319.6,166.1,319.6z"
          />
          <path
            id="Stamm-09"
            ref="t-stem-09"
            data-seq="09"
            className="t stem hide"
            d="M187.9,319.9l-6.6-2.9l-2.8-5.8l-0.7,1.6l1.2,3.1l-4.5-2l0.1,1.8l5.2,2.3l-3.1,1.9l0.9,1.7l3.8-1.7c0,0,1.8,0.8,5.2,2.3S190.8,321.2,187.9,319.9z"
          />
  </g>
</svg>
