<svg ref="canvas"
  data-name="Layer 2"
  xmlns="http://www.w3.org/2000/svg"
  viewBox="0 0 850 850">
  <g ref="Baum_Klein">
    <path
            ref="t-crown-19"
            styleUid="darkTreeCrown"       style="fill:#66922e;"
            d="M379.7,694.9c0.7-5.4,5.7-9.2,11.1-8.5s9.2,5.7,8.5,11.1c-0.7,5.4-5.7,9.2-11,8.5C382.9,705.3,379,700.4,379.7,694.9L379.7,694.9z"
          />
          <path
            ref="t-shadow-19"
            className="t shadow hide"
            d="M396.3,703.5c1.4-4.2,0.8-9.4-3.5-11.9c-4.2-2.5-9.9-2.2-12.6,1.4c1.6-5.2,7.1-8.2,12.3-6.7c4.6,1.4,7.6,5.9,7,10.7C399,701.6,396.3,703.5,396.3,703.5z"
          />
          <path
            id="Stamm-19"
            ref="t-stem-19"
            data-seq="19"
            className="t stem hide"
            d="M390.5,682.6l-1,7.1l-4.7,4.3l1.8,0.2l2.7-2l-0.6,4.9l1.7-0.7l0.8-5.7l2.7,2.4l1.3-1.3l-2.7-3.2c0,0,0.3-2,0.8-5.7S390.9,679.4,390.5,682.6z"
          />
  </g>
</svg>
