<svg ref="canvas"
  data-name="Layer 2"
  xmlns="http://www.w3.org/2000/svg"
  viewBox="0 0 850 850">
  <g ref="Baum_Klein">
    <path
            ref="t-crown-49"
            className="t crown hide"
            d="M698.3,391.4c-7.4,2-15-2.4-17-9.9c-2-7.4,2.4-15,9.9-17s15,2.4,17,9.9l0,0C710.1,381.8,705.7,389.4,698.3,391.4z"
          />
          <path
            ref="t-shadow-49"
            className="t shadow hide"
            d="M700.7,365.3c-6.1,0.4-12.6,4-13.5,10.8c-1,6.8,2.4,14.1,8.5,15.7c-7.7,0.5-14.3-5.3-14.8-13c-0.4-6.4,3.6-12.3,9.8-14.2C696.8,362.8,700.7,365.3,700.7,365.3z"
          />
          <path
            id="Stamm-49"
            ref="t-stem-49"
            data-seq="49"
            className="t stem hide"
            d="M668.1,386.2l18.2-4.8l8.2,3.8l-0.6-2.4l-4.1-2.4l6.7-1.7l-1.7-1.8l-7.7,2l1.7-4.7l-2.5-1l-2.7,5.2c0,0-11.6,3-16.6,4.4S663.8,387.3,668.1,386.2z"
          />
  </g>
</svg>
