<svg ref="canvas"
  data-name="Layer 2"
  xmlns="http://www.w3.org/2000/svg"
  viewBox="0 0 850 850">
  <g ref="Baum_Klein">
    <path
            ref="t-crown-41"
            styleUid="darkTreeCrown"       style="fill:#66922e;"
            d="M158.3,509.1c7.3-2.4,15.2,1.5,17.6,8.8c2.4,7.3-1.5,15.2-8.8,17.6c-7.3,2.4-15.2-1.5-17.6-8.8C147,519.4,151,511.6,158.3,509.1L158.3,509.1z"
          />
          <path
            ref="t-shadow-41"
            className="t shadow hide"
            d="M157.5,535.3c6.1-0.8,12.3-4.8,12.8-11.6c0.6-6.9-3.2-13.9-9.5-15.1c7.6-1,14.6,4.4,15.6,12c0.8,6.4-2.8,12.5-8.8,14.8C161.5,537.6,157.5,535.3,157.5,535.3z"
          />
          <path
            id="Stamm-41"
            ref="t-stem-41"
            data-seq="41"
            className="t stem hide"
            d="M188.6,512.4l-17.9,5.9l-8.4-3.3l0.8,2.4l4.2,2.1l-6.5,2.2l1.9,1.7l7.6-2.5l-1.4,4.8l2.5,0.9l2.4-5.4c0,0,11.4-3.7,16.3-5.4C195.1,514.2,193,511,188.6,512.4z"
          />
  </g>
</svg>
