<svg ref="canvas"
  data-name="Layer 2"
  xmlns="http://www.w3.org/2000/svg"
  viewBox="0 0 850 850">
  <g ref="Baum_Klein">
    <path
            ref="t-crown-42"
            styleUid="darkTreeCrown"       style="fill:#66922e;"
            d="M192.6,578.2c5.9-5,14.6-4.2,19.6,1.6c5,5.9,4.2,14.6-1.6,19.6c-5.9,5-14.6,4.2-19.6-1.6S186.7,583.2,192.6,578.2L192.6,578.2z"
          />
          <path
            ref="t-shadow-42"
            className="t shadow hide"
            d="M201.6,602.8c5.3-3.1,9.6-9,7.6-15.6s-8.2-11.7-14.4-10.5c6.7-3.8,15.2-1.4,18.9,5.3c3.2,5.6,2,12.7-2.7,17C206.3,603.4,201.6,602.8,201.6,602.8z"
          />
          <path
            id="Stamm-42"
            ref="t-stem-42"
            data-seq="42"
            className="t stem hide"
            d="M222,569.9L207.6,582l-9,0.1l1.6,1.9l4.7,0.4l-5.3,4.5l2.4,0.9l6.1-5.2l0.5,4.9l2.7-0.1l0.2-5.9c0,0,9.2-7.7,13.1-11.1S225.5,567,222,569.9z"
          />
  </g>
</svg>
