<svg ref="canvas"
  data-name="Layer 2"
  xmlns="http://www.w3.org/2000/svg"
  viewBox="0 0 850 850">
  <g ref="Baum_Klein">
    <path
            ref="t-crown-23"
            styleUid="darkTreeCrown"       style="fill:#66922e;"
            d="M582.4,647.5c-3.8-3.9-3.8-10.1,0.1-14c3.9-3.8,10.1-3.8,14,0.1c3.8,3.9,3.8,10.1,0,13.9C592.6,651.4,586.3,651.4,582.4,647.5L582.4,647.5z"
          />
          <path
            ref="t-shadow-23"
            styleUid="darkTreeShadow"       style="fill:#50742b;"
            d="M599.2,639.6c-2.5-3.6-7-6.3-11.5-4.4c-4.5,1.8-7.8,6.5-6.6,10.9c-3.2-4.5-2.1-10.6,2.3-13.8c3.9-2.7,9.1-2.3,12.6,0.9C599.4,636.3,599.2,639.6,599.2,639.6z"
          />
          <path
            id="Stamm-23"
            ref="t-stem-23"
            data-seq="23"
            styleUid="darkTreeStem"       style="fill:#2e411c;"
            d="M579.1,631.5l5.1,5.1l0.6,6.4l1.2-1.3v-3.4l3.5,3.5l0.5-1.7l-4.1-4l3.5-0.7l-0.2-1.9l-4.2,0.2c0,0-1.4-1.5-4.1-4.1C578.3,627,576.8,629.2,579.1,631.5z"
          />
  </g>
</svg>
