<svg ref="canvas"
  data-name="Layer 2"
  xmlns="http://www.w3.org/2000/svg"
  viewBox="0 0 850 850">
  <g ref="Baum_Klein">
    <path
            ref="t-crown-24"
            styleUid="darkTreeCrown"       style="fill:#66922e;"
            d="M636.1,599.8c-4.7-2.8-6.1-8.9-3.3-13.6c2.8-4.7,8.9-6.1,13.6-3.3c4.6,2.8,6.1,8.9,3.4,13.5C646.9,601.1,640.8,602.7,636.1,599.8L636.1,599.8z"
          />
          <path
            ref="t-shadow-24"
            className="t shadow hide"
            d="M650.6,588.1c-3.3-2.9-8.3-4.4-12.2-1.6s-6,8.2-3.8,12.1c-4.2-3.5-4.7-9.7-1.2-13.9c3.1-3.7,8.4-4.6,12.6-2.1C649.9,584.9,650.6,588.1,650.6,588.1z"
          />
          <path
            id="Stamm-24"
            ref="t-stem-24"
            data-seq="24"
            className="t stem hide"
            d="M629.1,585.1l6.1,3.7l2.1,6.1l0.9-1.5l-0.8-3.3l4.2,2.5l0.1-1.8l-4.9-3l3.2-1.5l-0.7-1.8l-3.9,1.2c0,0-1.7-1.1-4.9-3S626.3,583.4,629.1,585.1z"
          />
  </g>
</svg>
