<svg ref="canvas"
  data-name="Layer 2"
  xmlns="http://www.w3.org/2000/svg"
  viewBox="0 0 850 850">
  <g ref="Baum_Klein">
    <path
      ref="t-crown-54"
      styleUid="darkTreeCrown"      style="fill:#66922e;"
      d="M447.5,142.3c0,10.1-8.2,18.4-18.3,18.4c-10.1,0-18.4-8.2-18.4-18.3S419,124,429.1,124l0,0C439.3,124,447.5,132.2,447.5,142.3z"
    />
    <path
      ref="t-shadow-54"
      styleUid="darkTreeShadow"       style="fill:#50742b;"
      d="M415.1,130.5c-1.5,8,0.9,17.3,9.2,20.9c8.3,3.5,18.7,1.7,22.8-5.6c-1.8,9.2-10.3,15.6-19.6,14.7c-9.4-0.7-16.4-8.9-16.7-17.5C410.6,134.6,415.1,130.5,415.1,130.5z"
    />
    <path
      id="Stamm-54"
      ref="t-stem-54"
      data-seq="54"
      styleUid="darkTreeStem"       style="fill:#2e411c;"
      d="M430.8,167.5v-13.3l7.6-9.1h-3.3l-4.3,4.4v-9.1l-3,1.6v10.6l-5.5-3.7l-2.1,2.8l5.7,5.2c0,0-0.1,3.7,0,10.6S430.8,173.4,430.8,167.5z"
    />
  </g>
</svg>
