<svg ref="canvas"
  data-name="Layer 2"
  xmlns="http://www.w3.org/2000/svg"
  viewBox="0 0 850 850">
  <g ref="Baum_Klein">
    <path
            ref="t-crown-32"
            styleUid="darkTreeCrown"       style="fill:#66922e;"
            d="M633,254c-3.9,3.8-10.1,3.8-14-0.1s-3.8-10.1,0.1-14c3.9-3.8,10.1-3.8,13.9,0C636.9,243.8,636.9,250.1,633,254C633.1,254,633.1,254,633,254z"
          />
          <path
            ref="t-shadow-32"
            styleUid="darkTreeShadow"       style="fill:#50742b;"
            d="M625.1,237.1c-3.6,2.5-6.3,7-4.4,11.5c1.8,4.5,6.5,7.8,10.9,6.6c-4.5,3.1-10.6,2.1-13.8-2.4c-2.7-3.9-2.3-9.1,0.9-12.5C621.8,237,625.1,237.1,625.1,237.1z"
          />
          <path
            id="Stamm-32"
            ref="t-stem-32"
            data-seq="32"
            styleUid="darkTreeStem"       style="fill:#2e411c;"
            d="M617.1,257.3l5.1-5.1l6.4-0.6l-1.3-1.2h-3.4l3.5-3.5l-1.7-0.5l-4,4.1L621,247l-1.9,0.2l0.2,4.2c0,0-1.5,1.4-4.1,4.1C612.6,258,614.8,259.6,617.1,257.3z"
          />
  </g>
</svg>
