<svg ref="canvas"
  data-name="Layer 2"
  xmlns="http://www.w3.org/2000/svg"
  viewBox="0 0 850 850">
  <g ref="Baum_Klein">
    <path
            ref="t-crown-60"
            styleUid="darkTreeCrown"       style="fill:#66922e;"
            d="M143.2,469.7c10-1.7,19.5,4.9,21.2,14.9s-4.9,19.5-14.9,21.2s-19.5-4.9-21.2-14.9l0,0C126.5,481,133.2,471.5,143.2,469.7z"
          />
          <path
            ref="t-shadow-60"
            className="t shadow hide"
            d="M137.2,503.7c8.1,0.1,16.9-3.8,19-12.7c2.1-8.8-1.5-18.8-9.4-21.5c9.4,0.2,17.1,7.4,17.9,16.8c1,9.4-6,17.7-14.3,19.5C142,507.4,137.2,503.7,137.2,503.7z"
          />
          <path
            id="Stamm-60"
            ref="t-stem-60"
            data-seq="60"
            className="t stem hide"
            d="M181.7,479.8c-4.1,0.7-23.9,4.3-23.9,4.3l-10.3-5.9l0.6,3.2l5.1,3.6l-9,1.6l2.1,2.6l10.4-1.8l-2.7,6l3.1,1.6l4.2-6.5c0,0,13.3-2.3,20.1-3.5C188,483.7,185.8,479.1,181.7,479.8z"
          />
  </g>
</svg>
