<svg ref="canvas"
  data-name="Layer 2"
  xmlns="http://www.w3.org/2000/svg"
  viewBox="0 0 850 850">
  <g ref="Baum_Klein">
    <path
            ref="t-crown-34"
            styleUid="darkTreeCrown"       style="fill:#66922e;"
            d="M580.9,204.9c-2.9,4.6-9,6.1-13.6,3.2c-4.6-2.9-6.1-9-3.2-13.6c2.9-4.6,8.9-6,13.5-3.2C582.3,194.1,583.7,200.2,580.9,204.9C580.9,204.8,580.9,204.9,580.9,204.9z"
          />
          <path
            ref="t-shadow-34"
            className="t shadow hide"
            d="M569.3,190.2c-3,3.3-4.5,8.2-1.7,12.2s8.1,6.1,12.1,4c-3.5,4.2-9.8,4.7-13.9,1.1c-3.7-3.2-4.6-8.5-2-12.7C566.1,190.9,569.3,190.2,569.3,190.2z"
          />
          <path
            id="Stamm-34"
            ref="t-stem-34"
            data-seq="34"
            className="t stem hide"
            d="M566.1,211.7l3.8-6.1l6.1-2l-1.5-0.9l-3.3,0.8l2.6-4.2l-1.8-0.1l-3,4.9l-1.5-3.2l-1.8,0.7l1.1,4c0,0-1.1,1.7-3,4.9C561.9,213.5,564.4,214.5,566.1,211.7z"
          />
  </g>
</svg>
