<svg ref="canvas"
  data-name="Layer 2"
  xmlns="http://www.w3.org/2000/svg"
  viewBox="0 0 850 850">
  <g ref="Baum_Klein">
    <path
            ref="t-crown-26"
            styleUid="darkTreeCrown"       style="fill:#66922e;"
            d="M670.4,545.7c-5.1-2.1-7.5-7.8-5.4-12.9c2.1-5.1,7.8-7.5,12.9-5.4c5,2.1,7.4,7.8,5.4,12.8C681.3,545.3,675.5,547.8,670.4,545.7L670.4,545.7z"
          />
          <path
            ref="t-shadow-26"
            className="t shadow hide"
            d="M682.9,531.9c-3.7-2.4-8.9-3.1-12.3,0.4c-3.4,3.5-4.7,9-1.9,12.6c-4.7-2.8-6.2-8.9-3.4-13.6c2.5-4.2,7.6-5.9,12.1-4.1C681.7,528.8,682.9,531.9,682.9,531.9z"
          />
          <path
            id="Stamm-26"
            ref="t-stem-26"
            data-seq="26"
            className="t stem hide"
            d="M661.2,532.3l6.6,2.7l3,5.7l0.7-1.6l-1.3-3.1l4.5,1.8l-0.2-1.8l-5.3-2.1l3-2l-1-1.6l-3.8,1.8c0,0-1.9-0.8-5.3-2.2S658.2,531.1,661.2,532.3z"
          />
  </g>
</svg>
