<svg ref="canvas"
  data-name="Layer 2"
  xmlns="http://www.w3.org/2000/svg"
  viewBox="0 0 850 850">
  <g ref="Baum_Klein">
    <path
            ref="t-crown-61"
            className="t crown hide"
            d="M171.8,558.3c8.5-5.5,19.9-3,25.4,5.5s3,19.9-5.5,25.4s-19.9,3-25.4-5.5l0,0C160.8,575.2,163.3,563.8,171.8,558.3z"
          />
          <path
            ref="t-shadow-61"
            className="t shadow hide"
            d="M179.5,592c7.5-3.1,14.1-10.1,12.6-19.1c-1.5-8.9-8.7-16.7-17-16.2c8.7-3.5,18.7,0.2,23,8.5c4.5,8.3,1.4,18.7-5.6,23.5C185.4,593.6,179.5,592,179.5,592z"
          />
          <path
            id="Stamm-61"
            ref="t-stem-61"
            data-seq="61"
            className="t stem hide"
            d="M211.2,552.7c-3.5,2.3-20.4,13.2-20.4,13.2l-11.8-1.5l1.8,2.8l6,1.3l-7.6,4.9l3,1.6l8.9-5.7L191,576l3.5,0.3l1.3-7.6c0,0,11.3-7.4,17.1-11.1C218.6,553.8,214.8,550.5,211.2,552.7z"
          />
  </g>
</svg>
