<svg viewBox="0 0 850 850" xmlns="http://www.w3.org/2000/svg"><path d="m607.7 645.1c-7.4-6.9-7.8-18.5-.9-25.9s18.5-7.8 25.9-.9 7.8 18.5.9 25.9c-6.8 7.5-18.5 7.9-25.9.9z" fill="#66922e"/><path d="m638.5 629.5c-4.8-6.5-13.3-11.2-21.6-7.5s-14 12.5-11.5 20.5c-5.5-7.6-4.4-18.2 2.6-24.4 6.9-6.4 17.8-5.9 24.2-.3 6.3 5.6 6.3 11.7 6.3 11.7z" fill="#50742b"/><path d="m592.6 608.3c3.1 2.9 17.8 16.5 17.8 16.5l1.5 11.8 2.2-2.4-.2-6.2 6.6 6.2.8-3.3-7.7-7.2 6.5-1.5-.6-3.5-7.7.6s-9.9-9.2-14.9-13.9c-5-4.5-7.3.1-4.3 2.9z" fill="#2e411c"/></svg>