<svg ref="canvas"
  data-name="Layer 2"
  xmlns="http://www.w3.org/2000/svg"
  viewBox="0 0 850 850">
  <g ref="Baum_Klein">
    <path
            ref="t-crown-65"
            className="t crown hide"
            d="M527,693.1c-4.7-9-1.3-20.1,7.6-24.8c9-4.7,20.1-1.3,24.8,7.6s1.3,20.1-7.6,24.8l0,0C542.8,705.5,531.7,702,527,693.1z"
          />
          <path
            ref="t-shadow-65"
            className="t shadow hide"
            d="M561.1,688.4c-2.4-7.7-8.9-14.9-17.9-14.2c-9,0.8-17.4,7.2-17.6,15.6c-2.7-9,1.8-18.6,10.5-22.2c8.6-3.8,18.7,0.2,22.9,7.6S561.1,688.4,561.1,688.4z"
          />
          <path
            id="Stamm-65"
            ref="t-stem-65"
            data-seq="65"
            className="t stem hide"
            d="M524.7,653.4c2,3.7,11.4,21.4,11.4,21.4l-2.5,11.6l2.9-1.5l1.8-5.9l4.2,8l1.8-2.8l-4.9-9.3l6.6,0.7l0.6-3.5l-7.5-2c0,0-6.3-11.9-9.5-18C526.4,646.1,522.8,649.7,524.7,653.4z"
          />
  </g>
</svg>
