<svg ref="canvas"
  data-name="Layer 2"
  xmlns="http://www.w3.org/2000/svg"
  viewBox="0 0 850 850">
  <g ref="Baum_Klein">
    <path
            ref="t-crown-46"
            className="t crown hide"
            d="M485.7,697.1c-2.4-7.3,1.6-15.2,8.9-17.6c7.3-2.4,15.2,1.6,17.6,8.9c2.4,7.3-1.6,15.1-8.9,17.5C496,708.4,488.1,704.4,485.7,697.1L485.7,697.1z"
          />
          <path
            ref="t-shadow-46"
            className="t shadow hide"
            d="M511.9,697.9c-0.8-6.1-4.7-12.3-11.6-12.8c-6.9-0.6-13.9,3.2-15.1,9.4c-1-7.6,4.4-14.6,12-15.6c6.4-0.8,12.5,2.9,14.8,8.9C514.2,693.9,511.9,697.9,511.9,697.9z"
          />
          <path
            id="Stamm-46"
            ref="t-stem-46"
            data-seq="46"
            className="t stem hide"
            d="M489.1,666.7c1.4,4.3,5.9,17.9,5.9,17.9l-3.4,8.4l2.4-0.8l2.1-4.2l2.2,6.5l1.7-1.9l-2.5-7.6l4.8,1.4l0.9-2.5l-5.4-2.4c0,0-3.7-11.4-5.4-16.3C490.8,660.3,487.6,662.4,489.1,666.7z"
          />
  </g>
</svg>
