<svg ref="canvas"
  data-name="Layer 2"
  xmlns="http://www.w3.org/2000/svg"
  viewBox="0 0 850 850">
  <g ref="Baum_Klein">
    <path
            ref="t-crown-27"
            styleUid="darkTreeCrown"       style="fill:#66922e;"
            d="M685.3,507c-5.3-1.1-8.7-6.4-7.6-11.7c1.1-5.3,6.4-8.7,11.7-7.6s8.7,6.3,7.6,11.7C696,504.7,690.8,508.2,685.3,507C685.4,507,685.4,507,685.3,507z"
          />
          <path
            ref="t-shadow-27"
            className="t shadow hide"
            d="M695.2,491.2c-4.1-1.7-9.3-1.5-12.1,2.5s-3,9.7,0.4,12.7c-5.1-1.9-7.7-7.6-5.8-12.7c1.7-4.5,6.5-7.2,11.2-6.2C693.5,488.4,695.2,491.2,695.2,491.2z"
          />
          <path
            id="Stamm-27"
            ref="t-stem-27"
            data-seq="27"
            className="t stem hide"
            d="M673.9,495.4l7,1.5l4,5.1l0.4-1.7l-1.8-2.8l4.8,1l-0.5-1.7l-5.6-1.2l2.6-2.5l-1.2-1.4l-3.4,2.4c0,0-2-0.5-5.6-1.2C670.8,492.1,670.8,494.7,673.9,495.4z"
          />
  </g>
</svg>
