<svg ref="canvas"
  data-name="Layer 2"
  xmlns="http://www.w3.org/2000/svg"
  viewBox="0 0 850 850">
  <g ref="Baum_Klein">
    <path
            ref="t-crown-70"
            styleUid="darkTreeCrown"       style="fill:#66922e;"
            d="M708.1,418.8c-10.1,1.1-19.1-6.1-20.3-16.2s6.1-19.1,16.2-20.3c10.1-1.1,19.1,6.1,20.3,16.2l0,0C725.4,408.7,718.1,417.7,708.1,418.8z"
          />
          <path
            ref="t-shadow-70"
            className="t shadow hide"
            d="M716.3,385.3c-8.1-0.6-17.1,2.7-19.8,11.4c-2.6,8.7,0.3,18.8,8,22.1c-9.4-0.8-16.6-8.5-16.8-17.9c-0.4-9.4,7.1-17.3,15.5-18.5C711.7,381.3,716.3,385.3,716.3,385.3z"
          />
          <path
            id="Stamm-70"
            ref="t-stem-70"
            data-seq="70"
            className="t stem hide"
            d="M670.3,406.2c4.2-0.5,24.1-2.7,24.1-2.7l9.9,6.6l-0.4-3.3l-4.8-3.9l9-1l-1.9-2.8l-10.5,1.2l3.1-5.8l-3-1.8l-4.6,6.3c0,0-13.5,1.4-20.3,2.2S666.2,406.7,670.3,406.2z"
          />
  </g>
</svg>
