<svg ref="canvas"
  data-name="Layer 2"
  xmlns="http://www.w3.org/2000/svg"
  viewBox="0 0 850 850">
  <g ref="Baum_Klein">
    <path
            ref="t-crown-58"
            styleUid="darkTreeCrown"       style="fill:#66922e;"
            d="M150.2,340.8c9.9,2.2,16.1,12,13.9,21.9c-2.2,9.9-12,16.1-21.9,13.9s-16.1-12-13.9-21.9l0,0C130.5,344.8,140.3,338.6,150.2,340.8z"
          />
          <path
            ref="t-shadow-58"
            className="t shadow hide"
            d="M131.6,369.8c7.5,3.2,17.1,3,22.4-4.4c5.3-7.4,5.8-17.9-0.4-23.5c8.6,3.8,13,13.4,10.1,22.4c-2.7,9.1-12.3,14.1-20.7,12.5C134.6,375.1,131.6,369.8,131.6,369.8z"
          />
          <path
            id="Stamm-58"
            ref="t-stem-58"
            data-seq="58"
            className="t stem hide"
            d="M181.8,364.8c-4.1-0.9-23.7-5.2-23.7-5.2l-7.2-9.4l-0.7,3.2l3.3,5.2l-8.9-2l1,3.3l10.3,2.3l-4.8,4.5l2.3,2.7l6.3-4.4c0,0,13.2,3,19.9,4.4S185.9,365.8,181.8,364.8z"
          />
  </g>
</svg>
