<svg ref="canvas"
  data-name="Layer 2"
  xmlns="http://www.w3.org/2000/svg"
  viewBox="0 0 850 850">
  <g ref="Baum_Klein">
    <polygon
            ref="p-pot-33"
            styleUid="pot"       style="fill:#85aa4f;"
            points="576.2,210.5 585.4,217.3 579.9,221.2 574.1,216.9"
          />
          <path
            ref="p-shadow-33"
            styleUid="potShadow"       style="fill:#729235;"
            d="M579.8,213.9l4.5,3.4l-3.6,2.8c0,0,3-2.7,2.5-3.1L579.8,213.9z"
          />
          <path
            ref="p-leaf1-33"
            styleUid="potLeaf1"       style="fill:#66922f;"
            d="M582.3,212.4c0.5-0.9,1.5-1.3,2.5-1C584.3,212.2,583.3,212.6,582.3,212.4z"
          />
          <path
            ref="p-stem-33"
            styleUid="potStem"       style="fill:#564f48;"
            d="M581,214c0.9-0.9,2.8-2,2.5-4.9c-0.2,1.9-1.2,3.6-2.8,4.7L581,214L581,214"
          />
          <path
            ref="p-leaf2-33"
            styleUid="potLeaf2"       style="fill:#87bc24;"
            d="M583.4,209.9c0.7-1.4,2-2.3,3.5-2.5C585.9,209.2,584.6,210.1,583.4,209.9z"
          />
          <path
            ref="p-leaf3-33"
            styleUid="potLeaf3"       style="fill:#50752c;"
            d="M583.4,209.9c1.9-0.9,2.1-4.3,1.3-5.5C583.7,205.3,582.2,208.7,583.4,209.9z"
          />
  </g>
</svg>
