<svg ref="canvas"
  data-name="Layer 2"
  xmlns="http://www.w3.org/2000/svg"
  viewBox="0 0 850 850">
  <g ref="Baum_Klein">
   <polygon
            ref="p-pot-35"
            styleUid="pot"       style="fill:#85aa4f;"
            points="441.1,159 457.1,160.4 453.5,169 443.3,168.2"
          />
          <path
            ref="p-shadow-35"
            styleUid="potShadow"       style="fill:#729235;"
            d="M447.9,160.4l7.8,0.7l-2.2,5.9c0,0,1.6-5.3,0.6-5.5L447.9,160.4z"
          />
          <path
            ref="p-leaf1-35"
            styleUid="potLeaf1"       style="fill:#66922f;"
            d="M449.8,156.8c0.1-1.3,0.5-2.7,2.2-3.1C452,155.1,451.1,156.3,449.8,156.8z"
          />
          <path
            ref="p-stem-35"
            styleUid="potStem"       style="fill:#564f48;"
            d="M449.4,159.7c0.4-1.8,1.8-4.4-0.6-7.6c1.2,2.4,1.2,5.2,0.1,7.6H449.4L449.4,159.7"
          />
          <path
            ref="p-leaf2-35"
            styleUid="potLeaf2"       style="fill:#87bc24;"
            d="M449.2,153c-0.2-2.1,0.6-4.2,2.2-5.6C451.6,150.4,450.8,152.4,449.2,153z"
          />
          <path
            ref="p-leaf3-35"
            styleUid="potLeaf3"       style="fill:#50752c;"
            d="M449.3,153c1.5-2.5-0.7-6.7-2.5-7.5C446.2,147.3,446.9,152.5,449.3,153z"
          />
  </g>
</svg>
