<svg ref="canvas"
  data-name="Layer 2"
  xmlns="http://www.w3.org/2000/svg"
  viewBox="0 0 850 850">
  <g ref="Baum_Klein">
   <polygon
            ref="p-pot-34"
            styleUid="pot"       style="fill:#85aa4f;"
            points="564.8,201.3 574.3,207.7 569.1,211.9 563,207.9"
          />
          <path
            ref="p-shadow-34"
            styleUid="potShadow"       style="fill:#729235;"
            d="M568.6,204.6l4.7,3.1l-3.5,3c0,0,2.8-2.8,2.3-3.3L568.6,204.6z"
          />
          <path
            ref="p-leaf1-34"
            styleUid="potLeaf1"       style="fill:#66922f;"
            d="M571,202.9c0.4-0.9,1.4-1.4,2.4-1.2C573,202.6,572,203.1,571,202.9z"
          />
          <path
            ref="p-stem-34"
            styleUid="potStem"       style="fill:#564f48;"
            d="M569.7,204.7c0.9-1,2.7-2.1,2.2-5c-0.1,1.9-1,3.7-2.5,4.8L569.7,204.7L569.7,204.7"
          />
          <path
            ref="p-leaf2-34"
            styleUid="potLeaf2"       style="fill:#87bc24;"
            d="M571.9,200.4c0.6-1.4,1.8-2.4,3.3-2.7C574.4,199.6,573.2,200.5,571.9,200.4z"
          />
          <path
            ref="p-leaf3-34"
            styleUid="potLeaf3"       style="fill:#50752c;"
            d="M572,200.4c1.8-1,1.9-4.4,1-5.6C572,195.8,570.7,199.3,572,200.4z"
          />
  </g>
</svg>
