<svg viewBox="0 0 850 850" xmlns="http://www.w3.org/2000/svg"><path d="m564.8 201.3 9.5 6.4-5.2 4.2-6.1-4z" fill="#85aa4f"/><path d="m568.6 204.6 4.7 3.1-3.5 3s2.8-2.8 2.3-3.3z" fill="#729235"/><path d="m571 202.9c.4-.9 1.4-1.4 2.4-1.2-.4.9-1.4 1.4-2.4 1.2z" fill="#66922f"/><path d="m569.7 204.7c.9-1 2.7-2.1 2.2-5-.1 1.9-1 3.7-2.5 4.8z" fill="#564f48"/><path d="m571.9 200.4c.6-1.4 1.8-2.4 3.3-2.7-.8 1.9-2 2.8-3.3 2.7z" fill="#87bc24"/><path d="m572 200.4c1.8-1 1.9-4.4 1-5.6-1 1-2.3 4.5-1 5.6z" fill="#50752c"/></svg>