<svg ref="canvas"
  data-name="Layer 2"
  xmlns="http://www.w3.org/2000/svg"
  viewBox="0 0 850 850">
  <g ref="Baum_Klein">
    <polygon
            ref="p-pot-52"
            className="p pot hide"
            points="538.8,178.2 563,190.3 552,201.5 536.7,193.9"
          />
          <path
            ref="p-shadow-52"
            className="p shadow hide"
            d="M548.6,184.6l11.8,5.9l-7.2,7.9c0,0,5.8-7.4,4.3-8.2L548.6,184.6z"
          />
          <path
            ref="p-leaf1-52"
            className="p leaf1 hide"
            d="M553.9,180.1c1-2,2.4-3.9,5.3-3.4C558.3,178.8,556.2,180.1,553.9,180.1z"
          />
          <path
            ref="p-stem-52"
            className="p stem hide"
            d="M551.3,184.5c1.8-2.5,5.6-5.7,3.8-12.3c0.3,6.9-2.8,9.8-4.5,12L551.3,184.5L551.3,184.5"
          />
          <path
            ref="p-leaf2-52"
            className="p leaf2 hide"
            d="M555.3,173.8c0.8-3,3.6-6.5,7-7.3C560.7,171.3,558.3,173.8,555.3,173.8z"
          />
          <path
            ref="p-leaf3-52"
            className="p leaf3 hide"
            d="M555.4,173.9c4-3,3-10.9,0.7-13.3C554.1,163.1,552,171.6,555.4,173.9z"
          />
  </g>
</svg>
