<svg ref="canvas"
  data-name="Layer 2"
  xmlns="http://www.w3.org/2000/svg"
  viewBox="0 0 850 850">
  <g ref="Baum_Klein">
    <polygon
            ref="p-pot-54"
            styleUid="pot"       style="fill:#85aa4f;"
            points="415.6,152.8 442.6,152.8 437.8,167.8 420.7,167.8"
          />
          <path
            ref="p-shadow-54"
            styleUid="potShadow"       style="fill:#729235;"
            d="M427.3,154.1h13.2l-2.9,10.3c0,0,1.8-9.2,0.2-9.3L427.3,154.1z"
          />
          <path
            ref="p-leaf1-54"
            styleUid="potLeaf1"       style="fill:#66922f;"
            d="M430,147.7c0-2.2,0.4-4.5,3.2-5.5C433.3,144.6,432.1,146.8,430,147.7z"
          />
          <path
            ref="p-stem-54"
            styleUid="potStem"       style="fill:#564f48;"
            d="M429.7,152.8c0.5-3,2.5-7.6-2.2-12.7c3.4,6,1.9,10,1.3,12.7H429.7"
          />
          <path
            ref="p-leaf2-54"
            styleUid="potLeaf2"       style="fill:#87bc24;"
            d="M428.4,141.5c-0.6-3,0.3-7.5,3-9.7C432.1,136.8,431,140.1,428.4,141.5z"
          />
          <path
            ref="p-leaf3-54"
            styleUid="potLeaf3"       style="fill:#50752c;"
            d="M428.5,141.5c2.2-4.4-2.1-11.1-5.3-12.2C422.6,132.5,424.5,141,428.5,141.5z"
          />
  </g>
</svg>
