<svg ref="canvas"
  data-name="Layer 2"
  xmlns="http://www.w3.org/2000/svg"
  viewBox="0 0 850 850">
  <g ref="Baum_Klein">
    <polygon
            ref="p-pot-53"
            className="p pot hide"
            points="483.6,160.3 509.8,166.9 501.4,180.3 484.8,176"
          />
          <path
            ref="p-shadow-53"
            className="p shadow hide"
            d="M494.5,164.4l12.8,3.3l-5.3,9.2c0,0,4.1-8.4,2.5-9L494.5,164.4z"
          />
          <path
            ref="p-leaf1-53"
            className="p leaf1 hide"
            d="M498.7,158.9c0.6-2.2,1.5-4.3,4.5-4.5C502.8,156.7,501,158.5,498.7,158.9z"
          />
          <path
            ref="p-stem-53"
            className="p stem hide"
            d="M497.2,163.7c1.2-2.8,4.3-6.8,1.1-12.8c1.8,6.7-0.6,10.2-1.9,12.6L497.2,163.7L497.2,163.7"
          />
          <path
            ref="p-leaf2-53"
            className="p leaf2 hide"
            d="M498.7,152.5c0.1-3,2.2-7.1,5.3-8.6C503.5,148.8,501.6,151.8,498.7,152.5z"
          />
          <path
            ref="p-leaf3-53"
            className="p leaf3 hide"
            d="M498.9,152.5c3.2-3.7,0.7-11.2-2.1-13.2C495.3,142.3,495.1,151,498.9,152.5z"
          />
  </g>
</svg>
