<svg ref="canvas"
  data-name="Layer 2"
  xmlns="http://www.w3.org/2000/svg"
  viewBox="0 0 850 850">
  <g ref="Baum_Klein">
    <polygon
            ref="p-pot-01"
            className="p pot hide"
            points="508.3,174.7 519.2,178.4 515.2,183.8 508.3,181.5"
          />
          <path
            ref="p-shadow-01"
            className="p shadow hide"
            d="M512.8,176.9l5.3,1.8l-2.6,3.7c0,0,2-3.4,1.4-3.7L512.8,176.9z"
          />
          <path
            ref="p-leaf1-01"
            className="p leaf1 hide"
            d="M514.8,174.6c0.2-1,1-1.7,2-1.8C516.5,173.8,515.7,174.5,514.8,174.6z"
          />
          <path
            ref="p-stem-01"
            className="p stem hide"
            d="M513.9,176.6c0.6-1.2,2-2.7,0.9-5.4c0.4,1.9,0,3.8-1.2,5.3L513.9,176.6L513.9,176.6"
          />
          <path
            ref="p-leaf2-01"
            className="p leaf2 hide"
            d="M515,171.9c0.2-1.5,1.2-2.8,2.5-3.5C517.1,170.5,516.2,171.7,515,171.9z"
          />
          <path
            ref="p-leaf3-01"
            className="p leaf3 hide"
            d="M515,171.9c1.5-1.5,0.6-4.8-0.5-5.7C513.9,167.5,513.5,171.1,515,171.9z"
          />
  </g>
</svg>
