<svg viewBox="0 0 850 850" xmlns="http://www.w3.org/2000/svg"><path d="m598.6 216.3 20.4 17.7-13.5 8.1-12.9-11.2z" fill="#85aa4f"/><path d="m606.5 224.9 10 8.7-8.9 5.9s7.4-5.7 6.3-6.9z" fill="#729235"/><path d="m612.7 221.9c1.5-1.7 3.3-3.2 6-2-1.4 1.8-3.8 2.6-6 2z" fill="#66922f"/><path d="m609.2 225.5c2.3-2 6.9-4.1 6.7-11-1.4 6.8-5.1 8.8-7.4 10.5z" fill="#564f48"/><path d="m615.6 216.2c1.5-2.6 5.2-5.4 8.6-5.3-2.7 4.1-5.7 5.9-8.6 5.3z" fill="#87bc24"/><path d="m615.7 216.2c4.5-1.9 5.6-9.8 4-12.7-2.5 2-6.6 9.7-4 12.7z" fill="#50752c"/></svg>