<svg viewBox="0 0 850 850" xmlns="http://www.w3.org/2000/svg"><path d="m441.1 159 16 1.4-3.6 8.6-10.2-.8z" fill="#85aa4f"/><path d="m447.9 160.4 7.8.7-2.2 5.9s1.6-5.3.6-5.5z" fill="#729235"/><path d="m449.8 156.8c.1-1.3.5-2.7 2.2-3.1 0 1.4-.9 2.6-2.2 3.1z" fill="#66922f"/><path d="m449.4 159.7c.4-1.8 1.8-4.4-.6-7.6 1.2 2.4 1.2 5.2.1 7.6z" fill="#564f48"/><path d="m449.2 153c-.2-2.1.6-4.2 2.2-5.6.2 3-.6 5-2.2 5.6z" fill="#87bc24"/><path d="m449.3 153c1.5-2.5-.7-6.7-2.5-7.5-.6 1.8.1 7 2.5 7.5z" fill="#50752c"/></svg>