<svg ref="canvas"
  data-name="Layer 2"
  xmlns="http://www.w3.org/2000/svg"
  viewBox="0 0 850 850">
  <g ref="Baum_Klein">
    <polygon
            ref="p-pot-31"
            className="p pot hide"
            points="637.6,276.6 644.4,285.9 638,288 633.7,282.2"
          />
          <path
            ref="p-shadow-31"
            className="p shadow hide"
            d="M640,281l3.3,4.5l-4.3,1.6c0,0,3.6-1.7,3.3-2.3L640,281z"
          />
          <path
            ref="p-leaf1-31"
            className="p leaf1 hide"
            d="M642.9,280.3c0.7-0.7,1.8-0.8,2.7-0.3C644.8,280.6,643.8,280.8,642.9,280.3z"
          />
          <path
            ref="p-stem-31"
            className="p stem hide"
            d="M641.1,281.4c1.2-0.6,3.2-1.1,3.8-4c-0.7,1.8-2.2,3.1-4,3.7L641.1,281.4L641.1,281.4"
          />
          <path
            ref="p-leaf2-31"
            className="p leaf2 hide"
            d="M644.6,278.2c1-1.1,2.6-1.6,4.1-1.4C647.2,278.3,645.8,278.7,644.6,278.2z"
          />
          <path
            ref="p-leaf3-31"
            className="p leaf3 hide"
            d="M644.7,278.2c2.1-0.3,3.3-3.5,2.9-4.9C646.3,273.9,643.9,276.7,644.7,278.2z"
          />
  </g>
</svg>
