<svg ref="canvas"
  data-name="Layer 2"
  xmlns="http://www.w3.org/2000/svg"
  viewBox="0 0 850 850">
  <g ref="Baum_Klein">
    <polygon
            ref="p-pot-32"
            className="p pot hide"
            points="617.9,246.7 625.7,255.2 619.6,258 614.7,252.6"
          />
          <path
            ref="p-shadow-32"
            className="p shadow hide"
            d="M620.9,250.7l3.8,4.1l-4.1,2.1c0,0,3.4-2.1,3-2.6L620.9,250.7z"
          />
          <path
            ref="p-leaf1-32"
            className="p leaf1 hide"
            d="M623.6,249.7c0.6-0.8,1.7-1.1,2.6-0.6C625.6,249.9,624.6,250.1,623.6,249.7z"
          />
          <path
            ref="p-stem-32"
            className="p stem hide"
            d="M622,251.1c1.1-0.7,3.1-1.4,3.4-4.3c-0.5,1.8-1.9,3.3-3.6,4.1L622,251.1L622,251.1"
          />
          <path
            ref="p-leaf2-32"
            className="p leaf2 hide"
            d="M625.1,247.4c0.9-1.2,2.4-1.9,3.9-1.9C627.7,247.2,626.3,247.9,625.1,247.4z"
          />
          <path
            ref="p-leaf3-32"
            className="p leaf3 hide"
            d="M625.2,247.5c2-0.6,2.8-3.9,2.3-5.2C626.3,243,624.2,246.1,625.2,247.5z"
          />
  </g>
</svg>
