<svg ref="canvas"
  data-name="Layer 2"
  xmlns="http://www.w3.org/2000/svg"
  viewBox="0 0 850 850">
  <g ref="Baum_Klein">
   <polygon
            ref="p-pot-51"
            styleUid="pot"       style="fill:#85aa4f;"
            points="629.9,255.2 639.7,267.8 630.9,271 624.7,263"
          />
          <path
            ref="p-shadow-51"
            styleUid="potShadow"       style="fill:#729235;"
            d="M633.5,261.1l4.8,6.2l-5.9,2.4c0,0,4.9-2.5,4.4-3.3L633.5,261.1z"
          />
          <path
            ref="p-leaf1-51"
            styleUid="potLeaf1"       style="fill:#66922f;"
            d="M637.5,260.1c1.1-0.8,2.3-1.5,3.7-0.5C640.2,260.5,638.7,260.7,637.5,260.1z"
          />
          <path
            ref="p-stem-51"
            styleUid="potStem"       style="fill:#564f48;"
            d="M635,261.7c1.6-0.9,4.5-1.6,5.2-5.7c-1,2.5-3,4.4-5.5,5.3L635,261.7L635,261.7"
          />
          <path
            ref="p-leaf2-51"
            styleUid="potLeaf2"       style="fill:#87bc24;"
            d="M639.8,257c1.4-1.6,3.5-2.4,5.6-2.1C643.3,257,641.4,257.7,639.8,257z"
          />
          <path
            ref="p-leaf3-51"
            styleUid="potLeaf3"       style="fill:#50752c;"
            d="M639.8,257.1c2.9-0.6,4.4-5.1,3.8-6.9C641.9,251,638.6,255,639.8,257.1z"
          />
  </g>
</svg>
