<svg ref="canvas"
  data-name="Layer 2"
  xmlns="http://www.w3.org/2000/svg"
  viewBox="0 0 850 850">
  <g ref="Baum_Klein">
<polygon
            ref="p-pot-29"
            styleUid="pot"       style="fill:#85aa4f;"
            points="676.9,348.3 680.2,359.3 673.5,359.2 671.4,352.2"
          />
          <path
            ref="p-shadow-29"
            styleUid="potShadow"       style="fill:#729235;"
            d="M677.8,353.2l1.6,5.4l-4.5,0.1c0,0,4-0.4,3.8-1.1L677.8,353.2z"
          />
          <path
            ref="p-leaf1-29"
            styleUid="potLeaf1"       style="fill:#66922f;"
            d="M680.7,353.5c0.9-0.5,2-0.2,2.6,0.6C682.4,354.5,681.4,354.2,680.7,353.5z"
          />
          <path
            ref="p-stem-29"
            styleUid="potStem"       style="fill:#564f48;"
            d="M678.6,354c1.3-0.2,3.4,0.1,4.9-2.5c-1.3,1.4-3.1,2.2-5,2.1L678.6,354L678.6,354"
          />
          <path
            ref="p-leaf2-29"
            styleUid="potLeaf2"       style="fill:#87bc24;"
            d="M683.1,352.1c1.3-0.7,3-0.7,4.3,0C685.4,353,684,353,683.1,352.1z"
          />
          <path
            ref="p-leaf3-29"
            styleUid="potLeaf3"       style="fill:#50752c;"
            d="M683.1,352.1c2.1,0.3,4.2-2.2,4.3-3.7C686,348.6,682.8,350.4,683.1,352.1z"
          />
  </g>
</svg>
