<svg viewBox="0 0 850 850" xmlns="http://www.w3.org/2000/svg"><path d="m676.9 348.3 3.3 11-6.7-.1-2.1-7z" fill="#85aa4f"/><path d="m677.8 353.2 1.6 5.4-4.5.1s4-.4 3.8-1.1z" fill="#729235"/><path d="m680.7 353.5c.9-.5 2-.2 2.6.6-.9.4-1.9.1-2.6-.6z" fill="#66922f"/><path d="m678.6 354c1.3-.2 3.4.1 4.9-2.5-1.3 1.4-3.1 2.2-5 2.1z" fill="#564f48"/><path d="m683.1 352.1c1.3-.7 3-.7 4.3 0-2 .9-3.4.9-4.3 0z" fill="#87bc24"/><path d="m683.1 352.1c2.1.3 4.2-2.2 4.3-3.7-1.4.2-4.6 2-4.3 3.7z" fill="#50752c"/></svg>