<svg ref="canvas"
  data-name="Layer 2"
  xmlns="http://www.w3.org/2000/svg"
  viewBox="0 0 850 850">
  <g ref="Baum_Klein">
<polygon
            ref="p-pot-49"
            className="p pot hide"
            points="685.5,371.9 688.5,387.7 679.2,386.6 677.3,376.6"
          />
          <path
            ref="p-shadow-49"
            className="p shadow hide"
            d="M686,378.9l1.5,7.7l-6.3-0.5c0,0,5.6,0,5.5-0.9L686,378.9z"
          />
          <path
            ref="p-leaf1-49"
            className="p leaf1 hide"
            d="M690,379.7c1.3-0.2,2.7-0.3,3.5,1.3C692.3,381.3,690.8,380.8,690,379.7z"
          />
          <path
            ref="p-stem-49"
            className="p stem hide"
            d="M687.1,380.1c1.8-0.1,4.7,0.6,7.2-2.7c-2,1.8-4.6,2.6-7.3,2.2L687.1,380.1L687.1,380.1"
          />
          <path
            ref="p-leaf2-49"
            className="p leaf2 hide"
            d="M693.5,378.1c2-0.8,4.2-0.5,5.9,0.6C696.6,379.7,694.6,379.5,693.5,378.1z"
          />
          <path
            ref="p-leaf3-49"
            className="p leaf3 hide"
            d="M693.5,378.2c2.8,0.8,6.2-2.5,6.5-4.5C698.1,373.7,693.4,375.8,693.5,378.2z"
          />
  </g>
</svg>
