<svg viewBox="0 0 850 850" xmlns="http://www.w3.org/2000/svg"><path d="m661.3 308.7 4.8 10.4-6.7.8-3-6.6z" fill="#85aa4f"/><path d="m662.8 313.4 2.3 5.1-4.5.7s3.9-.9 3.6-1.6z" fill="#729235"/><path d="m665.8 313.3c.8-.6 2-.5 2.7.3-.9.5-1.9.4-2.7-.3z" fill="#66922f"/><path d="m663.8 314.1c1.3-.4 3.4-.4 4.5-3.1-1.1 1.6-2.8 2.6-4.7 2.7z" fill="#564f48"/><path d="m668 311.6c1.2-.9 2.8-1.1 4.3-.6-1.9 1.2-3.3 1.4-4.3.6z" fill="#87bc24"/><path d="m668 311.7c2.1.1 4-2.8 3.8-4.2-1.4.3-4.3 2.5-3.8 4.2z" fill="#50752c"/></svg>