<svg viewBox="0 0 850 850" xmlns="http://www.w3.org/2000/svg"><path d="m672.9 330.2 5.8 15-9.3.5-3.7-9.5z" fill="#85aa4f"/><path d="m674.7 336.9 2.8 7.3-6.3.6s5.5-1 5.2-1.9z" fill="#729235"/><path d="m678.8 337.1c1.3-.5 2.6-.8 3.7.6-1.3.5-2.7.3-3.7-.6z" fill="#66922f"/><path d="m675.9 337.9c1.8-.4 4.7-.3 6.6-4-1.6 2.1-4.1 3.4-6.8 3.4z" fill="#564f48"/><path d="m681.9 334.8c1.8-1.1 4-1.3 6-.4-2.6 1.5-4.7 1.6-6 .4z" fill="#87bc24"/><path d="m681.9 334.9c2.9.3 5.7-3.6 5.6-5.6-1.8.4-6.1 3.3-5.6 5.6z" fill="#50752c"/></svg>