<svg ref="canvas"
  data-name="Layer 2"
  xmlns="http://www.w3.org/2000/svg"
  viewBox="0 0 850 850">
  <g ref="Baum_Klein">
    <polygon
            ref="p-pot-24"
            className="p pot hide"
            points="637,581.6 630.2,590.9 626.3,585.4 630.6,579.6"
          />
          <path
            ref="p-shadow-24"
            className="p shadow hide"
            d="M633.6,585.2l-3.4,4.5l-2.8-3.5c0,0,2.7,3,3.1,2.4L633.6,585.2z"
          />
          <path
            ref="p-leaf1-24"
            className="p leaf1 hide"
            d="M635.1,587.8c0.9,0.5,1.4,1.5,1,2.5C635.3,589.8,634.9,588.8,635.1,587.8z"
          />
          <path
            ref="p-stem-24"
            className="p stem hide"
            d="M633.5,586.4c0.9,0.9,2,2.8,4.9,2.5c-1.9-0.2-3.6-1.2-4.7-2.8L633.5,586.4L633.5,586.4"
          />
          <path
            ref="p-leaf2-24"
            className="p leaf2 hide"
            d="M637.6,588.9c1.4,0.7,2.3,2,2.5,3.5C638.3,591.3,637.5,590.1,637.6,588.9z"
          />
          <path
            ref="p-leaf3-24"
            className="p leaf3 hide"
            d="M637.6,588.9c1,1.9,4.3,2.1,5.5,1.3C642.2,589.2,638.8,587.7,637.6,588.9z"
          />
  </g>
</svg>
