<svg ref="canvas"
  data-name="Layer 2"
  xmlns="http://www.w3.org/2000/svg"
  viewBox="0 0 850 850">
  <g ref="Baum_Klein">
    <polygon
            ref="p-pot-26"
            className="p pot hide"
            points="667.9,527.4 663.2,537.9 658.2,533.4 661.2,526.8"
          />
          <path
            ref="p-shadow-26"
            className="p shadow hide"
            d="M665.4,531.7l-2.3,5.1l-3.5-2.9c0,0,3.3,2.3,3.6,1.7L665.4,531.7z"
          />
          <path
            ref="p-leaf1-26"
            className="p leaf1 hide"
            d="M667.4,533.8c1,0.3,1.7,1.2,1.6,2.2C668,535.7,667.4,534.8,667.4,533.8z"
          />
          <path
            ref="p-stem-26"
            className="p stem hide"
            d="M665.5,532.9c1.1,0.7,2.5,2.3,5.3,1.4c-1.9,0.2-3.8-0.4-5.2-1.7L665.5,532.9L665.5,532.9"
          />
          <path
            ref="p-leaf2-26"
            className="p leaf2 hide"
            d="M670.1,534.3c1.5,0.4,2.7,1.4,3.2,2.8C671.3,536.6,670.1,535.6,670.1,534.3z"
          />
          <path
            ref="p-leaf3-26"
            className="p leaf3 hide"
            d="M670,534.4c1.3,1.6,4.7,1.1,5.7,0C674.6,533.6,670.9,532.9,670,534.4z"
          />
  </g>
</svg>
