<svg ref="canvas"
  data-name="Layer 2"
  xmlns="http://www.w3.org/2000/svg"
  viewBox="0 0 850 850">
  <g ref="Baum_Klein">
<polygon
            ref="p-pot-67"
            className="p pot hide"
            points="662.5,556.5 649.1,580 638.5,568.3 647,553.5"
          />
          <path
            ref="p-shadow-67"
            className="p shadow hide"
            d="M655.6,566l-6.6,11.5l-7.5-7.6c0,0,7,6.2,8,4.8L655.6,566z"
          />
          <path
            ref="p-leaf1-67"
            className="p leaf1 hide"
            d="M659.8,571.5c2,1.1,3.7,2.6,3.1,5.5C660.8,576,659.6,573.8,659.8,571.5z"
          />
          <path
            ref="p-stem-67"
            className="p stem hide"
            d="M655.5,568.7c2.4,1.9,5.4,5.9,12.1,4.5c-6.9-0.1-9.6-3.3-11.7-5.2L655.5,568.7L655.5,568.7"
          />
          <path
            ref="p-leaf2-67"
            className="p leaf2 hide"
            d="M665.9,573.2c2.9,1,6.3,4,6.9,7.4C668.2,578.7,665.8,576.2,665.9,573.2z"
          />
          <path
            ref="p-leaf3-67"
            className="p leaf3 hide"
            d="M665.9,573.3c2.7,4.1,10.7,3.6,13.3,1.5C676.7,572.7,668.3,570.1,665.9,573.3z"
          />
  </g>
</svg>
