<svg ref="canvas"
  data-name="Layer 2"
  xmlns="http://www.w3.org/2000/svg"
  viewBox="0 0 850 850">
  <g ref="Baum_Klein">
<polygon
            ref="p-pot-48"
            className="p pot hide"
            points="688.4,461.5 685.8,477.4 677.4,473.1 679.1,463.1"
          />
          <path
            ref="p-shadow-48"
            className="p shadow hide"
            d="M686.4,468.2l-1.3,7.7l-5.7-2.7c0,0,5.2,2,5.4,1L686.4,468.2z"
          />
          <path
            ref="p-leaf1-48"
            className="p leaf1 hide"
            d="M689.9,470.4c1.3,0.2,2.6,0.7,2.9,2.4C691.5,472.7,690.3,471.7,689.9,470.4z"
          />
          <path
            ref="p-stem-48"
            className="p stem hide"
            d="M687,469.7c1.7,0.6,4.2,2.2,7.7,0c-2.5,1-5.2,0.8-7.6-0.5L687,469.7L687,469.7"
          />
          <path
            ref="p-leaf2-48"
            className="p leaf2 hide"
            d="M693.7,470.1c2.1,0,4.1,1,5.4,2.7C696.1,472.7,694.3,471.8,693.7,470.1z"
          />
          <path
            ref="p-leaf3-48"
            className="p leaf3 hide"
            d="M693.7,470.2c2.4,1.7,6.7-0.2,7.7-2C699.6,467.6,694.4,467.9,693.7,470.2z"
          />
  </g>
</svg>
