<svg viewBox="0 0 850 850" xmlns="http://www.w3.org/2000/svg"><path d="m589.1 631.6-9.2 7-2.2-6.3 5.8-4.4z" fill="#85aa4f"/><path d="m584.8 634.2-4.5 3.4-1.7-4.2s1.7 3.6 2.3 3.2z" fill="#729235"/><path d="m585.5 637c.7.7.9 1.8.3 2.7-.6-.7-.7-1.8-.3-2.7z" fill="#66922f"/><path d="m584.3 635.3c.6 1.1 1.1 3.2 4 3.8-1.8-.7-3.1-2.2-3.7-4z" fill="#564f48"/><path d="m587.7 638.7c1.1 1 1.7 2.5 1.5 4-1.6-1.4-2.1-2.8-1.5-4z" fill="#87bc24"/><path d="m587.6 638.8c.4 2.1 3.6 3.2 4.9 2.8-.5-1.3-3.4-3.7-4.9-2.8z" fill="#50752c"/></svg>