<svg viewBox="0 0 850 850" xmlns="http://www.w3.org/2000/svg"><path d="m662.5 556.5-13.4 23.5-10.6-11.7 8.5-14.8z" fill="#85aa4f"/><path d="m655.6 566-6.6 11.5-7.5-7.6s7 6.2 8 4.8z" fill="#729235"/><path d="m659.8 571.5c2 1.1 3.7 2.6 3.1 5.5-2.1-1-3.3-3.2-3.1-5.5z" fill="#66922f"/><path d="m655.5 568.7c2.4 1.9 5.4 5.9 12.1 4.5-6.9-.1-9.6-3.3-11.7-5.2z" fill="#564f48"/><path d="m665.9 573.2c2.9 1 6.3 4 6.9 7.4-4.6-1.9-7-4.4-6.9-7.4z" fill="#87bc24"/><path d="m665.9 573.3c2.7 4.1 10.7 3.6 13.3 1.5-2.5-2.1-10.9-4.7-13.3-1.5z" fill="#50752c"/></svg>