<svg ref="canvas"
  data-name="Layer 2"
  xmlns="http://www.w3.org/2000/svg"
  viewBox="0 0 850 850">
  <g ref="Baum_Klein">
<polygon
            ref="p-pot-23"
            className="p pot hide"
            points="589.1,631.6 579.9,638.6 577.7,632.3 583.5,627.9"
          />
          <path
            ref="p-shadow-23"
            className="p shadow hide"
            d="M584.8,634.2l-4.5,3.4l-1.7-4.2c0,0,1.7,3.6,2.3,3.2L584.8,634.2z"
          />
          <path
            ref="p-leaf1-23"
            className="p leaf1 hide"
            d="M585.5,637c0.7,0.7,0.9,1.8,0.3,2.7C585.2,639,585.1,637.9,585.5,637z"
          />
          <path
            ref="p-stem-23"
            className="p stem hide"
            d="M584.3,635.3c0.6,1.1,1.1,3.2,4,3.8c-1.8-0.7-3.1-2.2-3.7-4L584.3,635.3L584.3,635.3"
          />
          <path
            ref="p-leaf2-23"
            className="p leaf2 hide"
            d="M587.7,638.7c1.1,1,1.7,2.5,1.5,4C587.6,641.3,587.1,639.9,587.7,638.7z"
          />
          <path
            ref="p-leaf3-23"
            className="p leaf3 hide"
            d="M587.6,638.8c0.4,2.1,3.6,3.2,4.9,2.8C592,640.3,589.1,637.9,587.6,638.8z"
          />
  </g>
</svg>
