<svg ref="canvas"
  data-name="Layer 2"
  xmlns="http://www.w3.org/2000/svg"
  viewBox="0 0 850 850">
  <g ref="Baum_Klein">
<polygon
            ref="p-pot-69"
            className="p pot hide"
            points="696.4,437.5 693.9,464.3 679.4,458.1 681,441.1"
          />
          <path
            ref="p-shadow-69"
            className="p shadow hide"
            d="M694,448.9l-1.3,13.1l-9.9-3.9c0,0,9,2.7,9.3,1.1L694,448.9z"
          />
          <path
            ref="p-leaf1-69"
            className="p leaf1 hide"
            d="M700.1,452.2c2.2,0.2,4.5,0.8,5.1,3.7C702.9,455.9,700.9,454.4,700.1,452.2z"
          />
          <path
            ref="p-stem-69"
            className="p stem hide"
            d="M695.1,451.4c3,0.8,7.3,3.2,12.8-0.9c-6.3,2.8-10.1,1-12.8,0.1V451.4L695.1,451.4"
          />
          <path
            ref="p-leaf2-69"
            className="p leaf2 hide"
            d="M706.4,451.2c3-0.3,7.4,1.1,9.3,3.9C710.7,455.4,707.6,454,706.4,451.2z"
          />
          <path
            ref="p-leaf3-69"
            className="p leaf3 hide"
            d="M706.4,451.4c4.2,2.6,11.2-1.1,12.7-4.1C716,446.3,707.3,447.4,706.4,451.4z"
          />
  </g>
</svg>
