<svg ref="canvas"
  data-name="Layer 2"
  xmlns="http://www.w3.org/2000/svg"
  viewBox="0 0 850 850">
  <g ref="Baum_Klein">
    <polygon
            ref="p-pot-66"
            styleUid="pot"       style="fill:#85aa4f;"
            points="621.2,613.3 601.8,632.1 594.8,618 607,606.1"
          />
          <path
            ref="p-shadow-66"
            styleUid="potShadow"       style="fill:#729235;"
            d="M611.9,620.5l-9.5,9.3l-5.1-9.4c0,0,5.1,7.9,6.4,6.8L611.9,620.5z"
          />
          <path
            ref="p-leaf1-66"
            styleUid="potLeaf1"       style="fill:#66922f;"
            d="M614.4,626.9c1.5,1.6,2.9,3.5,1.5,6.2C614.2,631.5,613.6,629.1,614.4,626.9z"
          />
          <path
            ref="p-stem-66"
            styleUid="potStem"       style="fill:#564f48;"
            d="M611.1,623.1c1.8,2.5,3.5,7.2,10.4,7.6c-6.6-2-8.3-5.8-9.8-8.2L611.1,623.1L611.1,623.1"
          />
          <path
            ref="p-leaf2-66"
            styleUid="potLeaf2"       style="fill:#87bc24;"
            d="M619.9,630.3c2.5,1.7,4.9,5.6,4.6,9C620.5,636.2,619,633.1,619.9,630.3z"
          />
          <path
            ref="p-leaf3-66"
            styleUid="potLeaf3"       style="fill:#50752c;"
            d="M619.8,630.4c1.5,4.7,9.3,6.4,12.3,5.1C630.3,632.7,623,628,619.8,630.4z"
          />
  </g>
</svg>
