<svg viewBox="0 0 850 850" xmlns="http://www.w3.org/2000/svg"><path d="m688.4 461.5-2.6 15.9-8.4-4.3 1.7-10z" fill="#85aa4f"/><path d="m686.4 468.2-1.3 7.7-5.7-2.7s5.2 2 5.4 1z" fill="#729235"/><path d="m689.9 470.4c1.3.2 2.6.7 2.9 2.4-1.3-.1-2.5-1.1-2.9-2.4z" fill="#66922f"/><path d="m687 469.7c1.7.6 4.2 2.2 7.7 0-2.5 1-5.2.8-7.6-.5z" fill="#564f48"/><path d="m693.7 470.1c2.1 0 4.1 1 5.4 2.7-3-.1-4.8-1-5.4-2.7z" fill="#87bc24"/><path d="m693.7 470.2c2.4 1.7 6.7-.2 7.7-2-1.8-.6-7-.3-7.7 2z" fill="#50752c"/></svg>