<svg viewBox="0 0 850 850" xmlns="http://www.w3.org/2000/svg"><path d="m444.1 696.4-27 .9 4.3-15.1 17.1-.6z" fill="#85aa4f"/><path d="m432.4 695.5-13.2.4 2.6-10.3s-1.6 9.2.1 9.3z" fill="#729235"/><path d="m429.9 701.9c0 2.2-.2 4.5-3 5.6-.3-2.3.9-4.5 3-5.6z" fill="#66922f"/><path d="m430.1 696.9c-.4 3-2.2 7.7 2.6 12.6-3.6-5.9-2.2-9.9-1.7-12.7z" fill="#564f48"/><path d="m431.7 708.1c.7 3-.1 7.5-2.7 9.7-.8-4.9.1-8.2 2.7-9.7z" fill="#87bc24"/><path d="m431.5 708.1c-2.1 4.5 2.5 11 5.7 12 .6-3.1-1.6-11.6-5.7-12z" fill="#50752c"/></svg>