<svg ref="canvas"
  data-name="Layer 2"
  xmlns="http://www.w3.org/2000/svg"
  viewBox="0 0 850 850">
  <g ref="Baum_Klein">
    <polygon
            ref="p-pot-18"
            className="p pot hide"
            points="413,688.5 401.5,687.7 404,681.5 411.2,682"
          />
          <path
            ref="p-shadow-18"
            className="p shadow hide"
            d="M408,687.6l-5.6-0.4l1.5-4.3c0,0-1,3.9-0.3,4L408,687.6z"
          />
          <path
            ref="p-leaf1-18"
            className="p leaf1 hide"
            d="M406.8,690.2c0.1,1-0.5,2-1.5,2.2C405.3,691.5,405.9,690.6,406.8,690.2z"
          />
          <path
            ref="p-stem-18"
            className="p stem hide"
            d="M407.1,688.1c-0.3,1.3-1.3,3.2,0.6,5.5c-0.9-1.7-1-3.7-0.2-5.4L407.1,688.1L407.1,688.1"
          />
          <path
            ref="p-leaf2-18"
            className="p leaf2 hide"
            d="M407.3,692.9c0.2,1.5-0.4,3-1.5,4C405.6,694.8,406.1,693.4,407.3,692.9z"
          />
          <path
            ref="p-leaf3-18"
            className="p leaf3 hide"
            d="M407.2,692.9c-1,1.8,0.6,4.8,2,5.3C409.5,696.9,408.9,693.2,407.2,692.9z"
          />
  </g>
</svg>
