<svg ref="canvas"
  data-name="Layer 2"
  xmlns="http://www.w3.org/2000/svg"
  viewBox="0 0 850 850">
  <g ref="Baum_Klein">
<polygon
            ref="p-pot-19"
            styleUid="pot"       style="fill:#85aa4f;"
            points="396.7,687.2 385.3,685.8 388.1,679.7 395.3,680.6"
          />
          <path
            ref="p-shadow-19"
            styleUid="potShadow"       style="fill:#729235;"
            d="M391.9,686l-5.6-0.7l1.7-4.2c0,0-1.2,3.8-0.6,4L391.9,686z"
          />
          <path
            ref="p-leaf1-19"
            styleUid="potLeaf1"       style="fill:#66922f;"
            d="M390.4,688.6c0.1,1-0.6,1.9-1.6,2.1C388.8,689.7,389.5,688.9,390.4,688.6z"
          />
          <path
            ref="p-stem-19"
            styleUid="potStem"       style="fill:#564f48;"
            d="M390.8,686.4c-0.3,1.3-1.4,3.1,0.3,5.5c-0.8-1.7-0.7-3.7,0.1-5.4L390.8,686.4L390.8,686.4"
          />
          <path
            ref="p-leaf2-19"
            styleUid="potLeaf2"       style="fill:#87bc24;"
            d="M390.8,691.3c0.1,1.5-0.5,3-1.7,4C389,693.1,389.6,691.7,390.8,691.3z"
          />
          <path
            ref="p-leaf3-19"
            styleUid="potLeaf3"       style="fill:#50752c;"
            d="M390.7,691.3c-1.1,1.7,0.4,4.8,1.6,5.4C392.8,695.4,392.4,691.7,390.7,691.3z"
          />
  </g>
</svg>
