<svg ref="canvas"
  data-name="Layer 2"
  xmlns="http://www.w3.org/2000/svg"
  viewBox="0 0 850 850">
  <g ref="Baum_Klein">
    <polygon
            ref="p-pot-65"
            styleUid="pot"       style="fill:#85aa4f;"
            points="550.1,667.1 525.6,678.4 523.7,662.7 539.3,655.6"
          />
          <path
            ref="p-shadow-65"
            styleUid="potShadow"       style="fill:#729235;"
            d="M539,670.7l-12,5.5l-1.6-10.5c0,0,2.1,9.1,3.7,8.6L539,670.7z"
          />
          <path
            ref="p-leaf1-65"
            styleUid="potLeaf1"       style="fill:#66922f;"
            d="M539.2,677.7c0.9,2.1,1.5,4.3-0.7,6.3C537.4,681.9,537.7,679.4,539.2,677.7z"
          />
          <path
            ref="p-stem-65"
            styleUid="potStem"       style="fill:#564f48;"
            d="M537.4,673c0.8,3,0.9,7.9,7.2,10.7c-5.6-4.1-5.9-8.3-6.5-11L537.4,673L537.4,673"
          />
          <path
            ref="p-leaf2-65"
            styleUid="potLeaf2"       style="fill:#87bc24;"
            d="M543.2,682.7c1.8,2.5,2.8,6.9,1.3,10C541.8,688.5,541.5,685.1,543.2,682.7z"
          />
          <path
            ref="p-leaf3-65"
            styleUid="potLeaf3"       style="fill:#50752c;"
            d="M543.1,682.7c-0.2,4.9,6.5,9.2,9.9,8.9C552.3,688.5,547,681.6,543.1,682.7z"
          />
  </g>
</svg>
