<svg viewBox="0 0 850 850" xmlns="http://www.w3.org/2000/svg"><path d="m524.1 669.7-10.8 3.9-.3-6.7 6.8-2.5z" fill="#85aa4f"/><path d="m519.2 670.9-5.3 2-.3-4.5s.6 4 1.3 3.8z" fill="#729235"/><path d="m519.1 673.8c.5.9.3 2-.5 2.7-.4-.9-.2-2 .5-2.7z" fill="#66922f"/><path d="m518.5 671.8c.3 1.3.1 3.4 2.7 4.8-1.5-1.2-2.4-3-2.4-4.9z" fill="#564f48"/><path d="m520.6 676.1c.8 1.3.9 2.9.2 4.3-1-1.9-1-3.4-.2-4.3z" fill="#87bc24"/><path d="m520.6 676.1c-.2 2.1 2.5 4.1 4 4.1-.3-1.4-2.4-4.5-4-4.1z" fill="#50752c"/></svg>