<svg viewBox="0 0 850 850" xmlns="http://www.w3.org/2000/svg"><path d="m413 688.5-11.5-.8 2.5-6.2 7.2.5z" fill="#85aa4f"/><path d="m408 687.6-5.6-.4 1.5-4.3s-1 3.9-.3 4z" fill="#729235"/><path d="m406.8 690.2c.1 1-.5 2-1.5 2.2 0-.9.6-1.8 1.5-2.2z" fill="#66922f"/><path d="m407.1 688.1c-.3 1.3-1.3 3.2.6 5.5-.9-1.7-1-3.7-.2-5.4z" fill="#564f48"/><path d="m407.3 692.9c.2 1.5-.4 3-1.5 4-.2-2.1.3-3.5 1.5-4z" fill="#87bc24"/><path d="m407.2 692.9c-1 1.8.6 4.8 2 5.3.3-1.3-.3-5-2-5.3z" fill="#50752c"/></svg>