<svg ref="canvas"
  data-name="Layer 2"
  xmlns="http://www.w3.org/2000/svg"
  viewBox="0 0 850 850">
  <g ref="Baum_Klein">
<polygon
            ref="p-pot-46"
            className="p pot hide"
            points="503.3,679.6 487.9,683.9 488.3,674.5 498.1,671.8"
          />
          <path
            ref="p-shadow-46"
            className="p shadow hide"
            d="M496.4,680.7l-7.6,2.1v-6.3c0,0,0.4,5.5,1.3,5.4L496.4,680.7z"
          />
          <path
            ref="p-leaf1-46"
            className="p leaf1 hide"
            d="M495.9,684.8c0.3,1.3,0.5,2.6-1,3.6C494.5,687.1,494.8,685.7,495.9,684.8z"
          />
          <path
            ref="p-stem-46"
            className="p stem hide"
            d="M495.3,681.8c0.2,1.8-0.2,4.7,3.2,6.9c-1.9-1.8-2.9-4.4-2.7-7.1L495.3,681.8L495.3,681.8"
          />
          <path
            ref="p-leaf2-46"
            className="p leaf2 hide"
            d="M497.8,688.1c0.9,1.9,0.9,4.2-0.2,6C496.4,691.3,496.5,689.3,497.8,688.1z"
          />
          <path
            ref="p-leaf3-46"
            className="p leaf3 hide"
            d="M497.7,688.1c-0.6,2.9,3,6,4.9,6.2C502.5,692.4,500.1,687.8,497.7,688.1z"
          />
  </g>
</svg>
