<svg ref="canvas"
  data-name="Layer 2"
  xmlns="http://www.w3.org/2000/svg"
  viewBox="0 0 850 850">
  <g ref="Baum_Klein">
<polygon
            ref="p-pot-22"
            className="p pot hide"
            points="557,648.2 547,653.9 545.7,647.3 552,643.7"
          />
          <path
            ref="p-shadow-22"
            className="p shadow hide"
            d="M552.4,650.1l-4.9,2.8l-1.1-4.4c0,0,1.2,3.8,1.9,3.5L552.4,650.1z"
          />
          <path
            ref="p-leaf1-22"
            className="p leaf1 hide"
            d="M552.8,653.1c0.7,0.8,0.7,1.9,0,2.7C552.2,654.9,552.2,653.9,552.8,653.1z"
          />
          <path
            ref="p-stem-22"
            className="p stem hide"
            d="M551.8,651.1c0.5,1.2,0.7,3.3,3.5,4.3c-1.7-0.9-2.8-2.6-3.2-4.4L551.8,651.1L551.8,651.1"
          />
          <path
            ref="p-leaf2-22"
            className="p leaf2 hide"
            d="M554.7,655c1,1.2,1.3,2.7,0.9,4.2C554.3,657.6,554,656.1,554.7,655z"
          />
          <path
            ref="p-leaf3-22"
            className="p leaf3 hide"
            d="M554.6,655.1c0.1,2.1,3.1,3.6,4.5,3.4C558.7,657.2,556.2,654.4,554.6,655.1z"
          />
  </g>
</svg>
