<svg viewBox="0 0 850 850" xmlns="http://www.w3.org/2000/svg"><path d="m297.9 653.3-9.7-6.3 5.2-4.2 6.1 3.9z" fill="#85aa4f"/><path d="m294 650.1-4.7-3.1 3.4-3s-2.8 2.8-2.2 3.3z" fill="#729235"/><path d="m291.6 651.7c-.4.9-1.4 1.5-2.4 1.2.4-.8 1.4-1.3 2.4-1.2z" fill="#66922f"/><path d="m292.8 650c-.9 1-2.6 2.1-2.2 5 .1-1.9 1-3.7 2.5-4.8z" fill="#564f48"/><path d="m290.7 654.3c-.6 1.4-1.8 2.4-3.3 2.8.9-1.9 2-2.9 3.3-2.8z" fill="#87bc24"/><path d="m290.6 654.3c-1.8 1.1-1.8 4.4-1 5.6 1-1 2.3-4.5 1-5.6z" fill="#50752c"/></svg>