<svg ref="canvas"
  data-name="Layer 2"
  xmlns="http://www.w3.org/2000/svg"
  viewBox="0 0 850 850">
  <g ref="Baum_Klein">
          <polygon
            ref="p-pot-62"
            className="p pot hide"
            points="278.2,654.6 256.5,638.6 269.2,629.3 283,639.5"
          />
          <path
            ref="p-shadow-62"
            className="p shadow hide"
            d="M269.7,646.6l-10.6-7.8l8.4-6.6c0,0-6.9,6.3-5.7,7.4L269.7,646.6z"
          />
          <path
            ref="p-leaf1-62"
            className="p leaf1 hide"
            d="M263.7,650.2c-1.4,1.8-3,3.4-5.8,2.5C259.1,650.7,261.4,649.7,263.7,650.2z"
          />
          <path
            ref="p-stem-62"
            className="p stem hide"
            d="M266.9,646.3c-2.2,2.2-6.5,4.7-5.8,11.5c0.8-6.8,4.4-9.2,6.5-11L266.9,646.3L266.9,646.3"
          />
          <path
            ref="p-leaf2-62"
            className="p leaf2 hide"
            d="M261.3,656.1c-1.3,2.8-4.7,5.8-8.1,6C255.5,657.7,258.3,655.6,261.3,656.1z"
          />
          <path
            ref="p-leaf3-62"
            className="p leaf3 hide"
            d="M261.2,656c-4.4,2.2-4.8,10.2-3,13C260.6,666.8,264.1,658.8,261.2,656z"
          />
  </g>
</svg>
