<svg ref="canvas"
  data-name="Layer 2"
  xmlns="http://www.w3.org/2000/svg"
  viewBox="0 0 850 850">
  <g ref="Baum_Klein">
<polygon
            ref="p-pot-63"
            className="p pot hide"
            points="358.5,688.6 332.8,680.6 341.9,667.7 358.2,672.8"
          />
          <path
            ref="p-shadow-63"
            className="p shadow hide"
            d="M347.8,683.9l-12.6-4l5.8-8.9c0,0-4.5,8.2-3,8.8L347.8,683.9z"
          />
          <path
            ref="p-leaf1-63"
            className="p leaf1 hide"
            d="M343.4,689.2c-0.7,2.1-1.7,4.2-4.7,4.2C339.2,691.1,341.1,689.5,343.4,689.2z"
          />
          <path
            ref="p-stem-63"
            className="p stem hide"
            d="M345.2,684.4c-1.4,2.8-4.6,6.5-1.7,12.8c-1.4-6.8,1.2-10.1,2.5-12.5L345.2,684.4L345.2,684.4"
          />
          <path
            ref="p-leaf2-63"
            className="p leaf2 hide"
            d="M343,695.5c-0.3,3-2.6,7-5.7,8.3C338.1,698.9,340.1,696.1,343,695.5z"
          />
          <path
            ref="p-leaf3-63"
            className="p leaf3 hide"
            d="M342.9,695.5c-3.4,3.5-1.3,11.2,1.4,13.3C345.8,705.9,346.5,697.2,342.9,695.5z"
          />
  </g>
</svg>
