<svg ref="canvas"
  data-name="Layer 2"
  xmlns="http://www.w3.org/2000/svg"
  viewBox="0 0 850 850">
  <g ref="Baum_Klein">
    <polygon
            ref="p-pot-42"
            styleUid="pot"       style="fill:#85aa4f;"
            points="215.3,588.6 205.7,575.7 214.5,572.7 220.6,580.8"
          />
          <path
            ref="p-shadow-42"
            styleUid="potShadow"       style="fill:#729235;"
            d="M211.8,582.5l-4.7-6.3l5.9-2.3c0,0-4.9,2.4-4.5,3.2L211.8,582.5z"
          />
          <path
            ref="p-leaf1-42"
            styleUid="potLeaf1"       style="fill:#66922f;"
            d="M207.8,583.6c-1.1,0.8-2.3,1.5-3.7,0.4C205.1,583.1,206.6,582.9,207.8,583.6z"
          />
          <path
            ref="p-stem-42"
            styleUid="potStem"       style="fill:#564f48;"
            d="M210.3,581.9c-1.6,0.9-4.5,1.5-5.3,5.5c1-2.5,3.1-4.3,5.6-5.1L210.3,581.9L210.3,581.9"
          />
          <path
            ref="p-leaf2-42"
            styleUid="potLeaf2"       style="fill:#87bc24;"
            d="M205.4,586.5c-1.4,1.6-3.5,2.3-5.6,2C201.8,586.4,203.8,585.8,205.4,586.5z"
          />
          <path
            ref="p-leaf3-42"
            styleUid="potLeaf3"       style="fill:#50752c;"
            d="M205.3,586.4c-2.9,0.5-4.5,4.9-3.9,6.8C203.1,592.5,206.5,588.5,205.3,586.4z"
          />
  </g>
</svg>
