<svg ref="canvas"
  data-name="Layer 2"
  xmlns="http://www.w3.org/2000/svg"
  viewBox="0 0 850 850">
  <g ref="Baum_Klein">
  <polygon
            ref="p-pot-13"
            className="p pot hide"
            points="233.2,605.9 225.6,597.3 231.7,594.6 236.5,600.1"
          />
          <path
            ref="p-shadow-13"
            className="p shadow hide"
            d="M230.3,601.8l-3.7-4.2l4.1-2c0,0-3.5,2-3,2.6L230.3,601.8z"
          />
          <path
            ref="p-leaf1-13"
            className="p leaf1 hide"
            d="M227.5,602.7c-0.6,0.8-1.8,1-2.6,0.5C225.5,602.6,226.6,602.4,227.5,602.7z"
          />
          <path
            ref="p-stem-13"
            className="p stem hide"
            d="M229.2,601.4c-1.1,0.7-3.1,1.4-3.5,4.3c0.6-1.8,1.9-3.2,3.7-4L229.2,601.4L229.2,601.4"
          />
          <path
            ref="p-leaf2-13"
            className="p leaf2 hide"
            d="M226,605c-0.9,1.2-2.4,1.9-4,1.8C223.4,605.1,224.8,604.6,226,605z"
          />
          <path
            ref="p-leaf3-13"
            className="p leaf3 hide"
            d="M225.9,605c-2,0.5-3,3.8-2.4,5.1C224.7,609.4,226.9,606.4,225.9,605z"
          />
  </g>
</svg>
