<svg ref="canvas"
  data-name="Layer 2"
  xmlns="http://www.w3.org/2000/svg"
  viewBox="0 0 850 850">
  <g ref="Baum_Klein">
    <polygon
            ref="p-pot-44"
            styleUid="pot"       style="fill:#85aa4f;"
            points="315.5,667.6 301,660.7 307.5,653.9 316.6,658.2"
          />
          <path
            ref="p-shadow-44"
            styleUid="potShadow"       style="fill:#729235;"
            d="M309.6,663.9l-7.1-3.4l4.2-4.8c0,0-3.3,4.4-2.5,4.9L309.6,663.9z"
          />
          <path
            ref="p-leaf1-44"
            styleUid="potLeaf1"       style="fill:#66922f;"
            d="M306.5,666.6c-0.6,1.2-1.4,2.3-3.1,2.1C303.9,667.4,305.2,666.6,306.5,666.6z"
          />
          <path
            ref="p-stem-44"
            styleUid="potStem"       style="fill:#564f48;"
            d="M308,664c-1,1.5-3.3,3.4-2.1,7.4c-0.3-2.6,0.7-5.3,2.5-7.2L308,664L308,664"
          />
          <path
            ref="p-leaf2-44"
            styleUid="potLeaf2"       style="fill:#87bc24;"
            d="M305.8,670.3c-0.5,2.1-2.1,3.7-4.1,4.4C302.6,671.9,304.1,670.4,305.8,670.3z"
          />
          <path
            ref="p-leaf3-44"
            styleUid="potLeaf3"       style="fill:#50752c;"
            d="M305.7,670.3c-2.3,1.8-1.7,6.5-0.3,7.9C306.6,676.7,307.7,671.6,305.7,670.3z"
          />
  </g>
</svg>
