<svg viewBox="0 0 850 850" xmlns="http://www.w3.org/2000/svg"><path d="m264 633.8-9-7.1 5.5-3.8 5.7 4.5z" fill="#85aa4f"/><path d="m260.5 630.2-4.4-3.5 3.7-2.7s-3 2.6-2.5 3.1z" fill="#729235"/><path d="m257.9 631.7c-.5.9-1.6 1.3-2.5 1 .5-.9 1.5-1.3 2.5-1z" fill="#66922f"/><path d="m259.2 630c-1 .9-2.8 1.9-2.6 4.8.3-1.9 1.3-3.6 3-4.6z" fill="#564f48"/><path d="m256.7 634.2c-.7 1.3-2 2.3-3.5 2.4 1.1-1.8 2.3-2.7 3.5-2.4z" fill="#87bc24"/><path d="m256.7 634.2c-1.9.9-2.2 4.3-1.5 5.5 1-.9 2.7-4.4 1.5-5.5z" fill="#50752c"/></svg>