<svg viewBox="0 0 850 850" xmlns="http://www.w3.org/2000/svg"><path d="m233.2 605.9-7.6-8.6 6.1-2.7 4.8 5.5z" fill="#85aa4f"/><path d="m230.3 601.8-3.7-4.2 4.1-2s-3.5 2-3 2.6z" fill="#729235"/><path d="m227.5 602.7c-.6.8-1.8 1-2.6.5.6-.6 1.7-.8 2.6-.5z" fill="#66922f"/><path d="m229.2 601.4c-1.1.7-3.1 1.4-3.5 4.3.6-1.8 1.9-3.2 3.7-4z" fill="#564f48"/><path d="m226 605c-.9 1.2-2.4 1.9-4 1.8 1.4-1.7 2.8-2.2 4-1.8z" fill="#87bc24"/><path d="m225.9 605c-2 .5-3 3.8-2.4 5.1 1.2-.7 3.4-3.7 2.4-5.1z" fill="#50752c"/></svg>