<svg ref="canvas"
  data-name="Layer 2"
  xmlns="http://www.w3.org/2000/svg"
  viewBox="0 0 850 850">
  <g ref="Baum_Klein">
<polygon
            ref="p-pot-16"
            styleUid="pot"       style="fill:#85aa4f;"
            points="329.2,669.4 318.6,664.9 323,659.8 329.7,662.6"
          />
          <path
            ref="p-shadow-16"
            styleUid="potShadow"       style="fill:#729235;"
            d="M324.9,666.9l-5.2-2.2l2.8-3.6c0,0-2.2,3.3-1.6,3.6L324.9,666.9z"
          />
          <path
            ref="p-leaf1-16"
            styleUid="potLeaf1"       style="fill:#66922f;"
            d="M322.8,669c-0.2,1-1.1,1.7-2.2,1.6C320.9,669.7,321.8,669,322.8,669z"
          />
          <path
            ref="p-stem-16"
            styleUid="potStem"       style="fill:#564f48;"
            d="M323.7,667c-0.7,1.1-2.2,2.6-1.3,5.3c-0.3-1.9,0.3-3.8,1.6-5.2L323.7,667L323.7,667"
          />
          <path
            ref="p-leaf2-16"
            styleUid="potLeaf2"       style="fill:#87bc24;"
            d="M322.4,671.7c-0.3,1.5-1.4,2.7-2.8,3.3C320.1,672.9,321.1,671.8,322.4,671.7z"
          />
          <path
            ref="p-leaf3-16"
            styleUid="potLeaf3"       style="fill:#50752c;"
            d="M322.3,671.7c-1.6,1.4-1,4.7,0.1,5.7C323.1,676.2,323.8,672.5,322.3,671.7z"
          />
  </g>
</svg>
