<svg ref="canvas"
  data-name="Layer 2"
  xmlns="http://www.w3.org/2000/svg"
  viewBox="0 0 850 850">
  <g ref="Baum_Klein">
    <polygon
            ref="p-pot-14"
            className="p pot hide"
            points="264,633.8 255,626.7 260.5,622.9 266.2,627.4"
          />
          <path
            ref="p-shadow-14"
            className="p shadow hide"
            d="M260.5,630.2l-4.4-3.5l3.7-2.7c0,0-3,2.6-2.5,3.1L260.5,630.2z"
          />
          <path
            ref="p-leaf1-14"
            className="p leaf1 hide"
            d="M257.9,631.7c-0.5,0.9-1.6,1.3-2.5,1C255.9,631.8,256.9,631.4,257.9,631.7z"
          />
          <path
            ref="p-stem-14"
            className="p stem hide"
            d="M259.2,630c-1,0.9-2.8,1.9-2.6,4.8c0.3-1.9,1.3-3.6,3-4.6L259.2,630L259.2,630"
          />
          <path
            ref="p-leaf2-14"
            className="p leaf2 hide"
            d="M256.7,634.2c-0.7,1.3-2,2.3-3.5,2.4C254.3,634.8,255.5,633.9,256.7,634.2z"
          />
          <path
            ref="p-leaf3-14"
            className="p leaf3 hide"
            d="M256.7,634.2c-1.9,0.9-2.2,4.3-1.5,5.5C256.2,638.8,257.9,635.3,256.7,634.2z"
          />
  </g>
</svg>
