<svg ref="canvas"
  data-name="Layer 2"
  xmlns="http://www.w3.org/2000/svg"
  viewBox="0 0 850 850">
  <g ref="Baum_Klein">
              <polygon
            ref="p-pot-15"
            className="p pot hide"
            points="297.9,653.3 288.2,647 293.4,642.8 299.5,646.7"
          />
          <path
            ref="p-shadow-15"
            className="p shadow hide"
            d="M294,650.1l-4.7-3.1l3.4-3c0,0-2.8,2.8-2.2,3.3L294,650.1z"
          />
          <path
            ref="p-leaf1-15"
            className="p leaf1 hide"
            d="M291.6,651.7c-0.4,0.9-1.4,1.5-2.4,1.2C289.6,652.1,290.6,651.6,291.6,651.7z"
          />
          <path
            ref="p-stem-15"
            className="p stem hide"
            d="M292.8,650c-0.9,1-2.6,2.1-2.2,5c0.1-1.9,1-3.7,2.5-4.8L292.8,650L292.8,650"
          />
          <path
            ref="p-leaf2-15"
            className="p leaf2 hide"
            d="M290.7,654.3c-0.6,1.4-1.8,2.4-3.3,2.8C288.3,655.2,289.4,654.2,290.7,654.3z"
          />
          <path
            ref="p-leaf3-15"
            className="p leaf3 hide"
            d="M290.6,654.3c-1.8,1.1-1.8,4.4-1,5.6C290.6,658.9,291.9,655.4,290.6,654.3z"
          />
  </g>
</svg>
