<svg ref="canvas"
  data-name="Layer 2"
  xmlns="http://www.w3.org/2000/svg"
  viewBox="0 0 850 850">
  <g ref="Baum_Klein">
    <polygon
            ref="p-pot-11"
            styleUid="pot"       style="fill:#85aa4f;"
            points="162,406.2 163.1,394.8 169.3,397.4 168.5,404.6"
          />
          <path
            ref="p-shadow-11"
            styleUid="potShadow"       style="fill:#729235;"
            d="M163,401.4l0.6-5.6l4.2,1.7c0,0-3.8-1.2-4-0.5L163,401.4z"
          />
          <path
            ref="p-leaf1-11"
            styleUid="potLeaf1"       style="fill:#66922f;"
            d="M160.4,399.9c-1,0.1-1.9-0.6-2.2-1.6C159.2,398.4,160.1,398.9,160.4,399.9z"
          />
          <path
            ref="p-stem-11"
            styleUid="potStem"       style="fill:#564f48;"
            d="M162.6,400.2c-1.3-0.3-3.1-1.4-5.5,0.4c1.7-0.8,3.7-0.8,5.4,0L162.6,400.2L162.6,400.2"
          />
          <path
            ref="p-leaf2-11"
            styleUid="potLeaf2"       style="fill:#87bc24;"
            d="M157.7,400.4c-1.5,0.1-3-0.5-4-1.7C155.9,398.5,157.3,399.1,157.7,400.4z"
          />
          <path
            ref="p-leaf3-11"
            styleUid="potLeaf3"       style="fill:#50752c;"
            d="M157.7,400.2c-1.8-1.1-4.8,0.4-5.4,1.7C153.6,402.4,157.3,401.9,157.7,400.2z"
          />
  </g>
</svg>
