<svg viewBox="0 0 850 850" xmlns="http://www.w3.org/2000/svg"><path d="m160.9 459.7-1.3-15.9 9.2 2.1.7 10.1z" fill="#85aa4f"/><path d="m161.2 452.8-.8-7.8 6.2 1.2s-5.5-.6-5.5.3v6.3z" fill="#729235"/><path d="m157.3 451.5c-1.3.1-2.7 0-3.4-1.6 1.4-.2 2.6.4 3.4 1.6z" fill="#66922f"/><path d="m160.3 451.4c-1.8-.1-4.6-1.1-7.4 1.9 2.2-1.6 4.9-2.1 7.5-1.4z" fill="#564f48"/><path d="m153.6 452.8c-2 .6-4.2.1-5.9-1.3 2.9-.7 5.1-.2 5.9 1.3z" fill="#87bc24"/><path d="m153.6 452.7c-2.7-1.1-6.4 1.8-7 3.8 1.9.1 6.9-1.4 7-3.8z" fill="#50752c"/></svg>