<svg ref="canvas"
  data-name="Layer 2"
  xmlns="http://www.w3.org/2000/svg"
  viewBox="0 0 850 850">
  <g ref="Baum_Klein">
   <polygon
            ref="p-pot-10"
            styleUid="pot"       style="fill:#85aa4f;"
            points="165,383.3 166.9,371.9 172.9,375 171.7,382.2"
          />
          <path
            ref="p-shadow-10"
            styleUid="potShadow"       style="fill:#729235;"
            d="M166.4,378.5l0.9-5.6l4.1,2c0,0-3.7-1.4-3.9-0.7L166.4,378.5z"
          />
          <path
            ref="p-leaf1-10"
            styleUid="potLeaf1"       style="fill:#66922f;"
            d="M163.9,376.9c-1,0-1.9-0.7-2.1-1.7C162.8,375.3,163.7,376,163.9,376.9z"
          />
          <path
            ref="p-stem-10"
            styleUid="potStem"       style="fill:#564f48;"
            d="M166,377.4c-1.2-0.4-3-1.6-5.5,0c1.8-0.7,3.8-0.6,5.4,0.3L166,377.4L166,377.4"
          />
          <path
            ref="p-leaf2-10"
            styleUid="potLeaf2"       style="fill:#87bc24;"
            d="M161.2,377.1c-1.5,0-3-0.7-3.9-1.9C159.5,375.2,160.8,375.9,161.2,377.1z"
          />
          <path
            ref="p-leaf3-10"
            styleUid="potLeaf3"       style="fill:#50752c;"
            d="M161.2,377.1c-1.7-1.2-4.8,0.1-5.5,1.4C157,378.9,160.7,378.7,161.2,377.1z"
          />
  </g>
</svg>
