<svg viewBox="0 0 850 850" xmlns="http://www.w3.org/2000/svg"><path d="m178.2 525.2-5.6-15 9.4-.4 3.5 9.5z" fill="#85aa4f"/><path d="m176.6 518.5-2.7-7.4 6.3-.5s-5.5.8-5.2 1.8z" fill="#729235"/><path d="m172.4 518.3c-1.3.4-2.6.7-3.7-.7 1.3-.6 2.8-.3 3.7.7z" fill="#66922f"/><path d="m175.3 517.4c-1.8.4-4.8.2-6.7 3.8 1.7-2.1 4.2-3.3 6.8-3.3z" fill="#564f48"/><path d="m169.3 520.4c-1.8 1.1-4.1 1.2-6 .3 2.6-1.4 4.7-1.4 6-.3z" fill="#87bc24"/><path d="m169.3 520.4c-2.9-.3-5.7 3.5-5.7 5.5 1.8-.4 6.2-3.2 5.7-5.5z" fill="#50752c"/></svg>