<svg ref="canvas"
  data-name="Layer 2"
  xmlns="http://www.w3.org/2000/svg"
  viewBox="0 0 850 850">
  <g ref="Baum_Klein">
<polygon
            ref="p-pot-12"
            styleUid="pot"       style="fill:#85aa4f;"
            points="192.2,548.4 187,538.2 193.7,537.1 196.9,543.6"
          />
          <path
            ref="p-shadow-12"
            styleUid="potShadow"       style="fill:#729235;"
            d="M190.5,543.8l-2.5-5l4.5-0.9c0,0-3.8,1.1-3.6,1.7L190.5,543.8z"
          />
          <path
            ref="p-leaf1-12"
            styleUid="potLeaf1"       style="fill:#66922f;"
            d="M187.5,544c-0.8,0.6-2,0.5-2.7-0.2C185.7,543.3,186.8,543.3,187.5,544z"
          />
          <path
            ref="p-stem-12"
            styleUid="potStem"       style="fill:#564f48;"
            d="M189.5,543.1c-1.2,0.4-3.4,0.5-4.4,3.3c1-1.6,2.7-2.7,4.6-3L189.5,543.1L189.5,543.1"
          />
          <path
            ref="p-leaf2-12"
            styleUid="potLeaf2"       style="fill:#87bc24;"
            d="M185.5,545.7c-1.2,0.9-2.8,1.2-4.2,0.7C183,545.2,184.4,545,185.5,545.7z"
          />
          <path
            ref="p-leaf3-12"
            styleUid="potLeaf3"       style="fill:#50752c;"
            d="M185.4,545.7c-2.1,0-3.8,3-3.6,4.4C183.1,549.7,186,547.3,185.4,545.7z"
          />
  </g>
</svg>
