<svg ref="canvas"
  data-name="Layer 2"
  xmlns="http://www.w3.org/2000/svg"
  viewBox="0 0 850 850">
  <g ref="Baum_Klein">
    <polygon
            ref="p-pot-39"
            styleUid="pot"       style="fill:#85aa4f;"
            points="170.8,346.7 175.8,331.5 183.4,337 180.2,346.6"
          />
          <path
            ref="p-shadow-39"
            styleUid="potShadow"       style="fill:#729235;"
            d="M173.7,340.4l2.5-7.5l5.3,3.5c0,0-4.8-2.7-5.2-1.8L173.7,340.4z"
          />
          <path
            ref="p-leaf1-39"
            styleUid="potLeaf1"       style="fill:#66922f;"
            d="M170.6,337.7c-1.3-0.4-2.5-1-2.5-2.8C169.5,335.2,170.5,336.3,170.6,337.7z"
          />
          <path
            ref="p-stem-39"
            styleUid="potStem"       style="fill:#564f48;"
            d="M173.4,338.8c-1.6-0.8-3.8-2.8-7.6-1.1c2.6-0.6,5.3,0,7.4,1.6L173.4,338.8L173.4,338.8"
          />
          <path
            ref="p-leaf2-39"
            styleUid="potLeaf2"       style="fill:#87bc24;"
            d="M166.8,337.4c-2.1-0.3-4-1.6-4.9-3.5C164.8,334.5,166.5,335.7,166.8,337.4z"
          />
          <path
            ref="p-leaf3-39"
            styleUid="potLeaf3"       style="fill:#50752c;"
            d="M166.9,337.4c-2.1-2.1-6.6-0.8-7.9,0.7C160.6,339,165.8,339.5,166.9,337.4z"
          />
  </g>
</svg>
