<svg ref="canvas"
  data-name="Layer 2"
  xmlns="http://www.w3.org/2000/svg"
  viewBox="0 0 850 850">
  <g ref="Baum_Klein">
              <polygon
            ref="p-pot-41"
            className="p pot hide"
            points="178.2,525.2 172.6,510.2 182,509.8 185.5,519.3"
          />
          <path
            ref="p-shadow-41"
            className="p shadow hide"
            d="M176.6,518.5l-2.7-7.4l6.3-0.5c0,0-5.5,0.8-5.2,1.8L176.6,518.5z"
          />
          <path
            ref="p-leaf1-41"
            className="p leaf1 hide"
            d="M172.4,518.3c-1.3,0.4-2.6,0.7-3.7-0.7C170,517,171.5,517.3,172.4,518.3z"
          />
          <path
            ref="p-stem-41"
            className="p stem hide"
            d="M175.3,517.4c-1.8,0.4-4.8,0.2-6.7,3.8c1.7-2.1,4.2-3.3,6.8-3.3L175.3,517.4L175.3,517.4"
          />
          <path
            ref="p-leaf2-41"
            className="p leaf2 hide"
            d="M169.3,520.4c-1.8,1.1-4.1,1.2-6,0.3C165.9,519.3,168,519.3,169.3,520.4z"
          />
          <path
            ref="p-leaf3-41"
            className="p leaf3 hide"
            d="M169.3,520.4c-2.9-0.3-5.7,3.5-5.7,5.5C165.4,525.5,169.8,522.7,169.3,520.4z"
          />
  </g>
</svg>
