<svg ref="canvas"
  data-name="Layer 2"
  xmlns="http://www.w3.org/2000/svg"
  viewBox="0 0 850 850">
  <g ref="Baum_Klein">
    <polygon
            ref="p-pot-56"
            className="p pot hide"
            points="227.8,236.5 247.7,218.2 254.2,232.4 241.7,244.1"
          />
          <path
            ref="p-shadow-56"
            className="p shadow hide"
            d="M237.2,229.5l9.7-8.9l4.8,9.5c0,0-4.9-8-6.2-7L237.2,229.5z"
          />
          <path
            ref="p-leaf1-56"
            className="p leaf1 hide"
            d="M234.9,223.1c-1.5-1.7-2.7-3.6-1.3-6.2C235.3,218.5,235.8,220.9,234.9,223.1z"
          />
          <path
            ref="p-stem-56"
            className="p stem hide"
            d="M238.1,226.9c-1.7-2.6-3.3-7.3-10.2-7.9c6.5,2.1,8.2,6.1,9.6,8.5L238.1,226.9L238.1,226.9"
          />
          <path
            ref="p-leaf2-56"
            className="p leaf2 hide"
            d="M229.6,219.5c-2.4-1.8-4.8-5.7-4.3-9.1C229.1,213.5,230.4,216.7,229.6,219.5z"
          />
          <path
            ref="p-leaf3-56"
            className="p leaf3 hide"
            d="M229.7,219.4c-1.4-4.7-9.1-6.7-12.2-5.3C219.1,216.8,226.3,221.8,229.7,219.4z"
          />
  </g>
</svg>
