<svg viewBox="0 0 850 850" xmlns="http://www.w3.org/2000/svg"><path d="m306.6 189.6 10.3-5 1 6.6-6.6 3.2z" fill="#85aa4f"/><path d="m311.3 188 5.1-2.5.8 4.5s-1-3.9-1.7-3.6z" fill="#729235"/><path d="m311.1 185c-.6-.8-.5-2 .2-2.7.5.9.4 1.9-.2 2.7z" fill="#66922f"/><path d="m311.9 187c-.4-1.2-.5-3.4-3.2-4.5 1.6 1 2.6 2.7 2.9 4.6z" fill="#564f48"/><path d="m309.3 182.9c-.9-1.2-1.2-2.8-.7-4.2 1.3 1.7 1.5 3.2.7 4.2z" fill="#87bc24"/><path d="m309.4 182.9c0-2.1-2.9-3.8-4.3-3.7.3 1.4 2.7 4.3 4.3 3.7z" fill="#50752c"/></svg>