<svg viewBox="0 0 850 850" xmlns="http://www.w3.org/2000/svg"><path d="m271.7 207.7 13.2-9 2.7 8.9-8.4 5.8z" fill="#85aa4f"/><path d="m277.8 204.5 6.5-4.4 2 6s-2.2-5.1-3-4.6z" fill="#729235"/><path d="m277 200.4c-.7-1.1-1.3-2.3-.3-3.8.9 1.2 1 2.7.3 3.8z" fill="#66922f"/><path d="m278.5 203c-.8-1.6-1.3-4.6-5.3-5.5 2.4 1.1 4.2 3.2 4.9 5.8z" fill="#564f48"/><path d="m274.1 197.9c-1.5-1.5-2.2-3.6-1.8-5.7 2.1 2.2 2.6 4.2 1.8 5.7z" fill="#87bc24"/><path d="m274.2 197.9c-.4-2.9-4.8-4.7-6.7-4.2.7 1.7 4.5 5.3 6.7 4.2z" fill="#50752c"/></svg>