<svg viewBox="0 0 850 850" xmlns="http://www.w3.org/2000/svg"><path d="m292.4 197.4 10-5.7 1.4 6.6-6.4 3.6z" fill="#85aa4f"/><path d="m297 195.4 4.9-2.8 1.1 4.4s-1.2-3.8-1.9-3.5z" fill="#729235"/><path d="m296.6 192.5c-.6-.8-.6-1.9 0-2.7.6.8.6 1.9 0 2.7z" fill="#66922f"/><path d="m297.6 194.4c-.5-1.2-.7-3.3-3.5-4.3 1.7.9 2.8 2.6 3.1 4.4z" fill="#564f48"/><path d="m294.9 190.5c-1-1.2-1.3-2.7-.9-4.2 1.2 1.7 1.4 3.1.9 4.2z" fill="#87bc24"/><path d="m294.9 190.5c-.1-2.1-3.1-3.7-4.5-3.4.4 1.3 2.8 4 4.5 3.4z" fill="#50752c"/></svg>