<svg ref="canvas"
  data-name="Layer 2"
  xmlns="http://www.w3.org/2000/svg"
  viewBox="0 0 850 850">
  <g ref="Baum_Klein">
    <polygon
            ref="p-pot-06"
            className="p pot hide"
            points="254.4,223.7 263.5,216.6 265.8,222.8 260.1,227.4"
          />
          <path
            ref="p-shadow-06"
            className="p shadow hide"
            d="M258.8,221.1l4.4-3.5l1.8,4.2c0,0-1.8-3.5-2.4-3.2L258.8,221.1z"
          />
          <path
            ref="p-leaf1-06"
            className="p leaf1 hide"
            d="M258,218.3c-0.8-0.7-0.9-1.8-0.4-2.7C258.2,216.3,258.3,217.4,258,218.3z"
          />
          <path
            ref="p-stem-06"
            className="p stem hide"
            d="M259.1,220c-0.7-1.1-1.2-3.2-4.1-3.7c1.8,0.7,3.2,2.1,3.8,3.9L259.1,220L259.1,220"
          />
          <path
            ref="p-leaf2-06"
            className="p leaf2 hide"
            d="M255.7,216.6c-1.2-1-1.7-2.5-1.6-4C255.7,214,256.2,215.4,255.7,216.6z"
          />
          <path
            ref="p-leaf3-06"
            className="p leaf3 hide"
            d="M255.7,216.6c-0.4-2-3.7-3.1-5-2.7C251.4,215.1,254.3,217.4,255.7,216.6z"
          />
  </g>
</svg>
