<svg ref="canvas"
  data-name="Layer 2"
  xmlns="http://www.w3.org/2000/svg"
  viewBox="0 0 850 850">
  <g ref="Baum_Klein">
    <polygon
            ref="p-pot-04"
            className="p pot hide"
            points="292.4,197.4 302.4,191.7 303.8,198.3 297.4,201.9"
          />
          <path
            ref="p-shadow-04"
            className="p shadow hide"
            d="M297,195.4l4.9-2.8l1.1,4.4c0,0-1.2-3.8-1.9-3.5L297,195.4z"
          />
          <path
            ref="p-leaf1-04"
            className="p leaf1 hide"
            d="M296.6,192.5c-0.6-0.8-0.6-1.9,0-2.7C297.2,190.6,297.2,191.7,296.6,192.5z"
          />
          <path
            ref="p-stem-04"
            className="p stem hide"
            d="M297.6,194.4c-0.5-1.2-0.7-3.3-3.5-4.3c1.7,0.9,2.8,2.6,3.1,4.4L297.6,194.4L297.6,194.4"
          />
          <path
            ref="p-leaf2-04"
            className="p leaf2 hide"
            d="M294.9,190.5c-1-1.2-1.3-2.7-0.9-4.2C295.2,188,295.4,189.4,294.9,190.5z"
          />
          <path
            ref="p-leaf3-04"
            className="p leaf3 hide"
            d="M294.9,190.5c-0.1-2.1-3.1-3.7-4.5-3.4C290.8,188.4,293.2,191.1,294.9,190.5z"
          />
  </g>
</svg>
