<svg ref="canvas"
  data-name="Layer 2"
  xmlns="http://www.w3.org/2000/svg"
  viewBox="0 0 850 850">
  <g ref="Baum_Klein">
    <polygon
            ref="p-pot-08"
            className="p pot hide"
            points="203.7,281.8 210.3,272.3 214.3,277.7 210.1,283.7"
          />
          <path
            ref="p-shadow-08"
            className="p shadow hide"
            d="M207,278l3.2-4.6l2.9,3.5c0,0-2.7-2.9-3.2-2.4L207,278z"
          />
          <path
            ref="p-leaf1-08"
            className="p leaf1 hide"
            d="M205.4,275.5c-0.9-0.4-1.4-1.5-1.1-2.5C205.2,273.6,205.6,274.5,205.4,275.5z"
          />
          <path
            ref="p-stem-08"
            className="p stem hide"
            d="M207.1,276.9c-1-0.9-2-2.7-4.9-2.4c1.9,0.1,3.6,1.1,4.8,2.7L207.1,276.9L207.1,276.9"
          />
          <path
            ref="p-leaf2-08"
            className="p leaf2 hide"
            d="M202.9,274.6c-1.4-0.6-2.4-1.9-2.6-3.4C202.1,272.1,203,273.3,202.9,274.6z"
          />
          <path
            ref="p-leaf3-08"
            className="p leaf3 hide"
            d="M202.9,274.5c-1-1.8-4.4-2-5.6-1.1C198.3,274.4,201.7,275.8,202.9,274.5z"
          />
  </g>
</svg>
