<svg ref="canvas"
  data-name="Layer 2"
  xmlns="http://www.w3.org/2000/svg"
  viewBox="0 0 850 850">
  <g ref="Baum_Klein">
   <polygon
            ref="p-pot-09"
            className="p pot hide"
            points="181.2,324.5 185.8,314 190.8,318.4 187.9,325"
          />
          <path
            ref="p-shadow-09"
            className="p shadow hide"
            d="M183.7,320.2l2.3-5.1l3.5,2.9c0,0-3.3-2.3-3.6-1.7L183.7,320.2z"
          />
          <path
            ref="p-leaf1-09"
            className="p leaf1 hide"
            d="M181.7,318c-1-0.2-1.7-1.2-1.6-2.2C181,316.2,181.7,317,181.7,318z"
          />
          <path
            ref="p-stem-09"
            className="p stem hide"
            d="M183.6,319c-1.1-0.7-2.5-2.3-5.3-1.3c1.9-0.2,3.8,0.4,5.1,1.7L183.6,319L183.6,319"
          />
          <path
            ref="p-leaf2-09"
            className="p leaf2 hide"
            d="M179,317.5c-1.5-0.3-2.7-1.4-3.3-2.8C177.8,315.4,178.9,316.2,179,317.5z"
          />
          <path
            ref="p-leaf3-09"
            className="p leaf3 hide"
            d="M179,317.5c-1.3-1.6-4.7-1.1-5.7,0C174.5,318.2,178.1,319,179,317.5z"
          />
  </g>
</svg>
