<svg ref="canvas"
  data-name="Layer 2"
  xmlns="http://www.w3.org/2000/svg"
  viewBox="0 0 850 850">
  <g ref="Baum_Klein">
    <polygon
            ref="p-pot-07"
            className="p pot hide"
            points="216.5,263.8 223.6,254.8 227.4,260.4 222.8,266.1"
          />
          <path
            ref="p-shadow-07"
            className="p shadow hide"
            d="M220,260.3l3.5-4.4l2.7,3.7c0,0-2.6-3.1-3.1-2.5L220,260.3z"
          />
          <path
            ref="p-leaf1-07"
            className="p leaf1 hide"
            d="M218.6,257.7c-0.9-0.5-1.3-1.6-1-2.5C218.4,255.7,218.8,256.7,218.6,257.7z"
          />
          <path
            ref="p-stem-07"
            className="p stem hide"
            d="M220.2,259.1c-0.9-1-1.9-2.8-4.8-2.7c1.9,0.3,3.6,1.3,4.6,3L220.2,259.1L220.2,259.1"
          />
          <path
            ref="p-leaf2-07"
            className="p leaf2 hide"
            d="M216.1,256.6c-1.3-0.7-2.3-2-2.4-3.5C215.5,254.1,216.3,255.3,216.1,256.6z"
          />
          <path
            ref="p-leaf3-07"
            className="p leaf3 hide"
            d="M216.1,256.5c-0.9-1.9-4.3-2.2-5.5-1.5C211.5,256.1,214.9,257.7,216.1,256.5z"
          />
  </g>
</svg>
