<svg viewBox="0 0 850 850" xmlns="http://www.w3.org/2000/svg"><path d="m179 308.4 12.7-23.7 11 11.3-8.2 15.1z" fill="#85aa4f"/><path d="m185.7 298.8 6.2-11.6 7.7 7.4s-7.2-6-8.1-4.6z" fill="#729235"/><path d="m181.3 293.4c-2-1.1-3.8-2.5-3.2-5.4 2.1.9 3.3 3.1 3.2 5.4z" fill="#66922f"/><path d="m185.5 296.1c-2.4-1.9-5.5-5.8-12.2-4.2 6.9-.1 9.7 3.1 11.8 4.9z" fill="#564f48"/><path d="m175.1 291.9c-3-.9-6.4-3.9-7.1-7.2 4.6 1.6 7.1 4.2 7.1 7.2z" fill="#87bc24"/><path d="m175.2 291.7c-2.9-4.1-10.8-3.3-13.3-1.1 2.4 2.1 10.9 4.4 13.3 1.1z" fill="#50752c"/></svg>