<svg viewBox="0 0 850 850" xmlns="http://www.w3.org/2000/svg"><path d="m254.4 223.7 9.1-7.1 2.3 6.2-5.7 4.6z" fill="#85aa4f"/><path d="m258.8 221.1 4.4-3.5 1.8 4.2s-1.8-3.5-2.4-3.2z" fill="#729235"/><path d="m258 218.3c-.8-.7-.9-1.8-.4-2.7.6.7.7 1.8.4 2.7z" fill="#66922f"/><path d="m259.1 220c-.7-1.1-1.2-3.2-4.1-3.7 1.8.7 3.2 2.1 3.8 3.9z" fill="#564f48"/><path d="m255.7 216.6c-1.2-1-1.7-2.5-1.6-4 1.6 1.4 2.1 2.8 1.6 4z" fill="#87bc24"/><path d="m255.7 216.6c-.4-2-3.7-3.1-5-2.7.7 1.2 3.6 3.5 5 2.7z" fill="#50752c"/></svg>