<svg viewBox="0 0 850 850" xmlns="http://www.w3.org/2000/svg"><path d="m320 173.5 25.4-8.9.5 15.7-16.1 5.7z" fill="#85aa4f"/><path d="m331.4 171 12.4-4.4.7 10.6s-1.3-9.3-2.9-8.9z" fill="#729235"/><path d="m331.8 164c-.7-2.1-1.1-4.4 1.2-6.2.9 2.1.5 4.6-1.2 6.2z" fill="#66922f"/><path d="m333.2 168.9c-.6-3-.2-8-6.3-11.3 5.2 4.6 5.1 8.8 5.5 11.6z" fill="#564f48"/><path d="m328.3 158.7c-1.6-2.6-2.1-7.2-.4-10.1 2.3 4.4 2.4 7.9.4 10.1z" fill="#87bc24"/><path d="m328.4 158.7c.6-4.9-5.7-9.7-9.1-9.8.5 3.2 5.1 10.6 9.1 9.8z" fill="#50752c"/></svg>