<svg ref="canvas"
  data-name="Layer 2"
  xmlns="http://www.w3.org/2000/svg"
  viewBox="0 0 850 850">
  <g ref="Baum_Klein">
    <polygon
            ref="p-pot-36"
            styleUid="pot"       style="fill:#85aa4f;"
            points="392.8,160.7 408.7,159.2 406.7,168.3 396.6,169.3"
          />
          <path
            ref="p-shadow-36"
            styleUid="potShadow"       style="fill:#729235;"
            d="M399.7,160.9l7.8-0.8l-1.1,6.2c0,0,0.6-5.5-0.4-5.5L399.7,160.9z"
          />
          <path
            ref="p-leaf1-36"
            styleUid="potLeaf1"       style="fill:#66922f;"
            d="M401,156.9c-0.1-1.3,0-2.7,1.6-3.4C402.8,154.9,402.1,156.2,401,156.9z"
          />
          <path
            ref="p-stem-36"
            styleUid="potStem"       style="fill:#564f48;"
            d="M401.1,159.9c0.1-1.8,1-4.6-2-7.4c1.6,2.1,2.1,4.9,1.5,7.4H401.1L401.1,159.9"
          />
          <path
            ref="p-leaf2-36"
            styleUid="potLeaf2"       style="fill:#87bc24;"
            d="M399.7,153.3c-0.6-2.1-0.2-4.3,1.2-5.9C401.6,150.4,401.1,152.4,399.7,153.3z"
          />
          <path
            ref="p-leaf3-36"
            styleUid="potLeaf3"       style="fill:#50752c;"
            d="M399.8,153.3c1-2.7-1.9-6.4-3.8-6.9C395.7,148.3,397.4,153.2,399.8,153.3z"
          />
  </g>
</svg>
