<svg viewBox="0 0 850 850" xmlns="http://www.w3.org/2000/svg"><path d="m348.8 169.7 15.4-4.1-.4 9.3-9.8 2.6z" fill="#85aa4f"/><path d="m355.6 168.7 7.6-2-.1 6.3s-.3-5.6-1.3-5.4z" fill="#729235"/><path d="m356.2 164.6c-.3-1.3-.5-2.7 1-3.6.4 1.3 0 2.7-1 3.6z" fill="#66922f"/><path d="m356.9 167.6c-.2-1.8.3-4.7-3.2-7 1.9 1.9 2.9 4.5 2.7 7.1z" fill="#564f48"/><path d="m354.4 161.3c-.9-1.9-.8-4.2.2-6 1.3 2.7 1 4.8-.2 6z" fill="#87bc24"/><path d="m354.5 161.3c.6-2.9-2.9-6-4.9-6.2 0 1.8 2.5 6.4 4.9 6.2z" fill="#50752c"/></svg>