<svg ref="canvas"
  data-name="Layer 2"
  xmlns="http://www.w3.org/2000/svg"
  viewBox="0 0 850 850">
  <g ref="Baum_Klein">
    <polygon
            ref="p-pot-03"
            className="p pot hide"
            points="374.4,166.2 385.7,164.2 384.8,170.9 377.6,172.1"
          />
          <path
            ref="p-shadow-03"
            className="p shadow hide"
            d="M379.4,165.9l5.5-1l-0.4,4.5c0,0,0.1-4-0.6-4L379.4,165.9z"
          />
          <path
            ref="p-leaf1-03"
            className="p leaf1 hide"
            d="M380,163c-0.3-1,0.1-2,1-2.5C381.2,161.4,380.8,162.4,380,163z"
          />
          <path
            ref="p-stem-03"
            className="p stem hide"
            d="M380.3,165.1c0-1.3,0.5-3.4-1.8-5.2c1.3,1.4,1.8,3.4,1.5,5.2H380.3L380.3,165.1"
          />
          <path
            ref="p-leaf2-03"
            className="p leaf2 hide"
            d="M378.9,160.5c-0.5-1.4-0.3-3,0.5-4.3C380.1,158.2,379.9,159.8,378.9,160.5z"
          />
          <path
            ref="p-leaf3-03"
            className="p leaf3 hide"
            d="M379,160.5c0.6-2-1.7-4.5-3.1-4.7C375.8,157.1,377.2,160.6,379,160.5z"
          />
  </g>
</svg>
