<svg xmlns="http://www.w3.org/2000/svg" width="338.201" height="388.504" viewBox="0 0 338.201 388.504">
  <g id="Group_2143" data-name="Group 2143" transform="translate(-6793.009 -5505.08)">
    <rect id="Rectangle_1142" data-name="Rectangle 1142" width="200" height="187" transform="translate(6844.97 5700.58)" fill="#89b53a"/>
    <rect id="Rectangle_1143" data-name="Rectangle 1143" width="42" height="198.084" transform="translate(6923.969 5695.5)" fill="#3f3d56"/>
    <path id="Path_3520" data-name="Path 3520" d="M1042.748,592.653c-1.075,17.64-24.9,30.542-24.9,30.542s-22.086-15.7-21.011-33.34,24.9-30.542,24.9-30.542S1043.823,575.013,1042.748,592.653Z" transform="translate(6043.108 5090.5)" fill="#3f3d56"/>
    <path id="Path_3521" data-name="Path 3521" d="M1043.828,647.692c-17.644-1.02-30.619-24.808-30.619-24.808s15.63-22.135,33.274-21.115,30.619,24.808,30.619,24.808S1061.471,648.712,1043.828,647.692Z" transform="translate(6043.108 5090.5)" fill="#3f3d56"/>
    <path id="Path_3522" data-name="Path 3522" d="M889.97,564v65.28l-64.93-85.7H874.5Z" transform="translate(6155 5157)" opacity="0.1"/>
    <rect id="Rectangle_1144" data-name="Rectangle 1144" width="240" height="41" transform="translate(6986.274 5619.403) rotate(52.85)" fill="#a1c468"/>
    <rect id="Rectangle_1145" data-name="Rectangle 1145" width="43" height="43" transform="translate(7045.939 5694.012) rotate(52.85)" fill="#3f3d56"/>
    <g id="Group_50" data-name="Group 50" transform="translate(3518.009 4574.08)">
      <g id="undraw_Gardening_eaf3" transform="translate(3275 931)">
        <path id="Path_757" data-name="Path 757" d="M418.259,602.735h-4.821V643.5s31.118,10.081,61.36,0V602.735Z" transform="translate(-368.323 -487.904)" fill="#3f3d56"/>
        <ellipse id="Ellipse_79" data-name="Ellipse 79" cx="30.242" cy="4.602" rx="30.242" ry="4.602" transform="translate(45.115 110.449)" fill="#3f3d56"/>
        <ellipse id="Ellipse_80" data-name="Ellipse 80" cx="30.242" cy="4.602" rx="30.242" ry="4.602" transform="translate(45.115 110.449)" opacity="0.1"/>
        <path id="Path_758" data-name="Path 758" d="M572.218,130.735c-7.629,28.2-33.76,45.669-33.76,45.669s-13.762-28.257-6.133-56.459,33.76-45.668,33.76-45.668S579.847,102.534,572.218,130.735Z" transform="translate(-461.707 -64.604)" fill="#87b738"/>
        <path id="Path_759" data-name="Path 759" d="M384.027,130.735c7.63,28.2,33.761,45.669,33.761,45.669s13.762-28.257,6.133-56.459-33.76-45.668-33.76-45.668S376.4,102.534,384.027,130.735Z" transform="translate(-342.92 -64.604)" fill="rgba(135,183,56,0.5)"/>
        <path id="Path_760" data-name="Path 760" d="M239.039,238.616c20.934,20.379,23.491,51.705,23.491,51.705s-31.384-1.714-52.318-22.092-23.491-51.705-23.491-51.705S218.105,218.238,239.039,238.616Z" transform="translate(-186.721 -178.545)" fill="#87b738"/>
        <path id="Path_761" data-name="Path 761" d="M591.179,238.616c-20.934,20.379-23.491,51.705-23.491,51.705s31.383-1.714,52.317-22.092S643.5,216.524,643.5,216.524,612.113,218.238,591.179,238.616Z" transform="translate(-491.879 -178.545)" fill="#87b738"/>
        <circle id="Ellipse_81" data-name="Ellipse 81" cx="9.642" cy="9.642" r="9.642" transform="translate(66.152 0)" fill="rgba(135,183,56,0.54)"/>
        <path id="Path_762" data-name="Path 762" d="M276.634,397.175a7.846,7.846,0,0,0,3.059,3.99,6.692,6.692,0,0,0-2.476-8.985A7.847,7.847,0,0,0,276.634,397.175Z" transform="translate(-258.58 -319.247)" fill="rgba(135,183,56,0.57)"/>
        <path id="Path_763" data-name="Path 763" d="M340.8,470.915a7.842,7.842,0,0,0,.478,5.005,6.691,6.691,0,0,0,2.665-8.93A7.846,7.846,0,0,0,340.8,470.915Z" transform="translate(-309.953 -379.171)" fill="rgba(135,183,56,0.57)"/>
      </g>
    </g>
  </g>
</svg>
