<svg
  ref="canvas"
  data-name="Layer 2"
  xmlns="http://www.w3.org/2000/svg"
  viewBox="0 0 850 850"
>
  <g ref="Cloud2">
    <path
      ref="Cloud01"
      style="fill:#ffffff;stroke:#cac9ca"
      d="M126.6,384.3c5.6-5.9,5.4-17.5-4.4-18.6s-8.6,11.8-7.6,12.9c-4-0.4-11.8,6.5-11,15.6c1.8,13.6,6.5,14.5,8.5,14.1c-1.2,4.6-0.4,10.2,5.6,8.7c-3.2,4.3-1.2,8.6,3,8.3c4.2-0.4,6.5-6.3,3-9.7c2.1-3.1,5.2-7,0.3-12.4C127.4,400.6,131.8,393.1,126.6,384.3z"
    />
    <path
      ref="Cloud02"
      style="fill:#ffffff;stroke:#cac9ca"
      d="M147.1,293.5c4.5-2.2,6.8-8.7,1.5-11.5c-5.4-2.7-7.4,4.9-7.1,5.7c-2.2-1-8.1,1.1-9.6,6.5c-1.9,8.2,0.6,9.7,1.8,9.8c-1.7,2.4-2.4,5.7,1.3,6.2c-2.7,1.8-2.5,4.7-0.1,5.3c2.4,0.7,5-2.2,3.8-4.9c1.9-1.3,4.4-2.8,2.8-7C144.1,302.9,148.2,299.5,147.1,293.5z"
    />
    <path
      ref="Cloud03"
      style="fill:#ffffff;stroke:#cac9ca"
      d="M289.5,149.6c4.9,1,10.6-2.9,8.1-8.2s-8.8-0.6-9.1,0.2c-1.1-2.2-7.1-3.9-11.6-0.6c-6.4,5.4-5.3,8-4.5,8.8c-2.7,0.9-5.4,3.1-2.7,5.7c-3.3-0.2-4.8,2.2-3.2,4.1c1.6,1.9,5.4,1.2,6-1.6c2.3,0.1,5.3,0.4,6.5-3.9C281.4,155.3,286.7,155.1,289.5,149.6z"
    />
    <path
      ref="Cloud03"
      style="fill:#ffffff;stroke:#cac9ca"
      d="M599,177.6c1.1,5.9,8.7,9.4,12.8,3.8c2.2-3.6-0.3-9.3-6-8.8c2.6-4.9,0.4-9.7-4.9-11.9c-3.5-1.4-7.9-1.4-9.1,2c-2-4.8-5.9-4.2-6.9-0.4c-1.4-3.1-5.8-2.8-6.9-0.3c-1,2.4,1.5,5.5,4.4,4.6c1.7,1.5,2.3,5,6.8,3.9C589,173.9,591.1,178.2,599,177.6z"
    />
    <path
      ref="Cloud04"
      style="fill:#ffffff;stroke:#cac9ca"
      d="M732.4,439.2c-2.8,4.2-1.3,11.2,4.7,10.8s3.9-8.1,3.2-8.6c2.4-0.2,6.4-5.3,4.9-10.7c-2.6-8.1-5.5-8.1-6.7-7.6c0.2-2.9-0.9-6.2-4.3-4.7c1.4-3-0.3-5.4-2.7-4.6s-3.2,4.5-0.8,6.2c-0.9,2.2-2.4,4.8,1.2,7.5C730,429.4,728.2,434.6,732.4,439.2z"
    />
    <path
      ref="Cloud05"
      style="fill:#ffffff;stroke:#cac9ca"
      d="M586.9,672.6c-4.1-0.1-8.3,3.9-5.5,7.8c2.8,4,7.2-0.8,7.3-1.5c1.2,1.6,6.3,2.2,9.5-1.1c4.4-5.3,3.2-7.2,2.4-7.8c2.1-1.1,3.9-3.3,1.3-5c2.6-0.3,3.6-2.4,2.1-3.9c-1.6-1.4-4.5-0.3-4.6,2.2c-1.9,0.3-4.3,0.4-4.7,4C592.6,667,588.3,667.8,586.9,672.6z"
    />
    <path
      ref="Cloud06"
      style="fill:#ffffff;stroke:#cac9ca"
      d="M298.9,698.3c-1.9-3.5-7.2-5.1-9.2-0.7c-2,4.3,4.1,5.7,4.8,5.4c-0.8,1.8,1.2,6.4,5.5,7.3c6.6,1.1,7.6-0.8,7.7-1.8c2,1.2,4.6,1.7,4.8-1.3c1.5,2.1,3.9,1.8,4.2-0.2c0.4-2-2-3.9-4-2.8c-1.1-1.4-2.4-3.4-5.6-2C306.5,700.4,303.7,697.3,298.9,698.3z"
    />
    <path
      ref="Cloud07"
      style="fill:#ffffff;stroke:#cac9ca"
      d="M198.6,625.4c-0.9-5-6.9-9.2-11-4.6c-4.2,4.5,2.8,8.7,3.8,8.6c-1.6,1.9-1.1,8.4,3.9,11.3c7.6,4.1,9.8,2.1,10.3,0.9c1.9,2.3,5,4,6.5,0.4c1,3.2,4,3.8,5.2,1.5c1.3-2.3-0.8-5.6-3.9-5.1c-0.8-2.2-1.6-5.2-6.2-4.7C207.1,631,204.8,626,198.6,625.4z"
    />
  </g>
</svg>
