<svg ref="canvas"
  data-name="Layer 2"
  xmlns="http://www.w3.org/2000/svg"
  viewBox="0 0 850 850">
  <g ref="Baum_Klein">
    <path
      ref="t-crown-01"
      style="fill:#66922e"
      className="t crown hide"
      d="M525.1,174.1c-2,4.6-7.5,6.7-12.1,4.7c-4.6-2-6.7-7.5-4.7-12.1s7.5-6.7,12.1-4.7C525.1,164.1,527.1,169.5,525.1,174.1L525.1,174.1z"
    />
    <path
      ref="t-shadow-01"
      style="fill:#50742b"
      className="t shadow hide"
      d="M512.7,162.1c-2.3,3.3-3.1,8.1,0,11.4c3.1,3.3,8.2,4.6,11.5,2.1c-2.9,4.1-8.6,5.1-12.7,2.2c-3.5-2.4-4.8-6.9-3.3-10.8C509,164.8,510.6,163.1,512.7,162.1z"
    />
    <path
      id="Stamm-01"
      ref="t-stem-01"
      style="fill:#2e411c"
      data-seq="01"
      className="t stem hide"
      d="M512.4,182.2l2.7-6.1l5.3-2.6l-1.5-0.7l-2.9,1.1l1.8-4.1l-1.7,0.1l-2.1,4.8l-1.7-2.8l-1.5,0.8l1.6,3.5c0,0-0.8,1.7-2.2,4.8C508.8,184.2,511.2,184.9,512.4,182.2z"
    />
  </g>
</svg>
