<svg viewBox="0 0 505.46 508.42" xmlns="http://www.w3.org/2000/svg"><g transform="translate(-.27 -1.79)"><path d="m337.6 424-6.1 16.19-26.8-44.21-12.26-55.88 47.69-5 4 33zm-88.6 9.28-6.72 17.78-27.64-45.65-12.26-55.72 49.16-5.16 4 32.86zm256.68-274-2.39-22.9a6.54 6.54 0 0 0 -2.4-4.44 6.64 6.64 0 0 0 -4.15-1.46q-.35 0-.69 0l-44 4.64c-6.82-5.36-14.68-7.81-21.36-8.95-.12-6.67-1.71-22-12.83-34.63-7.75-8.77-18.6-14-31.41-15.24-2.23-13.51-7.25-26.07-14.19-35.44l-.26-2.3 7.24-.76a6.58 6.58 0 0 0 5.86-7.24l-2.4-22.87a6.54 6.54 0 0 0 -2.4-4.44 6.64 6.64 0 0 0 -4.15-1.46h-.69l-68.63 7.21a6.61 6.61 0 0 0 -5.83 7.27l1 9.85-1.34.6-12.66-13.16a6.61 6.61 0 0 0 -4.74-2c-.23 0-.46 0-.69 0l-23.17 2.44a6.69 6.69 0 0 0 -4.4 2.41 6.58 6.58 0 0 0 -1.43 4.83l.46 4.35.49 4.87c-.67 0-1.35.06-2 .11l-5.52-10.95a6.54 6.54 0 0 0 -5.93-3.62h-.69l-24.23 2.53a6.63 6.63 0 0 0 -5.68 4.85l-4.68 17.44a52.13 52.13 0 0 0 -15.35-2.65l-1.06-10.17a6.55 6.55 0 0 0 -2.38-4.43 6.61 6.61 0 0 0 -4.15-1.47 5.32 5.32 0 0 0 -.69 0l-25.41 2.68a6.6 6.6 0 0 0 -5.48 4.22 37.69 37.69 0 0 0 -12.59-2 49.73 49.73 0 0 0 -5.36.29l-29.9 3.14a6.58 6.58 0 0 0 -5.86 7.24l6.94 66.11c-17.81 12.53-21.36 30.42-19.06 46.82-13.15 3.76-29.19 13.62-36.29 26.95l-42.98 4.45a6.6 6.6 0 0 0 -5.87 7.28l2.4 22.89a6.6 6.6 0 0 0 6.56 5.9h.69l7.24-.77 4.55 43.54a6.6 6.6 0 0 0 6.56 5.91h.68l3.33-.35c-4.22 12.08-3 26.45 3.32 39.65 10.53 21.89 32.38 35.49 57 35.49a73.27 73.27 0 0 0 8.43-.5c8.23 13.06 26.9 14.58 40.29 14.58 5.75 0 12.21-.32 20.19-1l3.92 32.28-6.55 55.9-13.31 35.31-14 5.25a5.82 5.82 0 0 0 -3.58 6.92l4.1 15.6a5.86 5.86 0 0 0 3 3.7 5.79 5.79 0 0 0 2.63.63 5.89 5.89 0 0 0 2.11-.39l29.85-11.62a5.84 5.84 0 0 0 3.5-3.89l19-69.38 27.33 68.6a5.82 5.82 0 0 0 5.4 3.67 5.75 5.75 0 0 0 2.1-.4l41-15.86a5.83 5.83 0 0 0 3.71-5.67l-1.05-23.58 11.3-36.69 27.54 69.12a5.81 5.81 0 0 0 5.4 3.66 5.74 5.74 0 0 0 2.1-.39l41-15.88a5.81 5.81 0 0 0 3.71-5.68l-.95-21.48 10.07-38 27.28 68.47a5.79 5.79 0 0 0 7.5 3.27l41-15.9a5.81 5.81 0 0 0 3.71-5.68l-.91-21.51a5.82 5.82 0 0 0 -7.47-5.32l-19.12 5.69-29.55-48.78-12-54.73c21.59-2.08 45-6.34 56.76-26 25.38-2.9 43.3-23.06 49.83-41.85 5.71-16.45 4-32.82-4.58-45.16l8-.84a6.61 6.61 0 0 0 5.86-7.24l-4.56-43.57 7.22-.76a6.58 6.58 0 0 0 5.87-7.23z" fill="#fff"/><path d="m299.55 104.48-2.21.2 1.66 16.07 2.21-.27c5.11-.62 10.88-2.22 10.15-9.15-.56-5.37-4.32-7.54-11.83-6.85zm8.25 97.62 13.89-1.46-9.06-20zm172.74-44.64 5.25 50.14-16.68 1.75-5.27-50.13-31.75 3.37 1.13 10.71 18.82-2 1.47 14.15-18.8 2 1.16 11.09 19.83-2.11 1.5 14.17-36.54 3.83-6.74-64.28 78.92-8.3 1.48 14.15zm-84.47 59.54-34.91-36.39 4.16 39.62-32.44 3.41-5.35-10.64-23 2.42-3.24 11.58-51.08 5.36-6.74-64.28 16.69-1.75 5.26 50.13 22.12-2.33 14-52.15 18.23-1.91 28.23 55.44-6-57.78 16.59-1.73 34.86 36.28-4.12-39.52 16.67-1.76 6.75 64.27zm-189.28-84.42a31.78 31.78 0 0 1 8.31-25 37.74 37.74 0 0 1 49.37-5.18 31.74 31.74 0 0 1 13.33 22.71c1.05 10-1.57 19.43-7.36 26.53s-14.44 11.58-24.44 12.63c-20.58 2.14-37.06-11.19-39.2-31.7zm30.33 74.33c-3.39 3.85-8.85 6.21-16.23 7l-9.51 1 2.23 21.29-16.69 1.8-6.74-64.26 25.54-2.7c15-1.58 24.11 5.06 25.54 18.69.78 7.4-.61 13.19-4.14 17.21zm-50.12-38.59-16.68 1.78-6.74-64.27 36.89-3.83 1.53 14.1-20.19 2.13 1.1 10.77 18.29-2 1.49 14.15-18.3 1.92zm-60.16 77-6.72-64.24 36.49-3.85 1.48 14.14-19.82 2.08 1.14 10.73 18.79-2 1.48 14.15-18.78 2 1.15 11.08 19.81-2.08 1.48 14.15zm-24.6 2.59-2.75-26.35-24.1 2.53 2.76 26.34-16.66 1.77-5.24-50.08-12.61 1.33 5.25 50.09-16.69 1.75-5.2-50.09-13.8 1.45-1.53-14.15 59.77-6.28 2.56 24.78 24.09-2.53-2.6-24.76 16.7-1.78 6.81 64.25zm6.67-207.07 25.54-2.68c7.18-.75 13 .35 17.37 3.28 4.69 3.16 7.44 8.35 8.18 15.42.78 7.41-.62 13.19-4.16 17.22-3.39 3.85-8.87 6.2-16.28 7l-9.47 1 2.25 21.31-16.68 1.74zm70-7.35 5.25 50.12 22.12-2.32 14-52.16 18.23-1.91 30.93 61.78-17.8 1.86-5.34-10.74-23 2.43-3.26 11.61-51.04 5.38-6.74-64.27zm123.82 122.65-16.73 1.76-6.7-64.23 24.95-2.67c6.58-.69 12.25.37 16.42 3.07 4.54 3 7.3 7.92 8 14.37.88 8.35-2.57 15.27-9.25 18.51l-2.7 1.31 22.74 24-20.78 2.18-18.52-23.24zm-21.13-133.42 34.88 36.28-4.15-39.54 58.83-6.17 1.48 14.15-13.78 1.46 5.24 50.1-16.67 1.77-5.26-50.12-11.67 1.24 5.27 50.11-16.69 1.75-34.89-36.36 4.14 39.61-16.67 1.63-6.73-64.15zm217.54 137.22-.46-4.37-1.47-14.16-.46-4.37-46.33 4.88c-6.5-5.84-17.93-9.72-26.62-9.9 2.14-17.36-6.92-49.35-43.16-49.39-1.44-13.75-6.39-28.69-14.75-39.23l-1.13-10.71 13.79-1.44-.46-4.37-1.94-18.51-68.64 7.2.46 4.37 1.1 10.43a94.44 94.44 0 0 0 -9.86 4.34l-15.94-16.58-23.18 2.42.46 4.37 1.25 12.3a57.15 57.15 0 0 0 -13.21.37l-7.52-15-24.24 2.52-.78 2.89-6 22.24c-6.27-4.33-15.5-6-25.57-5.43l-1.69-16.13-25.4 2.68.45 4.36.62 5.84a21.13 21.13 0 0 0 -4.2-3.75c-5.22-3.52-12-4.86-20.28-4l-29.87 3.19.46 4.36 6.87 65.42c-18 10.24-23.7 32.63-18.09 48.68-15.3 2.52-32.89 13.63-40.71 28.36l-2.69.29-43.09 4.49.45 4.4 1.49 14.11.46 4.37 13.79-1.48 5.25 50.1 15.75-1.66c-22.45 28.1 6.65 85.14 60.83 75.28 5.67 16.08 29.79 16.55 57.31 14.14l-.75-6.18-94.71-50.24 10.63-23.61 22.42 9.17-2-7.08 10.22-2.41 7.85 19.21 48.37 35.33-1.33-19.26 20.19-2.11 5.62 19 14.44-13.09-46.32-24.59 10.59-23.58 22.43 9.09-2-7.06 10.21-2.45 7.86 19.22 16.38 12 8.3-7.52 1.22-27.37 17.82 1.25-.48 11.07 15-19.3 13.85 9.39-1.57-5.64 10.18-2.38 7.89 19.28 17.12 12.5 9-8.19 1.27-27.39 17.82 1.24-.5 11.05 15.79-20.28 15.39 26.82-24.49 19.81 15.87-1.69 5.61 19 41.88-37.95 1.27-27.37 17.79 1.26-.49 11.05 15.76-20.24 15.41 26.8-81.65 66.07 1.11 5.07c22.68-2.06 45.8-5.87 55.54-25.94 42.51-1.93 64.22-54.16 41.93-81.37-3.36-4.1-5.32-4.63-5.32-4.63l20-2.11-5.24-50.13 9.42-1zm-279.52 25.35c-2.35-.81-5.48-.49-8.5-.17l-2.82.29 1.68 16 2.83-.29c5.88-.62 12-1.27 11.16-9.12-.39-3.71-1.76-5.85-4.32-6.74zm-88.08-117c5.89-.65 12-1.31 11.17-9.13-.86-8.16-6.43-7.58-12.85-6.9l-2.82.28 1.68 16zm99.85-20.5-4.83 21.43 13.89-1.46zm29.06 79.21c-1-9-10.28-16.08-19.92-15.06a18.61 18.61 0 0 0 -12.28 6.5 16.62 16.62 0 0 0 -4.08 12.36 19.67 19.67 0 0 0 6.76 13.2 17.65 17.65 0 0 0 11.19 4.18s1.1 0 2.12-.11 2.24-.34 2.24-.34c9.11-2 15-10.57 14-20.72zm53.78 182.17-25.52 20.63 1.05 4.74 51.09-5.37-.76-6.25zm-89.4 8.9-26.19 21.19 1 4.73 52.57-5.53-.76-6.25zm42.06-34-11.07 9 17.35-1.83 5.62 19 13.77-12.49zm-24.51 19.83 11.91 8.69-1.2-17.35zm100.5-.63-1.13-16.35-10.09 8.16zm7.09 65-6.68 57-.1.25-8.9 23.62-3.46 1.05-31.6-52.14-.08-.35-15.3-69.67 29.87-24.03 30.44 16.16 5.84 47.84zm-73.41-50.16-6.56-22.11-12.39 1.3 1.69 24.44-24.13-17.61 31.21-25.24 33.75 17.93zm-15.17 59.5-6.69 57-9.56 25.39-3.59 1.09-32.37-53.47-15.4-70 30.55-24.72 31.23 16.56 5.86 48zm158.82 64.62-32.38-53.44-15.37-70 80.85-65.42-10.31-17.9-20.2 26 .92-20.53-9.05-.64-1.11 24.7-48.4 43.86-6.56-22.2-12.38 1.34 1.69 24.42-23.44-17.11 40.26-32.57-10.28-17.92-20.2 26 .92-20.52-9.08-.64-1.15 24.74-13 11.81-21-15.34-6.94-17.03-2.09.49 3.53 12.67-20.33-13.75-20.94 26.9.9-20.52-9.07-.63-1.11 24.7-12.29 11.14-20.27-14.8-6.91-16.92-2.08.49 3.1 11.24-26.76-10.85-7.18 16 48.22 25.6-24.24 22-6.55-22.17-12.36 1.29 1.68 24.43-57-41.61-6.91-16.91-2.09.49 3.1 11.25-26.72-10.88-7.21 16 93.1 49.4 5.83 47.92-6.72 57.3-14.52 38.51-16.44 6.18 4.1 15.59 29.85-11.61 23.54-86.15 33.76 84.75 41-15.86-1.11-24.52 16.53-53.43 33.66 84.35 41-15.92-1-22.37.08-.32 14.72-55.55 33.79 84.83 41-15.9-.94-21.43z" fill="#688716"/></g></svg>