<svg clip-rule="evenodd" fill-rule="evenodd" stroke-linejoin="round" stroke-miterlimit="1.41421" viewBox="0 0 60 85" xmlns="http://www.w3.org/2000/svg"><g fill-rule="nonzero"><path d="m.415 51.845 58.95.028-10.686 32.659-37.288-.03-10.976-32.657z" fill="#7f6c5e"/><path d="m25.739 54.735 28.931.052-6.244 22.455s4.056-19.98.526-20.387z" fill="#5e4c43"/><path d="m31.676 40.923c.043-4.948.868-9.996 7.036-11.876.265 4.97-2.55 9.72-7.036 11.876z" fill="#66922f"/><path d="m31.05 51.864c.934-6.587 5.519-16.626-4.676-27.721 7.413 13.217 4.17 21.805 2.807 27.897z" fill="#564f48"/><path d="m28.31 27.376c-1.243-6.433.856-16.34 6.607-21.036 1.408 10.622-.966 17.88-6.607 21.036z" fill="#87bc24"/><path d="m28.475 27.233c4.705-9.567-4.774-24.169-11.559-26.665-1.264 6.873 2.982 25.434 11.559 26.665z" fill="#50752c"/></g></svg>