<svg clip-rule="evenodd" fill-rule="evenodd" stroke-linejoin="round" stroke-miterlimit="1.41421" viewBox="0 0 170 208" xmlns="http://www.w3.org/2000/svg"><path d="m167.852 83.926c.122 44.636-35.297 81.997-79.875 84.257-46.096 2.338-85.951-33.67-88.289-79.767-2.337-46.096 33.671-85.951 79.768-88.289 1.34-.068 2.682-.104 4.024-.107 44.638-.126 82.004 35.294 84.265 79.875.068 1.342.104 2.687.107 4.031z" fill="#66922e" fill-rule="nonzero"/><path d="m18.985 30.244c-6.697 36.55 4.254 79.492 42.586 95.654s85.894 7.616 104.648-25.791c-8.081 42.065-47.139 71.532-89.805 67.755-43.275-2.936-75.531-40.783-76.842-79.827-1.31-39.044 19.413-57.791 19.413-57.791z" fill="#50742b" fill-rule="nonzero"/><path d="m53.964 46.879c1.472-1.221 5.136.761 8.177 4.425s4.315 7.63 2.844 8.852c-1.472 1.221-5.136-.761-8.177-4.425s-4.316-7.63-2.844-8.852z" fill="#25360a"/><path d="m99.14 201.876 1.086-62.93 27.54-44.494-14.868.048-16.9 18.34c.116-16.737-.956-30.227-3.448-39.838l-16.017 12.278c3.66 25.368 5.782 42.042.35 52.578l-21.774-19.506-7.937 14.82 28.17 29.399s-.151 40.396.052 40.599c3.426 3.414 20.175 2.403 23.746-1.294z" fill="#3d322d" fill-rule="nonzero"/><path d="m116.509 119.051c-.388-1.523 2.271-3.516 5.935-4.45 3.663-.933 6.953-.455 7.341 1.067.387 1.522-2.272 3.516-5.936 4.45-3.663.933-6.953.455-7.34-1.067z" fill="#25360a"/><path d="m35.931 80.983c-.666-1.792 2.416-4.595 6.879-6.254s8.628-1.551 9.294.241c.667 1.793-2.416 4.596-6.879 6.255s-8.627 1.551-9.294-.242z" fill="#25360a"/><path d="m55.922 75.036c.038-1.912 3.934-3.387 8.695-3.292 4.76.095 8.594 1.724 8.556 3.637-.038 1.912-3.934 3.387-8.695 3.292-4.76-.095-8.594-1.725-8.556-3.637z" fill="#25360a"/><path d="m31.201 136.879c-.525-1.839 2.766-4.393 7.344-5.701 4.579-1.308 8.723-.876 9.248.963s-2.766 4.393-7.344 5.701c-4.579 1.308-8.722.876-9.248-.963z" fill="#25360a"/><path d="m33.224 123.56c1.02-1.642 4.46-1.352 7.676.647 3.216 2 4.998 4.956 3.978 6.598-1.021 1.641-4.461 1.351-7.677-.648-3.216-2-4.998-4.956-3.977-6.597z" fill="#abd25d"/><path d="m107.836 107.075c1.051-1.095 4.123.144 6.855 2.766s4.097 5.64 3.046 6.735c-1.051 1.096-4.123-.144-6.855-2.766-2.733-2.621-4.098-5.64-3.046-6.735z" fill="#abd25d"/><path d="m47.679 103.843c1.9-.357 4.01 2.375 4.709 6.097.699 3.721-.276 7.033-2.176 7.389-1.9.357-4.01-2.375-4.709-6.097-.699-3.721.276-7.033 2.176-7.389z" fill="#abd25d"/><path d="m51.094 62.036c.827-1.747 4.278-1.849 7.7-.228s5.529 4.355 4.701 6.102c-.827 1.747-4.278 1.85-7.7.229s-5.529-4.356-4.701-6.103z" fill="#abd25d"/><path d="m94.913 80.936c.99-1.66 4.435-1.435 7.688.504s5.09 4.861 4.1 6.522c-.989 1.66-4.434 1.434-7.687-.504-3.253-1.939-5.09-4.861-4.101-6.522z" fill="#abd25d"/><path d="m104.381 64.606c-.451-1.88 2.174-4.122 5.856-5.004 3.683-.882 7.038-.072 7.489 1.808.45 1.88-2.174 4.122-5.857 5.004s-7.038.072-7.488-1.808z" fill="#abd25d"/><path d="m69.537 79.871c-.451-1.88 2.174-4.123 5.856-5.005 3.683-.882 7.038-.072 7.489 1.808.45 1.88-2.174 4.123-5.857 5.005s-7.038.072-7.488-1.808z" fill="#abd25d"/><g fill="#c9d993"><path d="m55.732 114.913c-1.665-.983-1.453-4.428.472-7.689s4.84-5.111 6.505-4.128c1.664.983 1.453 4.428-.473 7.689-1.925 3.261-4.839 5.111-6.504 4.128z"/><path d="m50.224 86.53c-.8-1.76 1.349-4.462 4.796-6.029 3.447-1.568 6.895-1.412 7.696.348.8 1.759-1.349 4.461-4.796 6.028-3.447 1.568-6.895 1.412-7.696-.347z"/><path d="m103.526 54.384c-1.597-1.09-1.16-4.514.976-7.642 2.135-3.127 5.164-4.781 6.761-3.691s1.159 4.514-.976 7.641c-2.135 3.128-5.165 4.782-6.761 3.692z"/><path d="m92.983 72.135c-1.596-1.09-1.159-4.514.976-7.641 2.135-3.128 5.165-4.782 6.761-3.692 1.597 1.09 1.16 4.514-.975 7.642-2.135 3.127-5.165 4.781-6.762 3.691z"/><path d="m118.065 116.961c-1.014-1.316.124-3.896 2.541-5.758 2.416-1.862 5.2-2.305 6.214-.99 1.014 1.316-.124 3.896-2.54 5.758s-5.201 2.305-6.215.99z"/><path d="m97.528 76.294c-.635-1.826 1.752-4.319 5.328-5.564s6.996-.774 7.632 1.051c.635 1.826-1.752 4.319-5.328 5.565-3.576 1.245-6.996.774-7.632-1.052z"/><path d="m87.387 71.578c-1.813.671-4.352-1.667-5.667-5.218s-.911-6.979.902-7.651c1.813-.671 4.352 1.667 5.667 5.218 1.315 3.552.911 6.98-.902 7.651z"/><path d="m80.501 72.015c-1.103 1.588-4.524 1.122-7.633-1.039-3.11-2.162-4.739-5.205-3.635-6.792 1.103-1.588 4.523-1.122 7.633 1.039 3.109 2.161 4.738 5.205 3.635 6.792z"/></g></svg>