<svg id="Ebene_1" data-name="Ebene 1" xmlns="http://www.w3.org/2000/svg" viewBox="0 0 50 50"><defs><style>.cls-1{fill:#696261;}</style></defs><title>Zeichenfläche 9</title><path class="cls-1" d="M40.61,0H9.39A9.36,9.36,0,0,0,0,9.39V40.61A9.36,9.36,0,0,0,9.39,50H40.61A9.36,9.36,0,0,0,50,40.61V9.39A9.36,9.36,0,0,0,40.61,0ZM37.43,19.39l0,.8c0,8.13-6.18,17.49-17.49,17.49a17.4,17.4,0,0,1-9.42-2.76A12.64,12.64,0,0,0,12,35a12.34,12.34,0,0,0,7.64-2.63,6.16,6.16,0,0,1-5.74-4.27,6.42,6.42,0,0,0,1.16.11A6.15,6.15,0,0,0,16.66,28a6.16,6.16,0,0,1-4.93-6v-.08a6.14,6.14,0,0,0,2.78.77,6.16,6.16,0,0,1-1.9-8.21,17.45,17.45,0,0,0,12.67,6.42,6.15,6.15,0,0,1,10.48-5.61,12.45,12.45,0,0,0,3.91-1.49,6.17,6.17,0,0,1-2.7,3.4,12.33,12.33,0,0,0,3.53-1A12.43,12.43,0,0,1,37.43,19.39Z"/></svg>