<?xml version="1.0" encoding="UTF-8" standalone="no"?><!DOCTYPE svg PUBLIC "-//W3C//DTD SVG 1.1//EN" "http://www.w3.org/Graphics/SVG/1.1/DTD/svg11.dtd"><svg width="100%" height="100%" viewBox="0 0 60 85" version="1.1" xmlns="http://www.w3.org/2000/svg" xmlns:xlink="http://www.w3.org/1999/xlink" xml:space="preserve" style="fill-rule:evenodd;clip-rule:evenodd;stroke-linejoin:round;stroke-miterlimit:1.41421;"><path id="Pot-72" d="M0.415,51.845l58.95,0.028l-10.686,32.659l-37.288,-0.03l-10.976,-32.657Z" style="fill:#7f6c5e;fill-rule:nonzero;"/><path id="shadow-72" d="M25.739,54.735l28.931,0.052l-6.244,22.455c0,0 4.056,-19.98 0.526,-20.387l-23.213,-2.12Z" style="fill:#5e4c43;fill-rule:nonzero;"/><path id="LeafSmall-72" d="M31.676,40.923c0.043,-4.948 0.868,-9.996 7.036,-11.876c0.265,4.97 -2.55,9.72 -7.036,11.876Z" style="fill:#66922f;fill-rule:nonzero;"/><path id="Root-72" d="M31.05,51.864c0.934,-6.587 5.519,-16.626 -4.676,-27.721c7.413,13.217 4.17,21.805 2.807,27.897l1.869,-0.176" style="fill:#564f48;fill-rule:nonzero;"/><path id="LeafMiddle-72" d="M28.31,27.376c-1.243,-6.433 0.856,-16.34 6.607,-21.036c1.408,10.622 -0.966,17.88 -6.607,21.036Z" style="fill:#87bc24;fill-rule:nonzero;"/><path id="LeafBig-72" d="M28.475,27.233c4.705,-9.567 -4.774,-24.169 -11.559,-26.665c-1.264,6.873 2.982,25.434 11.559,26.665Z" style="fill:#50752c;fill-rule:nonzero;"/></svg>