<?xml version="1.0" encoding="UTF-8" standalone="no"?><!DOCTYPE svg PUBLIC "-//W3C//DTD SVG 1.1//EN" "http://www.w3.org/Graphics/SVG/1.1/DTD/svg11.dtd"><svg width="100%" height="100%" viewBox="0 0 170 208" version="1.1" xmlns="http://www.w3.org/2000/svg" xmlns:xlink="http://www.w3.org/1999/xlink" xml:space="preserve" style="fill-rule:evenodd;clip-rule:evenodd;stroke-linejoin:round;stroke-miterlimit:1.41421;"><path id="Krone-31" d="M167.852,83.926c0.122,44.636 -35.297,81.997 -79.875,84.257c-46.096,2.338 -85.951,-33.67 -88.289,-79.767c-2.337,-46.096 33.671,-85.951 79.768,-88.289c1.34,-0.068 2.682,-0.104 4.024,-0.107c44.638,-0.126 82.004,35.294 84.265,79.875c0.068,1.342 0.104,2.687 0.107,4.031l0,0Z" style="fill:#66922e;fill-rule:nonzero;"/><path id="Schatten-31" d="M18.985,30.244c-6.697,36.55 4.254,79.492 42.586,95.654c38.332,16.162 85.894,7.616 104.648,-25.791c-8.081,42.065 -47.139,71.532 -89.805,67.755c-43.275,-2.936 -75.531,-40.783 -76.842,-79.827c-1.31,-39.044 19.413,-57.791 19.413,-57.791Z" style="fill:#50742b;fill-rule:nonzero;"/><path d="M53.964,46.879c1.472,-1.221 5.136,0.761 8.177,4.425c3.041,3.664 4.315,7.63 2.844,8.852c-1.472,1.221 -5.136,-0.761 -8.177,-4.425c-3.041,-3.664 -4.316,-7.63 -2.844,-8.852Z" style="fill:#25360a;"/><path id="Stamm-31" d="M99.14,201.876l1.086,-62.93l27.54,-44.494l-14.868,0.048l-16.9,18.34c0.116,-16.737 -0.956,-30.227 -3.448,-39.838l-16.017,12.278c3.66,25.368 5.782,42.042 0.35,52.578l-21.774,-19.506l-7.937,14.82l28.17,29.399c0,0 -0.151,40.396 0.052,40.599c3.426,3.414 20.175,2.403 23.746,-1.294Z" style="fill:#3d322d;fill-rule:nonzero;"/><path d="M116.509,119.051c-0.388,-1.523 2.271,-3.516 5.935,-4.45c3.663,-0.933 6.953,-0.455 7.341,1.067c0.387,1.522 -2.272,3.516 -5.936,4.45c-3.663,0.933 -6.953,0.455 -7.34,-1.067Z" style="fill:#25360a;"/><path d="M35.931,80.983c-0.666,-1.792 2.416,-4.595 6.879,-6.254c4.463,-1.659 8.628,-1.551 9.294,0.241c0.667,1.793 -2.416,4.596 -6.879,6.255c-4.463,1.659 -8.627,1.551 -9.294,-0.242Z" style="fill:#25360a;"/><path d="M55.922,75.036c0.038,-1.912 3.934,-3.387 8.695,-3.292c4.76,0.095 8.594,1.724 8.556,3.637c-0.038,1.912 -3.934,3.387 -8.695,3.292c-4.76,-0.095 -8.594,-1.725 -8.556,-3.637Z" style="fill:#25360a;"/><path d="M31.201,136.879c-0.525,-1.839 2.766,-4.393 7.344,-5.701c4.579,-1.308 8.723,-0.876 9.248,0.963c0.525,1.839 -2.766,4.393 -7.344,5.701c-4.579,1.308 -8.722,0.876 -9.248,-0.963Z" style="fill:#25360a;"/><path d="M33.224,123.56c1.02,-1.642 4.46,-1.352 7.676,0.647c3.216,2 4.998,4.956 3.978,6.598c-1.021,1.641 -4.461,1.351 -7.677,-0.648c-3.216,-2 -4.998,-4.956 -3.977,-6.597Z" style="fill:#abd25d;"/><path d="M107.836,107.075c1.051,-1.095 4.123,0.144 6.855,2.766c2.732,2.622 4.097,5.64 3.046,6.735c-1.051,1.096 -4.123,-0.144 -6.855,-2.766c-2.733,-2.621 -4.098,-5.64 -3.046,-6.735Z" style="fill:#abd25d;"/><path d="M47.679,103.843c1.9,-0.357 4.01,2.375 4.709,6.097c0.699,3.721 -0.276,7.033 -2.176,7.389c-1.9,0.357 -4.01,-2.375 -4.709,-6.097c-0.699,-3.721 0.276,-7.033 2.176,-7.389Z" style="fill:#abd25d;"/><path d="M51.094,62.036c0.827,-1.747 4.278,-1.849 7.7,-0.228c3.422,1.621 5.529,4.355 4.701,6.102c-0.827,1.747 -4.278,1.85 -7.7,0.229c-3.422,-1.621 -5.529,-4.356 -4.701,-6.103Z" style="fill:#abd25d;"/><path d="M94.913,80.936c0.99,-1.66 4.435,-1.435 7.688,0.504c3.253,1.939 5.09,4.861 4.1,6.522c-0.989,1.66 -4.434,1.434 -7.687,-0.504c-3.253,-1.939 -5.09,-4.861 -4.101,-6.522Z" style="fill:#abd25d;"/><path d="M104.381,64.606c-0.451,-1.88 2.174,-4.122 5.856,-5.004c3.683,-0.882 7.038,-0.072 7.489,1.808c0.45,1.88 -2.174,4.122 -5.857,5.004c-3.683,0.882 -7.038,0.072 -7.488,-1.808Z" style="fill:#abd25d;"/><path d="M69.537,79.871c-0.451,-1.88 2.174,-4.123 5.856,-5.005c3.683,-0.882 7.038,-0.072 7.489,1.808c0.45,1.88 -2.174,4.123 -5.857,5.005c-3.683,0.882 -7.038,0.072 -7.488,-1.808Z" style="fill:#abd25d;"/><path d="M55.732,114.913c-1.665,-0.983 -1.453,-4.428 0.472,-7.689c1.925,-3.261 4.84,-5.111 6.505,-4.128c1.664,0.983 1.453,4.428 -0.473,7.689c-1.925,3.261 -4.839,5.111 -6.504,4.128Z" style="fill:#c9d993;"/><path d="M50.224,86.53c-0.8,-1.76 1.349,-4.462 4.796,-6.029c3.447,-1.568 6.895,-1.412 7.696,0.348c0.8,1.759 -1.349,4.461 -4.796,6.028c-3.447,1.568 -6.895,1.412 -7.696,-0.347Z" style="fill:#c9d993;"/><path d="M103.526,54.384c-1.597,-1.09 -1.16,-4.514 0.976,-7.642c2.135,-3.127 5.164,-4.781 6.761,-3.691c1.597,1.09 1.159,4.514 -0.976,7.641c-2.135,3.128 -5.165,4.782 -6.761,3.692Z" style="fill:#c9d993;"/><path d="M92.983,72.135c-1.596,-1.09 -1.159,-4.514 0.976,-7.641c2.135,-3.128 5.165,-4.782 6.761,-3.692c1.597,1.09 1.16,4.514 -0.975,7.642c-2.135,3.127 -5.165,4.781 -6.762,3.691Z" style="fill:#c9d993;"/><path d="M118.065,116.961c-1.014,-1.316 0.124,-3.896 2.541,-5.758c2.416,-1.862 5.2,-2.305 6.214,-0.99c1.014,1.316 -0.124,3.896 -2.54,5.758c-2.416,1.862 -5.201,2.305 -6.215,0.99Z" style="fill:#c9d993;"/><path d="M97.528,76.294c-0.635,-1.826 1.752,-4.319 5.328,-5.564c3.576,-1.245 6.996,-0.774 7.632,1.051c0.635,1.826 -1.752,4.319 -5.328,5.565c-3.576,1.245 -6.996,0.774 -7.632,-1.052Z" style="fill:#c9d993;"/><path d="M87.387,71.578c-1.813,0.671 -4.352,-1.667 -5.667,-5.218c-1.315,-3.551 -0.911,-6.979 0.902,-7.651c1.813,-0.671 4.352,1.667 5.667,5.218c1.315,3.552 0.911,6.98 -0.902,7.651Z" style="fill:#c9d993;"/><path d="M80.501,72.015c-1.103,1.588 -4.524,1.122 -7.633,-1.039c-3.11,-2.162 -4.739,-5.205 -3.635,-6.792c1.103,-1.588 4.523,-1.122 7.633,1.039c3.109,2.161 4.738,5.205 3.635,6.792Z" style="fill:#c9d993;"/></svg>